<svg width="312" height="196" viewBox="0 0 312 196" fill="none" xmlns="http://www.w3.org/2000/svg">
<rect width="312" height="196" fill="white"/>
<mask id="mask0" mask-type="alpha" maskUnits="userSpaceOnUse" x="0" y="0" width="312" height="196">
<rect width="312" height="196" fill="white"/>
</mask>
<g mask="url(#mask0)">
<path d="M277.128 17.2101C272.036 17.2101 266.621 21.1549 261.098 28.9011C261.026 29.0087 261.026 29.188 261.17 29.2598C261.277 29.3315 261.457 29.3315 261.528 29.188C267.159 21.2984 272.538 17.4611 277.63 17.7122C281.754 17.9273 284.623 20.7246 287.6 23.7011C290.577 26.6418 293.697 29.6901 298.143 29.9053C303.128 30.1563 308.292 26.8211 313.528 19.9715C313.636 19.8639 313.6 19.6846 313.492 19.577C313.385 19.4694 313.205 19.5053 313.098 19.6129C307.97 26.2832 302.949 29.5825 298.179 29.3315C293.912 29.1163 290.899 26.1398 287.959 23.2708C285.018 20.366 281.97 17.3894 277.63 17.1384C277.451 17.2101 277.308 17.2101 277.128 17.2101Z" fill="#14132F"/>
<path d="M17.129 185.475C13.0766 185.475 8.809 188.595 4.43383 194.727C4.36211 194.835 4.36211 195.014 4.50556 195.086C4.61314 195.157 4.79245 195.157 4.86418 195.014C9.27521 188.81 13.5428 185.797 17.5235 186.013C20.7511 186.192 23.0104 188.38 25.3414 190.711C27.7083 193.042 30.1469 195.444 33.6973 195.624C37.6421 195.803 41.7304 193.185 45.8904 187.77C45.998 187.662 45.9621 187.483 45.8545 187.375C45.7469 187.268 45.5676 187.304 45.46 187.411C41.4435 192.683 37.4987 195.229 33.7331 195.05C30.398 194.871 28.0311 192.54 25.7359 190.28C23.4049 187.985 21.0021 185.618 17.5593 185.439C17.4159 185.475 17.2725 185.475 17.129 185.475Z" fill="#14132F"/>
<path fill-rule="evenodd" clip-rule="evenodd" d="M56.612 139.392C56.6478 139.285 56.7196 139.249 56.8271 139.249C56.8692 139.249 56.8989 139.261 56.9235 139.271C56.9409 139.278 56.9557 139.285 56.9706 139.285L62.852 142.656C62.9954 142.727 63.0313 142.871 62.9596 143.014L59.5885 148.896C59.5168 149.039 59.3734 149.075 59.2299 149.003L53.3485 145.632C53.2051 145.56 53.1692 145.417 53.2409 145.274L56.612 139.392ZM56.9347 139.894L53.8147 145.309L59.2299 148.429L62.3499 143.014L56.9347 139.894Z" fill="#14132F"/>
<path d="M113.097 173.891C113.025 173.891 112.953 173.927 112.881 173.999C112.774 174.106 112.81 174.286 112.917 174.393L117.579 178.446C117.687 178.553 117.866 178.518 117.974 178.41C118.081 178.302 118.046 178.123 117.938 178.015L113.276 173.963C113.204 173.891 113.168 173.891 113.097 173.891Z" fill="#9B9DB1"/>
<path d="M241.698 48.0156C241.59 48.0156 241.483 48.0873 241.447 48.1949C241.411 48.3384 241.483 48.4818 241.626 48.5177L247.471 50.4542C247.615 50.4901 247.758 50.4184 247.794 50.2749C247.83 50.1315 247.758 49.988 247.615 49.9522L241.769 48.0156C241.769 48.0515 241.734 48.0156 241.698 48.0156Z" fill="#14132F"/>
<path d="M235.35 11.4723C235.314 11.4723 235.314 11.4723 235.35 11.4723C235.17 11.5082 235.063 11.6158 235.099 11.7592L235.888 17.8916C235.923 18.0351 236.031 18.1427 236.175 18.1068C236.318 18.071 236.426 17.9634 236.39 17.8199L235.601 11.6875C235.601 11.5799 235.457 11.4723 235.35 11.4723Z" fill="#14132F"/>
<path d="M291.258 4.08466C291.186 4.08466 291.115 4.12052 291.079 4.15638C290.971 4.26397 290.971 4.44328 291.079 4.55087L295.597 8.78259C295.705 8.89018 295.884 8.89018 295.992 8.78259C296.099 8.67501 296.099 8.4957 295.992 8.38811L291.473 4.15638C291.401 4.12052 291.33 4.08466 291.258 4.08466Z" fill="#14132F"/>
<path d="M189.626 41.0223C189.59 41.0223 189.518 41.0223 189.482 41.0581C189.374 41.1299 189.339 41.3092 189.41 41.4168L192.817 46.5809C192.889 46.6885 193.068 46.7244 193.176 46.6526C193.283 46.5809 193.319 46.4016 193.248 46.294L189.841 41.1299C189.805 41.0581 189.733 41.0223 189.626 41.0223Z" fill="black"/>
<path d="M189.804 6.20027C189.733 6.20027 189.661 6.23613 189.625 6.272L185.286 10.683C185.178 10.7906 185.178 10.9699 185.286 11.0775C185.393 11.1851 185.573 11.1851 185.68 11.0775L190.02 6.66648C190.127 6.55889 190.127 6.37958 190.02 6.272C189.912 6.23613 189.84 6.20027 189.804 6.20027Z" fill="#14132F"/>
<path d="M290.829 55.0087C290.757 55.0087 290.649 55.0445 290.614 55.1162C290.542 55.2238 290.542 55.4031 290.685 55.4749L295.67 59.0969C295.778 59.1687 295.957 59.1687 296.029 59.0252C296.1 58.9176 296.1 58.7383 295.957 58.6666L290.972 55.0445C290.936 55.0087 290.9 55.0087 290.829 55.0087Z" fill="#14132F"/>
<path d="M305.746 114.325C305.711 114.325 305.675 114.325 305.639 114.361C305.495 114.432 305.459 114.576 305.495 114.719L308.042 120.349C308.113 120.493 308.257 120.529 308.4 120.493C308.544 120.421 308.579 120.278 308.544 120.134L305.997 114.504C305.926 114.361 305.854 114.325 305.746 114.325Z" fill="#9B9DB1"/>
<path d="M26.3101 156.283C26.2384 156.283 26.1666 156.319 26.1308 156.355L21.899 160.838C21.7915 160.945 21.7915 161.125 21.899 161.232C22.0066 161.34 22.1859 161.34 22.2935 161.232L26.5253 156.75C26.6328 156.642 26.6328 156.463 26.5253 156.355C26.4535 156.283 26.3818 156.283 26.3101 156.283Z" fill="#14132F"/>
<path d="M37.6783 108.407C37.6065 108.407 37.5707 108.407 37.5348 108.443C37.4272 108.515 37.3914 108.694 37.4631 108.802L41.1569 113.751C41.2286 113.858 41.4079 113.894 41.5155 113.823C41.6231 113.751 41.659 113.572 41.5872 113.464L37.8934 108.515C37.8576 108.443 37.7859 108.407 37.6783 108.407Z" fill="#14132F"/>
<path d="M8.05533 78.7492C7.94775 78.7492 7.87602 78.7851 7.84016 78.8927L4.6843 84.2002C4.61258 84.3437 4.64844 84.4871 4.79189 84.5589C4.93533 84.6306 5.07878 84.5947 5.15051 84.4513L8.30637 79.1437C8.37809 79.0002 8.34223 78.8568 8.19878 78.7851C8.16292 78.7492 8.12706 78.7492 8.05533 78.7492Z" fill="#9B9DB1"/>
<path d="M32.0468 31.0171C32.0109 31.0171 31.975 31.0171 31.9392 31.0171C31.7957 31.0529 31.724 31.2322 31.7957 31.3757L33.9116 37.1853C33.9474 37.3288 34.1268 37.4005 34.2702 37.3288C34.4136 37.2929 34.4854 37.1136 34.4136 36.9702L32.2978 31.1605C32.2619 31.0888 32.1543 31.0171 32.0468 31.0171Z" fill="#9B9DB1"/>
<path d="M42.2681 -2.55003C42.1605 -2.55003 42.0529 -2.47831 42.0171 -2.37072L40.224 3.54652C40.1881 3.68997 40.2598 3.83342 40.4033 3.86928C40.5467 3.90514 40.6902 3.83342 40.7261 3.68997L42.5192 -2.22727C42.555 -2.37072 42.4833 -2.51417 42.3398 -2.55003C42.304 -2.55003 42.304 -2.55003 42.2681 -2.55003Z" fill="black"/>
<path d="M1.88733 7.92198C1.77974 7.92198 1.70802 7.99371 1.63629 8.06543C1.56457 8.20888 1.63629 8.35233 1.74388 8.42405L7.3025 11.1137C7.44595 11.1854 7.5894 11.1137 7.66112 11.0061C7.73284 10.8627 7.66112 10.7192 7.55353 10.6475L1.99491 7.95784C1.95905 7.92198 1.92319 7.92198 1.88733 7.92198Z" fill="black"/>
<path d="M253.962 137.455C253.89 137.455 253.818 137.491 253.747 137.563C253.639 137.67 253.675 137.85 253.782 137.957L258.624 141.759C258.731 141.866 258.911 141.83 259.018 141.723C259.126 141.615 259.09 141.436 258.982 141.328L254.141 137.527C254.069 137.455 254.033 137.455 253.962 137.455Z" fill="#9B9DB1"/>
<path d="M293.123 169.731C292.944 169.731 292.836 169.875 292.872 170.018L293.267 176.186C293.267 176.33 293.41 176.438 293.553 176.438C293.697 176.438 293.805 176.294 293.805 176.151L293.41 169.982C293.374 169.839 293.267 169.731 293.123 169.731Z" fill="#9B9DB1"/>
<circle r="3.08414" transform="matrix(1 0 0 -1 236.102 161.627)" fill="#E6F8FF"/>
<path fill-rule="evenodd" clip-rule="evenodd" d="M277.953 117.301C278.276 116.656 278.922 116.297 279.603 116.297C279.89 116.297 280.141 116.369 280.428 116.476C281.324 116.942 281.719 118.054 281.253 118.951C281.038 119.417 280.643 119.74 280.177 119.883C279.711 120.027 279.244 119.991 278.778 119.776C278.312 119.56 277.989 119.166 277.846 118.7C277.702 118.234 277.738 117.731 277.953 117.301ZM279.029 119.309C279.209 119.417 279.388 119.453 279.603 119.453C279.747 119.453 279.89 119.417 280.033 119.381C280.356 119.274 280.643 119.058 280.787 118.736C281.109 118.09 280.858 117.301 280.213 116.978C279.567 116.656 278.778 116.907 278.455 117.552C278.312 117.875 278.276 118.234 278.384 118.556C278.491 118.879 278.707 119.166 279.029 119.309Z" fill="#9B9DB1"/>
<path fill-rule="evenodd" clip-rule="evenodd" d="M10.9612 126.948C11.284 126.302 11.9295 125.944 12.6109 125.944C12.8978 125.944 13.1847 126.016 13.4357 126.123C13.9019 126.338 14.2247 126.733 14.3681 127.199C14.5116 127.665 14.4757 128.167 14.2605 128.598C13.7943 129.494 12.6826 129.889 11.7861 129.422C11.3199 129.207 10.9971 128.813 10.8536 128.347C10.7102 127.88 10.7461 127.378 10.9612 126.948ZM12.0371 128.956C12.2164 129.064 12.4316 129.1 12.6109 129.1C13.0771 129.1 13.5433 128.813 13.7943 128.382C13.9378 128.06 13.9736 127.701 13.8661 127.378C13.7585 127.056 13.5433 126.769 13.2205 126.625C12.575 126.302 11.7861 126.553 11.4633 127.199C11.1405 127.844 11.3916 128.633 12.0371 128.956Z" fill="#14132F"/>
<circle r="3.58621" transform="matrix(1 0 0 -1 74.5081 185.69)" fill="#E6F3FF"/>
<circle r="1.7931" transform="matrix(1 0 0 -1 21.1818 58.9178)" fill="#E6F8FF"/>
<path fill-rule="evenodd" clip-rule="evenodd" d="M311.109 195.69H194.467C194.13 195.69 193.836 195.396 193.836 195.059V110.467C193.836 110.13 194.13 109.836 194.467 109.836H311.109C311.446 109.836 311.74 110.13 311.74 110.467V195.059C311.74 195.396 311.446 195.69 311.109 195.69Z" fill="#C7C8D9"/>
<mask id="mask1" mask-type="alpha" maskUnits="userSpaceOnUse" x="193" y="109" width="119" height="87">
<path fill-rule="evenodd" clip-rule="evenodd" d="M311.109 195.69H194.467C194.13 195.69 193.836 195.396 193.836 195.059V110.467C193.836 110.13 194.13 109.836 194.467 109.836H311.109C311.446 109.836 311.74 110.13 311.74 110.467V195.059C311.74 195.396 311.446 195.69 311.109 195.69Z" fill="white"/>
</mask>
<g mask="url(#mask1)">
<path d="M194.467 110.467H311.109V194.059H194.467V110.467Z" fill="white"/>
<path fill-rule="evenodd" clip-rule="evenodd" d="M218.538 220.295C218.552 220.237 218.552 220.179 218.567 220.12C218.83 218.091 219.224 216.032 219.647 213.988C219.691 213.798 219.72 213.608 219.764 213.418C219.779 213.36 219.793 213.302 219.808 213.243C219.808 213.214 219.823 213.185 219.823 213.17C220.188 211.462 220.596 209.768 220.991 208.133C221.107 207.622 221.239 207.126 221.356 206.658C221.37 206.6 221.385 206.542 221.399 206.483C221.721 205.301 221.983 204.381 221.983 204.381C222.334 203.213 222.684 202.103 223.035 201.096C224.174 200.687 225.312 200.278 226.451 199.869C226.51 199.84 226.568 199.825 226.626 199.811C226.641 199.796 226.67 199.796 226.685 199.782C226.845 199.723 227.006 199.665 227.167 199.606C229.196 198.876 231.226 198.146 233.24 197.416C233.299 197.402 233.357 197.372 233.416 197.358C235.226 196.701 237.051 196.058 238.862 195.401C238.643 196.54 238.365 197.957 238.044 199.606C238.029 199.665 238.015 199.723 238.015 199.782C237.986 199.957 237.942 200.147 237.913 200.322C237.475 202.629 237.08 204.673 236.745 206.469C236.73 206.527 236.73 206.585 236.715 206.644C236.219 209.316 235.825 211.477 235.518 213.229C235.504 213.287 235.504 213.345 235.489 213.404C234.774 217.536 234.569 219.317 234.569 220.106C234.569 220.179 234.569 220.222 234.569 220.281C234.584 220.587 234.657 220.675 234.73 220.704C234.876 220.748 235.036 220.602 235.226 220.281C235.255 220.222 235.285 220.164 235.328 220.106C235.912 219.011 236.774 216.543 238.088 213.404C238.117 213.345 238.132 213.287 238.161 213.229C238.73 211.9 239.373 210.469 240.117 208.965C240.176 208.849 240.234 208.732 240.293 208.615C240.628 207.958 240.979 207.301 241.344 206.644C241.373 206.585 241.402 206.527 241.446 206.469C242.687 204.235 244.162 201.957 245.899 199.782C245.943 199.723 245.987 199.665 246.045 199.606C246.323 199.271 246.6 198.92 246.892 198.584C246.95 198.511 247.009 198.453 247.067 198.38C247.155 198.278 247.257 198.161 247.345 198.059C248.892 196.336 250.615 194.701 252.572 193.27C252.645 193.211 252.732 193.153 252.805 193.095C252.951 192.992 253.097 192.876 253.258 192.773C253.433 192.657 253.594 192.54 253.769 192.423C253.827 192.379 253.886 192.35 253.944 192.306C256.09 190.89 258.28 189.809 260.266 188.977C260.324 188.948 260.383 188.933 260.441 188.904C260.996 188.671 261.551 188.466 262.077 188.276C262.252 188.218 262.427 188.16 262.588 188.101C262.704 188.057 262.821 188.028 262.938 187.984C262.85 189.693 262.763 191.386 262.675 193.095C262.675 193.153 262.675 193.211 262.661 193.27C262.558 195.372 262.442 197.489 262.339 199.592C262.339 199.65 262.339 199.709 262.325 199.767C262.296 200.234 262.281 200.701 262.252 201.183C262.164 202.95 262.077 204.702 261.974 206.469H263.478C264.69 204.746 265.916 203.008 267.128 201.285C267.143 201.271 267.143 201.256 267.158 201.256C267.201 201.183 267.26 201.11 267.304 201.037C267.596 200.614 267.888 200.19 268.194 199.782C268.238 199.723 268.282 199.665 268.311 199.606C269.8 197.504 271.275 195.401 272.764 193.284C272.808 193.226 272.852 193.168 272.881 193.109C273.217 192.642 273.553 192.16 273.874 191.693C273.932 191.605 273.991 191.532 274.049 191.445C275.246 189.736 276.443 188.043 277.655 186.334C277.787 186.349 277.933 186.364 278.064 186.378C278.152 186.393 278.239 186.393 278.327 186.407C278.4 186.407 278.458 186.422 278.531 186.437C278.648 186.451 278.765 186.466 278.882 186.48C278.94 186.495 279.013 186.495 279.072 186.51C279.174 186.524 279.261 186.539 279.364 186.553C279.393 186.553 279.437 186.568 279.466 186.568C279.539 186.583 279.597 186.583 279.67 186.597C279.743 186.612 279.816 186.612 279.875 186.626C280.021 186.641 280.152 186.67 280.298 186.699C280.444 186.729 280.59 186.743 280.736 186.772C280.794 186.787 280.853 186.787 280.911 186.802C282.182 187.035 283.598 187.371 285.072 187.824C285.905 188.087 286.708 188.379 287.482 188.7C287.54 188.729 287.598 188.744 287.657 188.773C290.299 189.868 292.519 191.211 294.358 192.511C294.417 192.554 294.475 192.598 294.534 192.642C294.753 192.803 294.972 192.963 295.176 193.109C295.249 193.168 295.337 193.226 295.41 193.284C296.972 194.482 298.198 195.606 299.104 196.438C299.819 197.095 300.491 197.752 301.118 198.409C301.177 198.468 301.235 198.526 301.294 198.584C301.615 198.92 301.921 199.256 302.228 199.592C302.286 199.65 302.33 199.709 302.389 199.767C304.389 202.015 305.995 204.279 307.338 206.454C307.367 206.512 307.411 206.571 307.44 206.629C307.63 206.936 307.805 207.228 307.981 207.534C308.039 207.637 308.097 207.739 308.156 207.826C309.251 209.71 310.156 211.52 310.974 213.214C311.003 213.272 311.032 213.331 311.061 213.389C311.164 213.594 311.251 213.784 311.353 213.988C312.39 216.12 313.251 218.178 313.967 220.091C313.996 220.149 314.011 220.208 314.025 220.266C314.361 221.142 314.653 222.004 314.931 222.821C314.989 222.996 315.047 223.186 315.106 223.361C315.485 224.544 315.807 225.654 316.084 226.676H251.506C251.389 226.676 251.301 226.734 251.243 226.836C251.243 226.851 251.228 226.851 251.228 226.866C251.214 226.88 251.214 226.909 251.214 226.939C251.214 226.953 251.214 226.968 251.214 226.968C251.214 226.982 251.214 226.997 251.214 227.012C251.228 227.114 251.301 227.201 251.389 227.245C251.374 227.274 251.36 227.304 251.345 227.333C250.221 229.844 248.761 232.063 247.053 233.932C247.023 233.976 246.98 234.005 246.95 234.049C246.936 234.078 246.907 234.093 246.877 234.122C246.848 234.151 246.819 234.195 246.775 234.224C244.862 236.239 242.658 237.845 240.293 238.94C240.234 238.969 240.176 238.999 240.117 239.013C237.986 239.962 235.723 240.517 233.416 240.59C233.357 240.59 233.299 240.59 233.24 240.59C233.124 240.59 233.021 240.59 232.905 240.59C232.116 240.59 229.444 240.605 226.612 239.597C226.553 239.583 226.495 239.553 226.437 239.539C224.758 238.926 223.049 237.962 221.618 236.414C220.888 235.626 220.29 234.735 219.808 233.786C219.75 233.669 219.691 233.553 219.633 233.421C218.786 231.596 218.362 229.523 218.216 227.304C218.216 227.201 218.202 227.099 218.202 226.982C218.202 226.968 218.202 226.953 218.202 226.939C218.202 226.895 218.202 226.851 218.202 226.807C218.1 224.778 218.246 222.558 218.538 220.295Z" fill="#31B0FF"/>
<path d="M246.659 176.304C248.148 180.684 251.769 184.772 250.046 187.605C249.55 188.422 248.586 189.401 247.725 191.445C247.404 192.189 247.185 193.124 247.112 194.423C247.039 195.825 247.141 197.022 247.331 198.088C248.878 196.365 250.601 194.73 252.558 193.299C252.631 193.241 252.718 193.182 252.791 193.124C252.937 193.022 253.083 192.905 253.244 192.803C253.419 192.686 253.58 192.569 253.755 192.452C253.813 192.408 253.872 192.379 253.93 192.335C256.076 190.919 258.267 189.839 260.252 189.006C260.311 188.977 260.369 188.963 260.427 188.933C261.303 188.568 262.15 188.262 262.91 187.999C262.983 186.583 263.056 185.166 263.129 183.736C260.062 183.706 257.084 182.772 255.273 180.436C253.813 178.552 253.58 176.333 253.58 174.917C252.499 174.464 251.419 174.026 250.338 173.574C251.653 171.164 252.967 168.741 254.281 166.332C254.135 165.689 253.667 163.295 254.324 160.448C256.938 160.01 259.96 157.922 262.063 154.213C262.253 155.571 263.216 161.397 268.443 165.631C269.932 166.828 271.465 167.675 272.984 168.259C273.86 166.507 275.583 165.207 277.685 164.945C281.029 164.536 284.08 166.901 284.489 170.245C284.913 173.588 282.533 176.64 279.189 177.049C278.707 177.107 278.24 177.107 277.773 177.063C277.729 180.144 277.7 183.239 277.656 186.334C278.503 186.422 279.569 186.553 280.751 186.772C280.81 186.787 280.868 186.787 280.927 186.802C282.197 187.035 283.613 187.371 285.088 187.824C285.92 188.087 286.723 188.379 287.497 188.7C287.555 188.729 287.614 188.744 287.672 188.773C290.315 189.868 292.534 191.211 294.374 192.51C294.432 192.554 294.491 192.598 294.549 192.642C294.768 192.803 294.987 192.963 295.191 193.109C295.264 193.168 295.352 193.226 295.425 193.284C296.987 194.482 298.214 195.606 299.119 196.438C299.834 197.095 300.506 197.752 301.134 198.409C301.192 198.468 301.251 198.526 301.309 198.584C301.63 198.92 301.937 199.256 302.243 199.592C302.302 199.65 302.346 199.709 302.404 199.767C304.404 202.015 306.01 204.279 307.354 206.454C307.383 206.512 307.427 206.571 307.456 206.629C307.646 206.936 307.821 207.228 307.996 207.534C308.054 207.637 308.113 207.739 308.171 207.826C309.266 209.71 310.172 211.52 310.989 213.214C311.018 213.272 311.048 213.331 311.077 213.389C311.179 213.594 311.267 213.783 311.369 213.988C312.405 216.12 313.267 218.178 313.982 220.091C314.011 220.149 314.026 220.208 314.041 220.266C314.376 221.142 314.668 222.004 314.946 222.821C315.004 222.996 315.063 223.186 315.121 223.361C315.501 224.544 315.822 225.654 316.099 226.676H317.209V197.007C313.048 196.35 308.741 195.27 306.113 193.533C299.688 189.298 305.967 180.392 302.608 172.8C301.995 171.413 301.309 170.449 300.535 169.704C297.63 166.93 295.148 166.843 292.607 165.207C288.592 162.623 290.052 159.061 286.854 155.118C284.942 152.782 282.284 151.41 279.496 150.636C277.977 148.504 276.094 146.738 273.889 145.468C268.049 142.095 261.931 143.307 261.041 143.496C255.361 144.694 248.426 149.147 248.382 154.578C248.367 155.892 248.762 157.44 249.579 158.623C246.25 163.514 244.703 170.507 246.659 176.304Z" fill="#14132F"/>
<path fill-rule="evenodd" clip-rule="evenodd" d="M254.267 166.361C254.121 165.719 253.653 163.324 254.31 160.477C256.924 160.039 259.946 157.951 262.049 154.243C262.239 155.601 263.202 161.426 268.429 165.66C268.517 165.733 268.59 165.792 268.677 165.85C268.765 165.909 268.838 165.982 268.926 166.04C269.013 166.098 269.086 166.157 269.174 166.23C269.247 166.288 269.32 166.332 269.393 166.39C269.48 166.449 269.568 166.507 269.656 166.566C269.729 166.609 269.787 166.653 269.86 166.697C269.948 166.755 270.035 166.814 270.123 166.872C270.225 166.931 270.313 166.989 270.415 167.047C270.415 167.047 270.429 167.047 270.429 167.062C270.517 167.12 270.605 167.164 270.692 167.223C270.794 167.281 270.882 167.325 270.984 167.383C271.072 167.427 271.159 167.485 271.262 167.529C271.276 167.529 271.291 167.544 271.305 167.544C271.305 167.544 271.305 167.544 271.32 167.544H271.335C271.349 167.544 271.364 167.558 271.378 167.558C271.437 167.588 271.51 167.631 271.568 167.661C271.656 167.704 271.758 167.763 271.86 167.807C271.963 167.85 272.05 167.894 272.152 167.938C272.255 167.982 272.342 168.026 272.444 168.069C272.634 168.157 272.824 168.23 273.014 168.303C274.167 168.756 275.306 169.048 276.386 169.237C276.343 169.778 276.313 170.332 276.313 170.931C276.313 171.063 276.313 171.194 276.313 171.325C276.328 173.019 276.474 174.888 276.722 176.83C276.883 176.757 277.044 176.698 277.204 176.625C277.409 176.538 277.613 176.465 277.803 176.377C277.803 176.611 277.803 176.859 277.788 177.093C277.774 178.085 277.759 179.078 277.744 180.086C277.715 182.174 277.686 184.276 277.671 186.364C276.474 188.072 275.277 189.766 274.065 191.474C274.007 191.562 273.948 191.635 273.89 191.722C273.554 192.19 273.218 192.671 272.897 193.139C272.853 193.197 272.809 193.255 272.78 193.314C271.291 195.416 269.816 197.533 268.327 199.636C268.283 199.694 268.239 199.753 268.21 199.811C267.918 200.234 267.612 200.658 267.32 201.067C267.276 201.14 267.217 201.213 267.174 201.286C267.159 201.3 267.159 201.315 267.144 201.315C265.932 203.038 264.706 204.775 263.494 206.498C263.45 206.556 263.407 206.615 263.377 206.673C262.881 207.374 262.385 208.09 261.888 208.79C261.917 208.09 261.961 207.374 261.99 206.673C261.99 206.615 261.99 206.556 262.005 206.498C262.093 204.731 262.18 202.979 262.282 201.213C262.312 200.745 262.326 200.278 262.355 199.796C262.355 199.738 262.355 199.68 262.37 199.621C262.472 197.519 262.589 195.416 262.691 193.299C262.691 193.241 262.691 193.182 262.706 193.124C262.793 191.416 262.881 189.722 262.969 188.014C263.042 186.597 263.115 185.181 263.188 183.75H263.246C263.158 183.75 263.085 183.75 262.998 183.75C262.896 183.75 262.793 183.75 262.691 183.736C262.589 183.736 262.487 183.721 262.385 183.721C262.341 183.721 262.282 183.721 262.239 183.707C262.224 183.707 262.209 183.707 262.195 183.707C262.18 183.707 262.166 183.707 262.136 183.707C262.122 183.707 262.107 183.707 262.093 183.707C262.005 183.707 261.903 183.692 261.815 183.677C261.713 183.663 261.625 183.663 261.538 183.648C261.509 183.648 261.479 183.634 261.436 183.634C261.406 183.634 261.377 183.619 261.333 183.619C261.246 183.604 261.158 183.59 261.071 183.575C260.998 183.561 260.91 183.546 260.837 183.531C260.822 183.531 260.822 183.531 260.808 183.531C260.749 183.517 260.691 183.517 260.632 183.502C260.516 183.473 260.399 183.458 260.282 183.429C260.224 183.415 260.151 183.4 260.092 183.385C259.902 183.342 259.713 183.283 259.537 183.239C259.464 183.21 259.377 183.196 259.304 183.166C259.216 183.137 259.129 183.108 259.041 183.079C258.953 183.05 258.866 183.02 258.778 182.991C258.691 182.962 258.603 182.918 258.53 182.889C258.457 182.86 258.369 182.816 258.282 182.772C258.194 182.743 258.121 182.699 258.034 182.655C257.946 182.612 257.844 182.553 257.756 182.509C257.712 182.48 257.654 182.451 257.61 182.422C257.566 182.393 257.523 182.378 257.479 182.349C257.435 182.32 257.377 182.29 257.333 182.261C257.26 182.217 257.187 182.174 257.114 182.115C257.041 182.071 256.968 182.013 256.895 181.969C256.836 181.925 256.763 181.882 256.705 181.823C256.69 181.809 256.69 181.809 256.676 181.794C256.676 181.794 256.661 181.779 256.647 181.779C256.588 181.736 256.53 181.692 256.486 181.648C256.471 181.633 256.457 181.619 256.442 181.619C256.384 181.575 256.325 181.517 256.267 181.473C256.194 181.414 256.136 181.356 256.063 181.297C256.004 181.239 255.931 181.166 255.873 181.108C255.829 181.064 255.771 181.005 255.727 180.962C255.698 180.918 255.654 180.889 255.624 180.845C255.624 180.845 255.624 180.845 255.61 180.83L255.595 180.816L255.581 180.801C255.551 180.772 255.522 180.728 255.493 180.699L255.478 180.684C255.435 180.626 255.391 180.567 255.332 180.509C253.872 178.626 253.639 176.406 253.639 174.99C252.558 174.537 251.478 174.099 250.398 173.647C251.639 171.194 252.953 168.77 254.267 166.361Z" fill="#FFF1F2"/>
<path d="M264.736 183.648C266.167 183.736 267.583 183.531 268.941 183.035C271.657 182.056 273.453 180.173 274.475 178.757C274.518 178.698 274.518 178.596 274.46 178.552C274.402 178.509 274.329 178.509 274.27 178.582C273.263 179.954 271.496 181.808 268.853 182.757C267.539 183.239 266.152 183.429 264.751 183.356C264.678 183.356 264.619 183.414 264.605 183.487C264.605 183.56 264.663 183.633 264.736 183.648Z" fill="#14132F"/>
<circle r="0.934435" transform="matrix(-1 0 0 1 256.587 166.595)" fill="#14132F"/>
<ellipse rx="2.65731" ry="0.642426" transform="matrix(-0.969397 -0.245499 -0.245499 0.969397 257.903 162.49)" fill="#14132F"/>
<path fill-rule="evenodd" clip-rule="evenodd" d="M272.969 168.288C273.845 166.536 275.568 165.236 277.671 164.974C281.014 164.565 284.066 166.93 284.475 170.274C284.898 173.617 282.518 176.669 279.175 177.078C278.693 177.136 278.226 177.136 277.758 177.092C275.013 176.8 272.721 174.639 272.371 171.778C272.21 170.536 272.444 169.325 272.969 168.288Z" fill="#FFF1F2"/>
<path d="M276.824 174.537C276.838 174.537 276.853 174.537 276.868 174.537C277.802 174.245 278.342 173.282 278.109 172.376C277.919 171.646 277.291 171.121 276.546 171.048L279.992 167.018C280.051 166.96 280.036 166.857 279.978 166.814C279.919 166.755 279.817 166.77 279.773 166.828L276.123 171.092C276.079 171.135 276.079 171.194 276.108 171.252C276.138 171.311 276.196 171.34 276.254 171.34C276.999 171.296 277.656 171.778 277.831 172.464C278.021 173.223 277.554 174.041 276.78 174.289C276.707 174.318 276.663 174.391 276.692 174.479C276.707 174.493 276.765 174.537 276.824 174.537Z" fill="#14132F"/>
<path d="M261.843 208.936C261.887 208.936 261.93 208.907 261.96 208.878L274.078 191.678C274.122 191.605 274.107 191.518 274.049 191.474C273.976 191.43 273.888 191.445 273.844 191.503L262.018 208.294L262.763 193.226C262.763 193.138 262.704 193.08 262.631 193.08C262.558 193.08 262.485 193.138 262.485 193.226L261.711 208.805C261.711 208.863 261.755 208.921 261.814 208.951C261.814 208.921 261.828 208.936 261.843 208.936Z" fill="#14132F"/>
<path d="M257.837 178.208C258.017 178.208 258.197 178.178 258.377 178.148C259.637 177.878 260.477 176.828 260.867 176.228C260.897 176.168 260.897 176.078 260.807 176.018C260.747 175.988 260.657 175.988 260.597 176.078C260.297 176.528 259.517 177.608 258.317 177.878C256.817 178.178 255.797 177.008 255.497 176.618C255.437 176.558 255.347 176.528 255.287 176.588C255.227 176.648 255.197 176.738 255.257 176.798C255.527 177.128 256.487 178.208 257.837 178.208Z" fill="#14132F"/>
<path fill-rule="evenodd" clip-rule="evenodd" d="M239.696 178.309C239.816 178.309 239.906 178.279 239.996 178.189C240.146 178.069 240.176 177.859 240.116 177.679L234.266 164.359C236.936 161.809 238.286 158.869 238.166 155.809C238.016 151.939 235.496 148.429 231.116 145.909C226.796 143.419 221.126 142.189 215.156 142.429C202.796 142.939 192.986 149.749 193.286 157.639C193.436 161.509 195.956 165.019 200.336 167.539C204.656 170.029 210.326 171.259 216.296 171.019C219.296 170.899 222.176 170.419 224.906 169.579L239.486 178.249C239.546 178.279 239.606 178.309 239.696 178.309ZM216.596 143.329C221.846 143.329 226.796 144.529 230.636 146.719C234.746 149.089 237.116 152.329 237.236 155.869C237.356 158.719 236.036 161.509 233.396 163.939C233.246 164.059 233.216 164.269 233.276 164.449L238.706 176.749L225.176 168.709C225.056 168.649 224.936 168.619 224.816 168.679C222.116 169.519 219.236 170.029 216.266 170.149C210.476 170.389 204.986 169.189 200.786 166.789C196.676 164.419 194.306 161.179 194.186 157.639C193.886 150.259 203.306 143.869 215.186 143.389C215.636 143.359 216.116 143.329 216.596 143.329Z" fill="#51D767"/>
<path d="M213.145 160.909C213.385 162.439 213.625 163.969 213.865 165.499C215.245 164.299 216.625 163.099 217.975 161.899C219.565 162.559 221.125 163.249 222.715 163.909C222.085 162.319 221.485 160.699 220.855 159.109C222.385 158.749 223.945 158.389 225.475 158.029C223.735 157.159 221.995 156.289 220.285 155.419C220.705 153.559 221.095 151.699 221.515 149.839C219.955 150.979 218.395 152.149 216.835 153.289C215.755 151.669 214.675 150.049 213.565 148.429C213.295 150.259 213.025 152.089 212.725 153.889C210.925 153.679 209.155 153.439 207.355 153.229C208.465 154.549 209.605 155.899 210.715 157.219C209.605 158.479 208.495 159.769 207.355 161.029C209.305 160.999 211.225 160.939 213.145 160.909Z" fill="#6068F8"/>
<path fill-rule="evenodd" clip-rule="evenodd" d="M311.109 125.015H194.467C194.13 125.015 193.836 124.721 193.836 124.385C193.836 124.048 194.13 123.754 194.467 123.754H311.109C311.446 123.754 311.74 124.048 311.74 124.385C311.74 124.721 311.446 125.015 311.109 125.015Z" fill="#51D767"/>
<path fill-rule="evenodd" clip-rule="evenodd" d="M215.028 121.694C212.757 121.694 210.865 119.844 210.865 117.531C210.865 115.26 212.715 113.368 215.028 113.368C217.341 113.368 219.191 115.218 219.191 117.531C219.191 119.844 217.299 121.694 215.028 121.694ZM215.028 114.672C213.43 114.672 212.127 115.975 212.127 117.573C212.127 119.171 213.43 120.474 215.028 120.474C216.626 120.474 217.929 119.171 217.929 117.573C217.929 115.933 216.626 114.672 215.028 114.672Z" fill="#4ED77B"/>
<path fill-rule="evenodd" clip-rule="evenodd" d="M226.675 121.694C224.404 121.694 222.512 119.844 222.512 117.531C222.512 115.26 224.362 113.368 226.675 113.368C228.945 113.368 230.837 115.218 230.837 117.531C230.837 119.844 228.987 121.694 226.675 121.694ZM226.675 114.672C225.077 114.672 223.773 115.975 223.773 117.573C223.773 119.171 225.077 120.474 226.675 120.474C228.272 120.474 229.576 119.171 229.576 117.573C229.576 115.933 228.272 114.672 226.675 114.672Z" fill="#51D767"/>
<path fill-rule="evenodd" clip-rule="evenodd" d="M311.109 195.69H194.467C194.13 195.69 193.836 195.396 193.836 195.059V110.467C193.836 110.13 194.13 109.836 194.467 109.836H311.109C311.446 109.836 311.74 110.13 311.74 110.467V195.059C311.74 195.396 311.446 195.69 311.109 195.69ZM195.097 194.428H310.479V111.097H195.097V194.428Z" fill="#51D767"/>
</g>
<rect x="0.732422" y="0.841309" width="139.096" height="99.655" fill="white"/>
<path fill-rule="evenodd" clip-rule="evenodd" d="M139.787 101.127H0.73229C0.395902 101.127 0.101562 100.833 0.101562 100.496V0.841177C0.101562 0.504789 0.395902 0.210449 0.73229 0.210449H139.829C140.165 0.210449 140.46 0.504789 140.46 0.841177V100.496C140.417 100.875 140.165 101.127 139.787 101.127ZM1.36302 99.8654H139.198V1.4719H1.36302V99.8654Z" fill="#4ED77B"/>
<rect x="0.732422" y="0.841309" width="139.096" height="99.655" fill="white"/>
<path fill-rule="evenodd" clip-rule="evenodd" d="M139.787 101.127H0.73229C0.395902 101.127 0.101562 100.833 0.101562 100.496V0.841177C0.101562 0.504789 0.395902 0.210449 0.73229 0.210449H139.829C140.165 0.210449 140.46 0.504789 140.46 0.841177V100.496C140.417 100.875 140.165 101.127 139.787 101.127ZM1.36302 99.8654H139.198V1.4719H1.36302V99.8654Z" fill="#51D767"/>
<path fill-rule="evenodd" clip-rule="evenodd" d="M139.787 18.0813H0.73229C0.395902 18.0813 0.101562 17.7869 0.101562 17.4506C0.101562 17.1142 0.395902 16.8198 0.73229 16.8198H139.787C140.123 16.8198 140.417 17.1142 140.417 17.4506C140.417 17.7869 140.165 18.0813 139.787 18.0813Z" fill="#51D767"/>
<path fill-rule="evenodd" clip-rule="evenodd" d="M11.2868 14.0867C8.63769 14.0867 6.45117 11.9002 6.45117 9.25111C6.45117 6.60205 8.63769 4.41553 11.2868 4.41553C13.9358 4.41553 16.1223 6.60205 16.1223 9.25111C16.1223 11.9002 13.9779 14.0867 11.2868 14.0867ZM11.2868 5.71903C9.31047 5.71903 7.71263 7.31687 7.71263 9.29316C7.71263 11.2694 9.31047 12.8673 11.2868 12.8673C13.263 12.8673 14.8609 11.2694 14.8609 9.29316C14.8609 7.31687 13.263 5.71903 11.2868 5.71903Z" fill="#51D767"/>
<path fill-rule="evenodd" clip-rule="evenodd" d="M25.2047 14.0867C22.5557 14.0867 20.3691 11.9002 20.3691 9.25111C20.3691 6.60205 22.5557 4.41553 25.2047 4.41553C27.8538 4.41553 30.0403 6.60205 30.0403 9.25111C30.0403 11.9002 27.8958 14.0867 25.2047 14.0867ZM25.2047 5.71903C23.2284 5.71903 21.6306 7.31687 21.6306 9.29316C21.6306 11.2694 23.2284 12.8673 25.2047 12.8673C27.181 12.8673 28.7788 11.2694 28.7788 9.29316C28.7788 7.31687 27.181 5.71903 25.2047 5.71903Z" fill="#51D767"/>
<path fill-rule="evenodd" clip-rule="evenodd" d="M39.1227 14.0867C36.4736 14.0867 34.2871 11.9002 34.2871 9.25111C34.2871 6.60205 36.4736 4.41553 39.1227 4.41553C41.7717 4.41553 43.9583 6.60205 43.9583 9.25111C43.9583 11.9002 41.8138 14.0867 39.1227 14.0867ZM39.1227 5.71903C37.1464 5.71903 35.5486 7.31687 35.5486 9.29316C35.5486 11.2694 37.1464 12.8673 39.1227 12.8673C41.099 12.8673 42.6968 11.2694 42.6968 9.29316C42.6968 7.31687 41.099 5.71903 39.1227 5.71903Z" fill="#51D767"/>
<path fill-rule="evenodd" clip-rule="evenodd" d="M59.3689 74.6844C59.2489 74.6844 59.1589 74.6544 59.0689 74.5644C58.9189 74.4444 58.8889 74.2344 58.9489 74.0544L64.7989 60.7344C62.1289 58.1844 60.7789 55.2444 60.8989 52.1844C61.0489 48.3144 63.5689 44.8044 67.9489 42.2844C72.2689 39.7944 77.9389 38.5644 83.9089 38.8044C96.2689 39.3144 106.079 46.1244 105.779 54.0144C105.629 57.8844 103.109 61.3944 98.7289 63.9144C94.4089 66.4044 88.7389 67.6344 82.7689 67.3944C79.7689 67.2744 76.8889 66.7944 74.1589 65.9544L59.5789 74.6244C59.5189 74.6544 59.4589 74.6844 59.3689 74.6844ZM82.4689 39.7044C77.2189 39.7044 72.2689 40.9044 68.4289 43.0944C64.3189 45.4644 61.9489 48.7044 61.8289 52.2444C61.7089 55.0944 63.0289 57.8844 65.6689 60.3144C65.8189 60.4344 65.8489 60.6444 65.7889 60.8244L60.3589 73.1244L73.8889 65.0844C74.0089 65.0244 74.1289 64.9944 74.2489 65.0544C76.9489 65.8944 79.8289 66.4044 82.7989 66.5244C88.5889 66.7644 94.0789 65.5644 98.2789 63.1644C102.389 60.7944 104.759 57.5544 104.879 54.0144C105.179 46.6344 95.7589 40.2444 83.8789 39.7644C83.4289 39.7344 82.9489 39.7044 82.4689 39.7044Z" fill="#51D767"/>
<path d="M85.9198 57.2842C85.6798 58.8142 85.4398 60.3442 85.1998 61.8742C83.8198 60.6742 82.4398 59.4742 81.0898 58.2742C79.4998 58.9342 77.9398 59.6242 76.3498 60.2842C76.9798 58.6942 77.5798 57.0742 78.2098 55.4842C76.6798 55.1242 75.1198 54.7642 73.5898 54.4042C75.3298 53.5342 77.0698 52.6642 78.7798 51.7942C78.3598 49.9342 77.9698 48.0742 77.5498 46.2142C79.1098 47.3542 80.6698 48.5242 82.2298 49.6642C83.3098 48.0442 84.3898 46.4242 85.4998 44.8042C85.7698 46.6342 86.0398 48.4642 86.3398 50.2642C88.1398 50.0542 89.9098 49.8142 91.7098 49.6042C90.5998 50.9242 89.4598 52.2742 88.3498 53.5942C89.4598 54.8542 90.5698 56.1442 91.7098 57.4042C89.7598 57.3742 87.8398 57.3142 85.9198 57.2842Z" fill="#6068F8"/>
<path d="M51.7576 73.6342C51.6976 74.7442 51.3376 77.9542 48.8476 80.7742C47.2876 82.5142 45.5776 83.3842 44.5276 83.8042C44.6776 84.1942 44.7976 84.5842 44.9176 84.9742C45.9676 88.9042 45.0676 92.7142 42.5776 94.6942C40.2376 96.5542 37.1776 96.2242 36.2176 96.1042C35.5576 96.0442 31.1176 95.5342 28.6576 91.9042C27.4576 90.1342 27.1576 88.2142 27.0676 87.7042C26.9176 86.7142 27.0076 86.2042 27.0376 84.7642C27.0976 82.5442 27.0076 80.9542 26.8276 78.3142C26.7976 78.0142 26.7976 77.7142 26.7676 77.3842C26.7976 77.3842 26.8276 77.3542 26.8276 77.3542C29.7676 75.9442 31.0276 72.4942 29.7976 69.5242C30.9676 67.3642 30.6676 64.0342 30.4276 60.2842C30.1276 55.3342 29.9776 52.8442 30.4876 52.3342C32.5576 50.1742 37.0876 53.8042 43.0276 51.9142C45.4276 51.1642 47.1376 49.7842 48.1276 48.8242C48.5176 49.7242 48.7876 50.6242 49.0276 51.4942C51.3976 59.7742 51.6976 69.8242 51.7576 73.6342Z" fill="#F73D9E"/>
<path d="M44.6195 68.3844C44.5595 68.3844 44.5295 68.3544 44.4995 68.3244C44.4695 68.2644 44.4695 68.1744 44.5595 68.1144L48.0995 65.9244L43.7495 59.7744C43.6895 59.7144 43.7195 59.6244 43.7795 59.5644C43.8395 59.5044 43.9295 59.5344 43.9895 59.5944L48.4295 65.8944C48.4595 65.9244 48.4595 65.9844 48.4595 66.0144C48.4595 66.0444 48.4295 66.1044 48.3995 66.1044L44.7095 68.3844C44.6795 68.3544 44.6495 68.3844 44.6195 68.3844Z" fill="black"/>
<circle cx="47.6495" cy="59.9541" r="0.96" fill="black"/>
<circle cx="37.7491" cy="61.544" r="0.96" fill="black"/>
<path d="M44.7081 78.2543C44.5281 78.2543 44.3481 78.2243 44.1681 78.1943C42.9081 77.9243 42.0681 76.8743 41.6781 76.2743C41.6481 76.2143 41.6481 76.1243 41.7381 76.0643C41.7981 76.0343 41.8881 76.0343 41.9481 76.1243C42.2481 76.5743 43.0281 77.6543 44.2281 77.9243C45.7281 78.2243 46.7481 77.0543 47.0481 76.6643C47.1081 76.6043 47.1981 76.5743 47.2581 76.6343C47.3181 76.6943 47.3481 76.7843 47.2881 76.8443C47.0181 77.1743 46.0581 78.2543 44.7081 78.2543Z" fill="black"/>
<ellipse cx="47.8599" cy="55.5459" rx="3.00005" ry="0.750013" transform="rotate(-0.336156 47.8599 55.5459)" fill="#003FFF"/>
<ellipse cx="37.4153" cy="57.9731" rx="2.99993" ry="0.749983" transform="rotate(-27.6721 37.4153 57.9731)" fill="#003FFF"/>
<path d="M51.4577 72.2242C51.6677 72.4342 53.7677 74.3842 53.2877 75.1942C52.9577 75.7942 51.1577 75.7942 45.1577 73.5442C38.7077 75.4642 36.8777 75.3142 36.5777 74.6842C36.1877 73.9042 38.0777 72.2242 38.9477 71.5642C41.4677 69.6442 44.3177 69.6442 45.3077 69.7042C46.2077 69.7042 49.1177 69.9742 51.4577 72.2242Z" fill="#003FFF"/>
<path d="M40.7783 84.5544C37.0583 84.5544 34.2083 82.8144 32.8283 81.7644C32.7683 81.7044 32.7383 81.6144 32.7983 81.5544C32.8583 81.4944 32.9483 81.4644 33.0083 81.5244C34.3883 82.5744 37.2383 84.3144 40.9883 84.2544C42.1583 84.2244 43.3583 84.0444 44.4983 83.6544C44.5883 83.6244 44.6483 83.6844 44.6783 83.7444C44.7083 83.8344 44.6483 83.8944 44.5883 83.9244C43.4183 84.3144 42.2183 84.4944 40.9883 84.5244C40.9283 84.5544 40.8383 84.5544 40.7783 84.5544Z" fill="black"/>
<path d="M45.2793 43.7243C42.9393 41.3843 40.2093 40.8443 38.9793 40.6043C33.8793 39.5843 27.8493 41.5043 23.9493 45.4643C17.1993 52.3043 16.8693 65.1443 22.7493 69.8243C23.7093 70.5743 24.7293 71.0543 25.7493 71.3543C25.8993 71.4143 26.0493 71.4443 26.1993 71.4743C27.0393 71.6843 27.8493 71.7743 28.5393 71.8343C28.5393 71.8343 29.6793 69.7643 29.8293 69.5243C30.9993 67.3643 30.6993 64.0343 30.4593 60.2843C30.1593 55.3343 30.0093 52.8443 30.5193 52.3343C32.5893 50.1743 37.1193 53.8043 43.0593 51.9143C45.4593 51.1643 47.1693 49.7843 48.1593 48.8243C47.8893 47.7143 47.1693 45.6143 45.2793 43.7243Z" fill="#003FFF"/>
<path d="M29.7985 69.5245C29.7385 69.4045 29.7085 69.2845 29.6485 69.1945C28.1785 66.1645 24.5185 64.8745 21.4885 66.3745C18.4585 67.8445 17.1985 71.5045 18.6685 74.5345C20.1385 77.5345 23.7385 78.8245 26.7685 77.3845C26.7985 77.3845 26.8285 77.3545 26.8285 77.3545C29.7685 75.9445 31.0285 72.4945 29.7985 69.5245Z" fill="#F73D9E"/>
<path d="M26.9194 71.8947C26.9194 71.9547 26.8894 71.9847 26.8594 72.0147C26.8594 72.0147 26.5594 72.1947 26.3194 72.5247C26.1994 72.7047 26.1094 72.8847 26.0794 73.1247C26.0494 73.4847 26.1994 73.8747 26.5294 74.2647C26.5894 74.3547 26.6794 74.4447 26.7994 74.5347C26.8594 74.5947 26.8594 74.6847 26.7994 74.7447C26.7694 74.7747 26.7394 74.8047 26.6794 74.8047C26.6194 74.8047 26.6194 74.8047 26.5894 74.7747C26.0194 74.2347 25.7494 73.6647 25.8094 73.1247C25.8694 72.7047 26.0794 72.3747 26.2894 72.1347C26.3794 72.0147 26.4994 71.9547 26.5594 71.8947L26.2294 71.5347L22.7794 67.9947C22.7194 67.9347 22.7194 67.8447 22.7794 67.7847C22.8394 67.7247 22.9294 67.7247 22.9894 67.7847L26.7694 71.6547L26.9194 71.8047C26.8894 71.8047 26.9194 71.8347 26.9194 71.8947Z" fill="black"/>
<path d="M78.3383 99.8544C52.6283 99.8544 26.9483 99.8544 1.23828 99.8544C1.23828 98.0544 1.23828 96.2844 1.23828 94.4844C3.93828 92.6844 7.29828 90.7944 11.2883 89.0844C17.2883 86.5344 22.7483 85.3344 27.0383 84.7344C26.8883 85.5744 26.7383 87.1344 27.2483 88.9644C27.3683 89.3844 27.7583 90.6144 28.6583 91.9044C31.2683 95.5644 35.7683 96.0744 36.2183 96.1044C37.1783 96.2244 40.2383 96.5544 42.5783 94.6944C45.0683 92.7144 45.9683 88.9044 44.9183 84.9744C46.3583 85.1844 47.8583 85.4544 49.3583 85.7844C61.5383 88.4544 71.1683 94.1844 78.3383 99.8544Z" fill="#00B7EA"/>
<path d="M34.7486 95.9843H34.7186C25.1486 93.3743 26.8586 84.8243 26.8886 84.7343C26.9186 84.6443 26.9786 84.6143 27.0686 84.6143C27.1586 84.6443 27.1886 84.7043 27.1886 84.7943C27.1286 85.1243 25.5086 93.1643 34.8086 95.7143C34.8986 95.7443 34.9286 95.8043 34.9286 95.8943C34.8686 95.9543 34.8086 95.9843 34.7486 95.9843Z" fill="#1F0D60"/>
<path fill-rule="evenodd" clip-rule="evenodd" d="M51.7576 73.6342C51.6976 74.7442 51.3376 77.9542 48.8476 80.7742C47.2876 82.5142 45.5776 83.3842 44.5276 83.8042C44.6776 84.1942 44.7976 84.5842 44.9176 84.9742C45.9676 88.9042 45.0676 92.7142 42.5776 94.6942C40.2376 96.5542 37.1776 96.2242 36.2176 96.1042C35.5576 96.0442 31.1176 95.5342 28.6576 91.9042C27.4576 90.1342 27.1576 88.2142 27.0676 87.7042C26.9176 86.7142 27.0076 86.2042 27.0376 84.7642C27.0976 82.5442 27.0076 80.9542 26.8276 78.3142C26.7976 78.0142 26.7976 77.7142 26.7676 77.3842C26.7976 77.3842 26.8276 77.3542 26.8276 77.3542C29.7676 75.9442 31.0276 72.4942 29.7976 69.5242C30.9676 67.3642 30.6676 64.0342 30.4276 60.2842C30.1276 55.3342 29.9776 52.8442 30.4876 52.3342C32.5576 50.1742 37.0876 53.8042 43.0276 51.9142C45.4276 51.1642 47.1376 49.7842 48.1276 48.8242C48.5176 49.7242 48.7876 50.6242 49.0276 51.4942C51.3976 59.7742 51.6976 69.8242 51.7576 73.6342Z" fill="#FFF1F2"/>
<path fill-rule="evenodd" clip-rule="evenodd" d="M44.6195 68.3844C44.5595 68.3844 44.5295 68.3544 44.4995 68.3244C44.4695 68.2644 44.4695 68.1744 44.5595 68.1144L48.0995 65.9244L43.7495 59.7744C43.6895 59.7144 43.7195 59.6244 43.7795 59.5644C43.8395 59.5044 43.9295 59.5344 43.9895 59.5944L48.4295 65.8944C48.4595 65.9244 48.4595 65.9844 48.4595 66.0144C48.4595 66.0444 48.4295 66.1044 48.3995 66.1044L44.7095 68.3844C44.6795 68.3544 44.6495 68.3844 44.6195 68.3844Z" fill="#14132F"/>
<circle cx="47.6495" cy="59.9541" r="0.96" fill="#14132F"/>
<circle cx="37.7491" cy="61.544" r="0.96" fill="#14132F"/>
<path fill-rule="evenodd" clip-rule="evenodd" d="M44.7081 78.2543C44.5281 78.2543 44.3481 78.2243 44.1681 78.1943C42.9081 77.9243 42.0681 76.8743 41.6781 76.2743C41.6481 76.2143 41.6481 76.1243 41.7381 76.0643C41.7981 76.0343 41.8881 76.0343 41.9481 76.1243C42.2481 76.5743 43.0281 77.6543 44.2281 77.9243C45.7281 78.2243 46.7481 77.0543 47.0481 76.6643C47.1081 76.6043 47.1981 76.5743 47.2581 76.6343C47.3181 76.6943 47.3481 76.7843 47.2881 76.8443C47.0181 77.1743 46.0581 78.2543 44.7081 78.2543Z" fill="#14132F"/>
<ellipse cx="47.8599" cy="55.5459" rx="3.00005" ry="0.750013" transform="rotate(-0.336156 47.8599 55.5459)" fill="#14132F"/>
<ellipse cx="37.4153" cy="57.9731" rx="2.99993" ry="0.749983" transform="rotate(-27.6721 37.4153 57.9731)" fill="#14132F"/>
<path fill-rule="evenodd" clip-rule="evenodd" d="M51.4577 72.2242C51.6677 72.4342 53.7677 74.3842 53.2877 75.1942C52.9577 75.7942 51.1577 75.7942 45.1577 73.5442C38.7077 75.4642 36.8777 75.3142 36.5777 74.6842C36.1877 73.9042 38.0777 72.2242 38.9477 71.5642C41.4677 69.6442 44.3177 69.6442 45.3077 69.7042C46.2077 69.7042 49.1177 69.9742 51.4577 72.2242Z" fill="#14132F"/>
<path fill-rule="evenodd" clip-rule="evenodd" d="M40.7783 84.5544C37.0583 84.5544 34.2083 82.8144 32.8283 81.7644C32.7683 81.7044 32.7383 81.6144 32.7983 81.5544C32.8583 81.4944 32.9483 81.4644 33.0083 81.5244C34.3883 82.5744 37.2383 84.3144 40.9883 84.2544C42.1583 84.2244 43.3583 84.0444 44.4983 83.6544C44.5883 83.6244 44.6483 83.6844 44.6783 83.7444C44.7083 83.8344 44.6483 83.8944 44.5883 83.9244C43.4183 84.3144 42.2183 84.4944 40.9883 84.5244C40.9283 84.5544 40.8383 84.5544 40.7783 84.5544Z" fill="#14132F"/>
<path fill-rule="evenodd" clip-rule="evenodd" d="M45.2793 43.7243C42.9393 41.3843 40.2093 40.8443 38.9793 40.6043C33.8793 39.5843 27.8493 41.5043 23.9493 45.4643C17.1993 52.3043 16.8693 65.1443 22.7493 69.8243C23.7093 70.5743 24.7293 71.0543 25.7493 71.3543C25.8993 71.4143 26.0493 71.4443 26.1993 71.4743C27.0393 71.6843 27.8493 71.7743 28.5393 71.8343C28.5393 71.8343 29.6793 69.7643 29.8293 69.5243C30.9993 67.3643 30.6993 64.0343 30.4593 60.2843C30.1593 55.3343 30.0093 52.8443 30.5193 52.3343C32.5893 50.1743 37.1193 53.8043 43.0593 51.9143C45.4593 51.1643 47.1693 49.7843 48.1593 48.8243C47.8893 47.7143 47.1693 45.6143 45.2793 43.7243Z" fill="#14132F"/>
<path fill-rule="evenodd" clip-rule="evenodd" d="M29.7985 69.5245C29.7385 69.4045 29.7085 69.2845 29.6485 69.1945C28.1785 66.1645 24.5185 64.8745 21.4885 66.3745C18.4585 67.8445 17.1985 71.5045 18.6685 74.5345C20.1385 77.5345 23.7385 78.8245 26.7685 77.3845C26.7985 77.3845 26.8285 77.3545 26.8285 77.3545C29.7685 75.9445 31.0285 72.4945 29.7985 69.5245Z" fill="#FFF1F2"/>
<path fill-rule="evenodd" clip-rule="evenodd" d="M26.9194 71.8947C26.9194 71.9547 26.8894 71.9847 26.8594 72.0147C26.8594 72.0147 26.5594 72.1947 26.3194 72.5247C26.1994 72.7047 26.1094 72.8847 26.0794 73.1247C26.0494 73.4847 26.1994 73.8747 26.5294 74.2647C26.5894 74.3547 26.6794 74.4447 26.7994 74.5347C26.8594 74.5947 26.8594 74.6847 26.7994 74.7447C26.7694 74.7747 26.7394 74.8047 26.6794 74.8047C26.6194 74.8047 26.6194 74.8047 26.5894 74.7747C26.0194 74.2347 25.7494 73.6647 25.8094 73.1247C25.8694 72.7047 26.0794 72.3747 26.2894 72.1347C26.3794 72.0147 26.4994 71.9547 26.5594 71.8947L26.2294 71.5347L22.7794 67.9947C22.7194 67.9347 22.7194 67.8447 22.7794 67.7847C22.8394 67.7247 22.9294 67.7247 22.9894 67.7847L26.7694 71.6547L26.9194 71.8047C26.8894 71.8047 26.9194 71.8347 26.9194 71.8947Z" fill="#14132F"/>
<path fill-rule="evenodd" clip-rule="evenodd" d="M78.3383 99.8544C52.6283 99.8544 26.9483 99.8544 1.23828 99.8544C1.23828 98.0544 1.23828 96.2844 1.23828 94.4844C3.93828 92.6844 7.29828 90.7944 11.2883 89.0844C17.2883 86.5344 22.7483 85.3344 27.0383 84.7344C26.8883 85.5744 26.7383 87.1344 27.2483 88.9644C27.3683 89.3844 27.7583 90.6144 28.6583 91.9044C31.2683 95.5644 35.7683 96.0744 36.2183 96.1044C37.1783 96.2244 40.2383 96.5544 42.5783 94.6944C45.0683 92.7144 45.9683 88.9044 44.9183 84.9744C46.3583 85.1844 47.8583 85.4544 49.3583 85.7844C61.5383 88.4544 71.1683 94.1844 78.3383 99.8544Z" fill="#31B0FF"/>
<path fill-rule="evenodd" clip-rule="evenodd" d="M34.7486 95.9843H34.7186C25.1486 93.3743 26.8586 84.8243 26.8886 84.7343C26.9186 84.6443 26.9786 84.6143 27.0686 84.6143C27.1586 84.6443 27.1886 84.7043 27.1886 84.7943C27.1286 85.1243 25.5086 93.1643 34.8086 95.7143C34.8986 95.7443 34.9286 95.8043 34.9286 95.8943C34.8686 95.9543 34.8086 95.9843 34.7486 95.9843Z" fill="#14132F"/>
<path d="M173.123 31.8833C171.497 31.0078 163.451 26.5889 154.488 28.2981C153.905 28.4232 153.321 28.5482 152.738 28.715L150.903 29.2986C137.855 34.2178 127.516 51.56 127.475 73.738C135.979 75.4889 150.153 77.2815 166.87 73.5712C177 71.3201 185.129 67.7349 191.09 64.5249C191.09 63.3577 190.507 41.4298 173.123 31.8833Z" fill="#14132F"/>
<path fill-rule="evenodd" clip-rule="evenodd" d="M175.501 39.6376C175.293 39.2207 175.084 38.8455 175.084 38.8455C173.083 39.3458 169.998 39.721 166.621 38.4703C162.786 37.0113 160.743 34.1765 160.035 33.1343C160.118 34.1765 160.827 42.6808 154.365 48.6005C150.613 52.0606 146.278 52.8944 144.318 53.1445C144.402 53.3946 144.443 53.6448 144.527 53.9366C144.735 54.7286 145.027 55.4373 145.027 55.4373C145.027 55.4373 145.694 57.1049 146.903 58.6056C146.986 58.689 147.904 59.7729 149.404 61.1903C149.279 65.1923 149.154 69.1944 148.987 73.1964C148.987 73.2381 149.029 73.2381 149.029 73.2798C149.696 74.8222 150.363 76.3647 151.03 77.9072C153.823 84.4105 156.616 90.8721 159.409 97.3754C160.618 94.3322 165.871 78.0322 166.913 73.6133C166.913 72.4043 166.913 71.2371 166.913 70.0281V69.6529C167.205 69.6113 167.497 69.5279 167.747 69.4445C174.084 67.4435 176.835 59.2309 177.335 57.7719C177.294 57.7302 180.295 48.8506 175.501 39.6376Z" fill="#FFF1F2"/>
<path fill-rule="evenodd" clip-rule="evenodd" d="M164.494 70.2363C163.494 70.2363 162.368 70.1112 161.201 69.8611C157.532 68.9857 155.156 66.8179 154.072 65.5672C153.989 65.4839 153.989 65.3588 154.072 65.2754C154.156 65.192 154.281 65.192 154.364 65.2754C155.406 66.4427 157.741 68.5688 161.284 69.4442C164.244 70.1529 166.787 69.736 168.413 69.2358C168.538 69.1941 168.621 69.2775 168.663 69.3608C168.705 69.4859 168.621 69.5693 168.538 69.611C167.538 69.9445 166.12 70.2363 164.494 70.2363Z" fill="black"/>
<path fill-rule="evenodd" clip-rule="evenodd" d="M166.246 55.6458C166.162 55.6458 166.079 55.6041 166.037 55.5207C165.995 55.3957 166.037 55.3123 166.162 55.2706L170.581 53.6865L168.122 44.6819C168.08 44.5568 168.163 44.4734 168.288 44.4317C168.413 44.3901 168.497 44.4734 168.538 44.5985L171.04 53.7698C171.081 53.8949 170.998 53.9783 170.915 54.02L166.329 55.6875C166.329 55.6458 166.287 55.6458 166.246 55.6458Z" fill="#14132F"/>
<circle cx="162.177" cy="47.5163" r="1.0422" fill="#14132F"/>
<circle cx="173.433" cy="47.5163" r="1.0422" fill="#14132F"/>
<ellipse cx="163.005" cy="43.4527" rx="1.04223" ry="3.62698" transform="rotate(-95.4706 163.005 43.4527)" fill="#14132F"/>
<ellipse cx="174.658" cy="43.4719" rx="3.62674" ry="1.04217" transform="rotate(-8.16 174.658 43.4719)" fill="#14132F"/>
<path d="M168.537 47.3081C168.537 50.393 165.994 52.936 162.909 52.936C159.824 52.936 157.281 50.393 157.281 47.3081C161.033 47.3081 164.785 47.3081 168.537 47.3081Z" fill="#D9FFDF"/>
<path d="M181.461 47.3081C181.461 50.393 178.918 52.936 175.833 52.936C172.748 52.936 170.205 50.393 170.205 47.3081C173.957 47.3081 177.709 47.3081 181.461 47.3081Z" fill="#D9FFDF"/>
<path d="M161.785 53.0187H161.743C161.618 52.977 161.576 52.8936 161.576 52.7685C161.743 52.0598 162.035 51.4345 162.493 50.976C162.785 50.6841 162.994 50.5591 163.744 50.2256C163.952 50.1005 164.203 49.9754 164.536 49.8087C165.995 49.0583 166.329 48.8499 166.62 48.3913C166.787 48.0995 166.912 47.8077 166.954 47.4325C166.954 47.3074 167.079 47.224 167.204 47.2657C167.329 47.2657 167.412 47.3908 167.371 47.5159C167.329 47.9327 167.204 48.3079 166.996 48.6414C166.662 49.1834 166.204 49.4752 164.744 50.1839C164.411 50.3506 164.161 50.4757 163.952 50.6008C163.244 50.976 163.077 51.0593 162.827 51.2678C162.452 51.6847 162.16 52.1849 162.035 52.8519C161.951 52.977 161.868 53.0187 161.785 53.0187Z" fill="white"/>
<path d="M175.124 53.019H175.083C174.958 52.9773 174.916 52.8939 174.916 52.7688C175.083 52.0601 175.375 51.4348 175.833 50.9763C176.125 50.6844 176.333 50.5594 177.084 50.2259C177.292 50.1008 177.542 49.9757 177.876 49.8507C179.335 49.1003 179.668 48.8919 179.96 48.4333C180.127 48.1415 180.252 47.8497 180.294 47.4745C180.294 47.3494 180.419 47.266 180.544 47.3077C180.669 47.3077 180.752 47.4328 180.711 47.5578C180.669 47.9747 180.544 48.3499 180.335 48.6834C180.002 49.2254 179.543 49.5172 178.084 50.2259C177.751 50.3926 177.501 50.5177 177.292 50.6428C176.584 51.0179 176.417 51.1013 176.167 51.3098C175.791 51.7266 175.5 52.2269 175.375 52.8939C175.291 52.9773 175.208 53.019 175.124 53.019Z" fill="white"/>
<path fill-rule="evenodd" clip-rule="evenodd" d="M181.878 47.5158C181.878 47.6408 181.795 47.7242 181.67 47.7242H157.116L150.321 51.5595C150.195 51.4761 150.07 51.351 149.945 51.2677L156.991 47.3073C157.032 47.3073 157.074 47.2656 157.074 47.2656H181.67C181.795 47.3073 181.878 47.4324 181.878 47.5158Z" fill="#14132F"/>
<path d="M162.426 56.7078C162.51 56.7078 162.593 56.7495 162.635 56.8329C162.676 56.9163 163.885 59.3758 167.512 59.1257C167.637 59.1257 167.721 59.2091 167.721 59.3342C167.721 59.4592 167.637 59.5426 167.512 59.5426C163.594 59.8344 162.26 57.0413 162.26 56.9996C162.218 56.8746 162.26 56.7912 162.343 56.7078C162.343 56.7078 162.385 56.7078 162.426 56.7078Z" fill="#14132F"/>
<path fill-rule="evenodd" clip-rule="evenodd" d="M152.698 55.8123C152.531 54.2698 151.822 52.9358 150.78 51.9353C150.655 51.8103 150.488 51.6852 150.363 51.5601C150.238 51.4768 150.113 51.3517 149.988 51.2683C149.238 50.7681 148.362 50.4346 147.487 50.2678C146.945 50.1844 146.403 50.1844 145.861 50.2261C142.443 50.6013 139.941 53.6862 140.317 57.1046C140.692 60.523 143.777 63.0243 147.195 62.6491C150.613 62.2739 153.073 59.2724 152.698 55.8123Z" fill="#FFF1F2"/>
<path d="M145.567 69.1492C145.526 69.1492 145.484 69.1492 145.442 69.1075C143.692 67.7735 142.899 65.6057 143.4 63.6047C143.483 63.3546 143.566 63.0628 143.65 62.8543C143.942 62.1456 144.359 61.6871 144.484 61.5203C145.026 60.895 145.776 60.353 146.61 60.0195C146.735 59.9779 146.818 60.0195 146.901 60.1446C146.943 60.2697 146.901 60.353 146.776 60.4364C145.984 60.7699 145.317 61.2702 144.817 61.8538C144.65 62.0206 144.317 62.4374 144.025 63.0628C143.942 63.2712 143.858 63.5213 143.775 63.7715C143.358 65.564 143.983 67.44 145.442 68.6906C145.818 67.5651 146.234 66.4395 146.651 65.3139C146.985 64.3551 147.36 63.438 147.694 62.5208C147.735 62.3958 147.86 62.3541 147.944 62.3958C148.069 62.4374 148.11 62.5625 148.069 62.6459C147.735 63.563 147.36 64.4802 147.027 65.439C146.568 66.6479 146.151 67.8569 145.734 69.0658C145.693 69.1492 145.651 69.1909 145.609 69.1909C145.609 69.1075 145.609 69.1492 145.567 69.1492Z" fill="#31B0FF" stroke="#31B0FF" stroke-width="0.3"/>
<path fill-rule="evenodd" clip-rule="evenodd" d="M148.32 59.3974C148.278 59.3974 148.237 59.3974 148.195 59.3557C147.403 58.8138 146.986 58.2302 146.986 57.5632C146.986 56.7294 147.653 56.1041 147.987 55.8123L143.609 51.8519C143.526 51.7685 143.526 51.6435 143.609 51.5601C143.693 51.4767 143.818 51.4767 143.901 51.5601L148.487 55.7289C148.529 55.7706 148.57 55.854 148.57 55.8956C148.57 55.9373 148.529 56.0207 148.487 56.0624C148.487 56.0624 147.486 56.7711 147.486 57.6048C147.486 58.1051 147.82 58.6054 148.487 59.0222C148.57 59.1056 148.612 59.2307 148.529 59.3141C148.487 59.3974 148.404 59.3974 148.32 59.3974Z" fill="#14132F"/>
<path fill-rule="evenodd" clip-rule="evenodd" d="M203.93 227.942C203.763 227.317 203.596 226.65 203.429 226.024C202.596 222.773 201.804 219.563 200.97 216.311C200.845 215.894 200.761 215.477 200.636 215.019C197.593 203.012 194.55 191.006 191.507 179C191.382 178.458 191.257 177.958 191.09 177.416C188.589 167.536 186.087 157.656 183.544 147.776C165.493 148.485 147.401 149.152 129.35 149.86C117.594 199.928 105.838 249.953 94.1236 300.02C94.0403 300.396 93.9569 300.812 93.8318 301.188C91.4139 311.485 88.996 321.74 86.5781 332.037C88.2456 332.078 89.9132 332.078 91.6224 332.12C91.9559 332.12 92.2894 332.12 92.6229 332.12C97.3336 332.203 102.044 332.245 106.755 332.329C114.426 332.454 122.138 332.579 129.85 332.704C131.143 332.745 132.435 332.745 133.727 332.787C134.019 332.787 134.269 332.787 134.561 332.787C136.562 332.829 138.563 332.87 140.606 332.87C142.732 315.82 144.816 298.728 146.942 281.678C146.984 281.177 147.067 280.635 147.151 280.135C150.569 252.413 153.988 224.732 157.448 197.009C158.823 207.348 160.241 217.728 161.616 228.067C161.742 229.026 161.867 229.985 161.992 230.943C166.536 264.752 171.08 298.603 175.624 332.412C176.999 332.329 178.417 332.287 179.792 332.203C180.084 332.203 180.334 332.162 180.626 332.162C182.627 332.078 184.587 331.995 186.588 331.87C194.05 331.536 201.47 331.203 208.932 330.828C215.894 330.494 222.856 330.202 229.818 329.869C221.189 295.977 212.559 261.959 203.93 227.942Z" fill="#31B0FF"/>
<path d="M132.604 161.325C132.479 161.325 132.396 161.283 132.313 161.199C132.146 161.033 132.146 160.783 132.313 160.616L137.524 155.405C137.69 155.238 137.94 155.238 138.107 155.405C138.274 155.572 138.274 155.822 138.107 155.988L132.896 161.199C132.813 161.283 132.688 161.325 132.604 161.325Z" fill="#1F0D60"/>
<path d="M180.087 157.447C179.92 157.447 179.795 157.364 179.712 157.197L176.669 150.486C176.585 150.277 176.669 150.027 176.877 149.944C177.086 149.86 177.336 149.944 177.419 150.152L180.462 156.864C180.546 157.072 180.462 157.322 180.254 157.406C180.212 157.406 180.17 157.447 180.087 157.447Z" fill="#1F0D60"/>
<path d="M191.509 179L187.549 175.04C187.382 174.873 187.382 174.623 187.549 174.456C187.716 174.289 187.966 174.289 188.133 174.456L191.092 177.416C191.217 177.958 191.342 178.5 191.509 179Z" fill="#1F0D60"/>
<path d="M125.517 181.21C125.476 181.21 125.434 181.21 125.35 181.168C125.142 181.085 125.017 180.834 125.1 180.626L127.727 173.747C127.81 173.539 128.06 173.414 128.269 173.497C128.477 173.581 128.602 173.831 128.519 174.039L125.892 180.918C125.851 181.085 125.684 181.21 125.517 181.21Z" fill="#1F0D60"/>
<path d="M179.585 175.415C179.419 175.415 179.252 175.29 179.168 175.123L177.209 168.036C177.167 167.828 177.293 167.578 177.501 167.536C177.709 167.494 177.96 167.619 178.001 167.828L179.961 174.915C180.002 175.123 179.877 175.373 179.669 175.415C179.627 175.415 179.585 175.415 179.585 175.415Z" fill="#1F0D60"/>
<path d="M128.559 198.219C128.434 198.219 128.351 198.177 128.268 198.094C128.101 197.927 128.101 197.677 128.268 197.51L133.479 192.299C133.645 192.132 133.896 192.132 134.062 192.299C134.229 192.466 134.229 192.716 134.062 192.883L128.851 198.094C128.768 198.177 128.643 198.219 128.559 198.219Z" fill="#1F0D60"/>
<path d="M189.341 194.466C189.174 194.466 189.049 194.383 188.966 194.216L185.923 187.504C185.839 187.296 185.923 187.046 186.131 186.962C186.339 186.879 186.59 186.962 186.673 187.171L189.716 193.882C189.8 194.091 189.716 194.341 189.508 194.424C189.466 194.466 189.383 194.466 189.341 194.466Z" fill="#1F0D60"/>
<circle cx="142.674" cy="101.798" r="7.87903" fill="#31B0FF"/>
<path fill-rule="evenodd" clip-rule="evenodd" d="M171.203 127.473C169.786 128.89 167.785 129.765 165.617 129.765C161.24 129.765 157.738 126.222 157.738 121.886C157.738 117.551 161.282 114.007 165.617 114.007C167.41 114.007 169.036 114.591 170.37 115.591C170.662 119.552 170.953 123.512 171.203 127.473Z" fill="#31B0FF"/>
<path fill-rule="evenodd" clip-rule="evenodd" d="M151.029 144.816C151.029 146.317 150.612 147.693 149.903 148.86C149.861 148.943 149.82 149.027 149.778 149.068C148.861 149.11 147.902 149.152 146.985 149.193C144.525 149.277 142.024 149.36 139.564 149.485C140.065 145.4 140.565 141.314 141.024 137.187C141.691 136.979 142.399 136.896 143.15 136.896C147.485 136.896 151.029 140.439 151.029 144.816Z" fill="#31B0FF"/>
<path d="M150.987 77.9068C150.153 78.3654 149.195 78.6989 148.152 78.824C148.402 76.9897 149.002 73.229 149.002 73.229C149.74 74.7776 150.346 76.3244 150.987 77.9068Z" fill="white"/>
<path d="M159.364 97.5421C159.281 97.5421 159.197 97.5004 159.156 97.417L150.359 77.0316C150.318 76.9065 150.359 76.8231 150.484 76.7398C150.61 76.6981 150.693 76.7398 150.776 76.8648L159.364 96.75L165.2 78.8658C165.242 78.7408 165.367 78.6991 165.45 78.7408C165.575 78.7825 165.617 78.9075 165.575 78.9909L159.572 97.417C159.572 97.5004 159.489 97.5421 159.364 97.5421C159.364 97.5421 159.406 97.5421 159.364 97.5421Z" fill="#14132F"/>
<path fill-rule="evenodd" clip-rule="evenodd" d="M147.15 149.402C147.025 149.402 146.941 149.318 146.941 149.193C146.941 149.068 147.025 148.985 147.15 148.985L171.912 147.984C172.038 147.984 172.121 148.068 172.121 148.193C172.121 148.318 172.038 148.401 171.912 148.401L147.15 149.402Z" fill="#14132F"/>
<mask id="path-115-inside-1" fill="white">
<path d="M148.234 78.8239C148.401 77.4482 148.776 74.6551 148.943 73.2794C143.232 74.4884 134.686 76.9897 125.89 82.826C106.838 95.4991 103.003 113.425 96.7915 112.633C93.3731 112.174 89.4128 106.046 86.8281 81.8255C86.8281 81.7004 86.7864 81.5337 86.7864 81.4086C86.2862 76.8646 85.8693 71.6953 85.4941 65.859C78.4488 65.3587 71.4036 64.9002 64.3583 64.3999H64.2332C64.1915 66.4426 64.1082 72.9042 64.525 81.3252V81.7421C65.4839 101.085 68.9023 130.392 80.9084 140.272L80.9257 140.286C82.1038 141.254 84.9731 143.611 89.246 144.441C103.42 147.234 116.51 130.684 118.428 128.182L102.429 196.969H133.782C135.977 178.37 137.396 167.161 137.396 167.161C137.896 163.2 138.605 156.947 139.563 149.193C142.356 125.723 145.275 102.253 148.234 78.8239Z"/>
</mask>
<path d="M148.234 78.8239C148.401 77.4482 148.776 74.6551 148.943 73.2794C143.232 74.4884 134.686 76.9897 125.89 82.826C106.838 95.4991 103.003 113.425 96.7915 112.633C93.3731 112.174 89.4128 106.046 86.8281 81.8255C86.8281 81.7004 86.7864 81.5337 86.7864 81.4086C86.2862 76.8646 85.8693 71.6953 85.4941 65.859C78.4488 65.3587 71.4036 64.9002 64.3583 64.3999H64.2332C64.1915 66.4426 64.1082 72.9042 64.525 81.3252V81.7421C65.4839 101.085 68.9023 130.392 80.9084 140.272L80.9257 140.286C82.1038 141.254 84.9731 143.611 89.246 144.441C103.42 147.234 116.51 130.684 118.428 128.182L102.429 196.969H133.782C135.977 178.37 137.396 167.161 137.396 167.161C137.896 163.2 138.605 156.947 139.563 149.193C142.356 125.723 145.275 102.253 148.234 78.8239Z" fill="white" stroke="#14132F" stroke-width="0.8" mask="url(#path-115-inside-1)"/>
<mask id="path-116-inside-2" fill="white">
<path fill-rule="evenodd" clip-rule="evenodd" d="M258.542 83.8263C254.457 82.7841 250.663 81.6586 247.161 80.4496C247.161 80.4496 247.161 80.4496 247.12 80.4496C243.535 92.3307 239.949 102.044 237.073 109.173C233.529 117.927 232.154 120.303 229.861 120.72C224.983 121.596 221.69 112.758 209.017 98.2087C201.722 89.8711 196.26 83.7013 187.548 79.199C179.627 75.1136 172.081 73.9463 166.912 73.6128V73.6545C168.621 98.5422 170.331 123.388 172.04 148.276L178.168 272.881C191.8 269.838 205.39 266.753 219.022 263.71C209.976 216.186 200.971 168.661 191.925 121.137C195.302 126.348 198.928 130.975 202.639 134.977C206.182 138.771 209.392 142.064 214.103 144.899C216.854 146.525 226.651 152.403 235.822 150.319C248.204 147.526 253.998 131.351 260.293 113.8C264.504 102.127 266.421 92.1223 267.38 85.7857C264.504 85.2437 261.585 84.5767 258.542 83.8263Z"/>
</mask>
<path fill-rule="evenodd" clip-rule="evenodd" d="M258.542 83.8263C254.457 82.7841 250.663 81.6586 247.161 80.4496C247.161 80.4496 247.161 80.4496 247.12 80.4496C243.535 92.3307 239.949 102.044 237.073 109.173C233.529 117.927 232.154 120.303 229.861 120.72C224.983 121.596 221.69 112.758 209.017 98.2087C201.722 89.8711 196.26 83.7013 187.548 79.199C179.627 75.1136 172.081 73.9463 166.912 73.6128V73.6545C168.621 98.5422 170.331 123.388 172.04 148.276L178.168 272.881C191.8 269.838 205.39 266.753 219.022 263.71C209.976 216.186 200.971 168.661 191.925 121.137C195.302 126.348 198.928 130.975 202.639 134.977C206.182 138.771 209.392 142.064 214.103 144.899C216.854 146.525 226.651 152.403 235.822 150.319C248.204 147.526 253.998 131.351 260.293 113.8C264.504 102.127 266.421 92.1223 267.38 85.7857C264.504 85.2437 261.585 84.5767 258.542 83.8263Z" fill="white" stroke="black" stroke-width="0.8" mask="url(#path-116-inside-2)"/>
<path fill-rule="evenodd" clip-rule="evenodd" d="M134.645 155.738C134.561 155.738 134.478 155.655 134.436 155.571L125.182 111.465C125.182 111.424 125.182 111.34 125.223 111.299C125.265 111.257 125.307 111.215 125.39 111.215C125.849 111.215 133.394 111.174 135.354 111.174L127.266 90.7464C127.224 90.6631 127.266 90.5797 127.308 90.4963L143.399 77.4063C143.483 77.3229 143.608 77.3646 143.691 77.448C143.774 77.5314 143.733 77.6564 143.649 77.7398L127.683 90.7047L135.812 111.257C135.854 111.34 135.812 111.382 135.77 111.465C135.729 111.507 135.687 111.549 135.604 111.549C134.436 111.549 127.099 111.59 125.599 111.59L134.853 155.488C134.895 155.613 134.812 155.696 134.686 155.738H134.645Z" fill="#14132F"/>
<path fill-rule="evenodd" clip-rule="evenodd" d="M177.042 155.363C177.042 155.363 177 155.363 177.042 155.363C176.875 155.321 176.833 155.238 176.833 155.113L185.838 110.631L176.542 108.756C176.458 108.756 176.417 108.714 176.375 108.63C176.333 108.547 176.375 108.505 176.375 108.422C178.084 105.837 179.835 103.169 181.586 100.585C183.712 97.4164 185.88 94.2064 188.048 91.0381C184.296 87.9949 172.915 78.7402 171.581 77.6563C171.497 77.5729 171.497 77.4479 171.539 77.3645C171.622 77.2811 171.748 77.2811 171.831 77.3228C173.207 78.4067 184.879 87.9115 188.464 90.8297C188.548 90.9131 188.548 91.0381 188.506 91.1215C186.297 94.3315 184.087 97.5831 181.919 100.835C180.252 103.336 178.543 105.879 176.917 108.422L186.088 110.298C186.213 110.34 186.255 110.423 186.255 110.548L177.25 155.196C177.209 155.279 177.125 155.363 177.042 155.363Z" fill="#14132F"/>
<path fill-rule="evenodd" clip-rule="evenodd" d="M87.6199 81.8254C87.5782 81.8254 87.5782 81.8254 87.6199 81.8254C85.9107 81.8254 70.6112 81.6586 64.6498 81.742C64.5248 81.742 64.4414 81.6586 64.4414 81.5335C64.4414 81.4085 64.5248 81.3251 64.6498 81.3251C70.6112 81.2417 85.9107 81.4085 87.6199 81.4085C87.745 81.4085 87.8284 81.4919 87.8284 81.6169C87.7867 81.742 87.7033 81.8254 87.6199 81.8254Z" fill="#14132F"/>
<path fill-rule="evenodd" clip-rule="evenodd" d="M263.835 100.627C261.209 100.043 248.036 96.9999 242.116 95.7909C241.991 95.7492 241.949 95.6658 241.949 95.5408C241.991 95.4157 242.074 95.374 242.199 95.374C248.119 96.583 261.292 99.6262 263.877 100.21C264.002 100.252 264.044 100.335 264.044 100.46C264.002 100.543 263.919 100.627 263.835 100.627Z" fill="#14132F"/>
<path fill-rule="evenodd" clip-rule="evenodd" d="M85.62 65.8592C78.5747 65.3589 71.5294 64.9004 64.4842 64.4001C63.1918 63.8999 61.8578 63.3162 60.4404 62.6492C55.5213 60.2313 51.8527 57.3965 49.3514 55.1037C48.4343 54.2282 48.3926 52.7692 49.2681 51.852C49.5182 51.5602 49.8517 51.3935 50.1852 51.2684C50.4353 51.185 50.6855 51.1433 50.9356 51.1433L49.5599 49.9344C49.0596 49.4758 48.7678 48.8505 48.7678 48.1835C48.7678 47.6415 48.9346 47.0996 49.3514 46.6827C49.9351 46.0574 50.7688 45.7656 51.5609 45.9323L50.9773 45.4321C50.0185 44.5983 49.9351 43.1392 50.7688 42.1804C51.6026 41.2216 53.0617 41.1382 54.0205 41.972L54.3123 42.2221C53.9371 41.43 54.0205 40.4295 54.6458 39.7208C55.4796 38.762 56.9387 38.6786 57.8975 39.5124L69.5701 49.6843L74.531 50.8098L70.7791 45.9323C70.0287 44.9318 70.1954 43.4727 71.1959 42.6807C71.4044 42.5139 71.6128 42.4305 71.8213 42.3472C72.7384 42.0137 73.7806 42.3055 74.4059 43.1392C76.4486 45.0569 79.2417 48.1001 81.5346 52.4357C84.411 57.7717 85.2865 62.7743 85.62 65.8592Z" fill="#FFF1F2"/>
<path fill-rule="evenodd" clip-rule="evenodd" d="M74.741 60.8149C74.6993 60.8149 74.6159 60.7732 74.5743 60.7315C70.7807 56.8128 74.5326 52.4773 74.5743 52.4356C74.6576 52.3522 74.7827 52.3522 74.8661 52.4356C74.9494 52.519 74.9494 52.644 74.8661 52.7274C74.8661 52.7274 73.9489 53.7696 73.5321 55.2287C72.9484 57.1463 73.407 58.8972 74.8661 60.4397C74.9494 60.523 74.9494 60.6481 74.8661 60.7315C74.8661 60.7732 74.8244 60.8149 74.741 60.8149Z" fill="#14132F"/>
<path fill-rule="evenodd" clip-rule="evenodd" d="M65.1092 51.3099C65.0675 51.3099 65.0258 51.3099 64.9841 51.2683L54.1452 42.3887C54.0619 42.3053 54.0619 42.1803 54.1036 42.0969C54.1869 42.0135 54.312 42.0135 54.3954 42.0552L65.2342 50.9348C65.3176 51.0181 65.3176 51.1432 65.2759 51.2266C65.2342 51.3099 65.1509 51.3099 65.1092 51.3099Z" fill="#14132F"/>
<path fill-rule="evenodd" clip-rule="evenodd" d="M62.4847 54.3534C62.443 54.3534 62.4014 54.3534 62.3597 54.3117L51.3957 46.0992C51.3124 46.0158 51.2707 45.8907 51.354 45.8073C51.4374 45.724 51.5625 45.6823 51.6459 45.7657L62.6098 53.9782C62.6932 54.0616 62.7349 54.1866 62.6515 54.27C62.6098 54.3534 62.5681 54.3534 62.4847 54.3534Z" fill="#14132F"/>
<path fill-rule="evenodd" clip-rule="evenodd" d="M61.3575 58.6884C61.3158 58.6884 61.2741 58.6884 61.2325 58.6467L50.7688 51.3096C50.6854 51.2262 50.6437 51.1012 50.7271 51.0178C50.8105 50.9344 50.9355 50.8927 51.0189 50.9761L61.4826 58.3132C61.566 58.3966 61.6076 58.5216 61.5243 58.605C61.4826 58.6467 61.3992 58.6884 61.3575 58.6884Z" fill="#14132F"/>
<path fill-rule="evenodd" clip-rule="evenodd" d="M247.162 80.4498C257.098 83.7006 260.775 84.3859 267.38 85.7858C267.38 85.7858 267.446 84.9213 267.751 84.9856C269.131 84.861 270.574 84.6676 272.12 84.4172C277.515 83.4488 281.823 81.735 284.86 80.2205C285.982 79.6317 286.425 78.2407 285.836 77.1178C285.676 76.7683 285.401 76.5161 285.115 76.3039C284.898 76.1548 284.669 76.0458 284.428 75.9769L286.084 75.194C286.691 74.891 287.144 74.3704 287.328 73.7292C287.477 73.2083 287.467 72.6414 287.181 72.1257C286.792 71.3637 286.071 70.8534 285.264 70.7954L285.963 70.4754C287.114 69.9382 287.596 68.5586 287.059 67.4071C286.522 66.2556 285.142 65.7733 283.991 66.3105L283.642 66.4705C284.221 65.8125 284.416 64.8278 284.01 63.9742C283.473 62.8227 282.094 62.3404 280.942 62.8775L266.918 69.438L261.839 69.1525L266.79 65.4981C267.787 64.7432 268.029 63.2947 267.286 62.2575C267.131 62.0398 266.954 61.9022 266.776 61.7646C265.987 61.1912 264.904 61.1845 264.074 61.8136C261.581 63.0939 258.058 65.2493 254.659 68.7849C250.423 73.1214 248.333 77.5763 247.162 80.4498Z" fill="#FFF1F2"/>
<path fill-rule="evenodd" clip-rule="evenodd" d="M258.879 78.7129C258.919 78.7243 259.011 78.7073 259.063 78.6787C263.789 75.9575 261.378 70.7557 261.349 70.7041C261.292 70.601 261.172 70.5665 261.069 70.6237C260.966 70.6809 260.931 70.8011 260.988 70.9042C260.988 70.9042 261.583 72.1588 261.581 73.6763C261.614 75.6805 260.69 77.2372 258.862 78.3177C258.759 78.3749 258.725 78.4951 258.782 78.5982C258.771 78.6383 258.799 78.6899 258.879 78.7129Z" fill="#14132F"/>
<path fill-rule="evenodd" clip-rule="evenodd" d="M270.758 72.2306C270.798 72.242 270.838 72.2535 270.889 72.225L283.756 66.677C283.859 66.6198 283.894 66.4996 283.877 66.408C283.819 66.3048 283.699 66.2704 283.607 66.2875L270.741 71.8354C270.638 71.8926 270.603 72.0128 270.62 72.1044C270.638 72.1961 270.718 72.2191 270.758 72.2306Z" fill="#14132F"/>
<path fill-rule="evenodd" clip-rule="evenodd" d="M272.442 75.8798C272.482 75.8913 272.522 75.9028 272.573 75.8742L285.376 71.0019C285.479 70.9447 285.554 70.836 285.497 70.7329C285.44 70.6297 285.331 70.5552 285.228 70.6123L272.425 75.4847C272.322 75.5418 272.247 75.6506 272.304 75.7537C272.321 75.8453 272.361 75.8568 272.442 75.8798Z" fill="#14132F"/>
<path fill-rule="evenodd" clip-rule="evenodd" d="M272.33 80.3573C272.37 80.3688 272.41 80.3803 272.462 80.3517L284.542 76.183C284.645 76.1259 284.72 76.0171 284.663 75.914C284.606 75.8109 284.497 75.7363 284.394 75.7935L272.313 79.9622C272.21 80.0193 272.135 80.1281 272.193 80.2312C272.221 80.2828 272.29 80.3458 272.33 80.3573Z" fill="#14132F"/>
</g>
</svg>
