<?xml version="1.0" standalone="no"?>
<!DOCTYPE svg PUBLIC "-//W3C//DTD SVG 20010904//EN"
 "http://www.w3.org/TR/2001/REC-SVG-20010904/DTD/svg10.dtd">
<svg version="1.0" xmlns="http://www.w3.org/2000/svg"
 width="1120.000000pt" height="1120.000000pt" viewBox="0 0 1120.000000 1120.000000"
 preserveAspectRatio="xMidYMid meet">
<metadata>
Created by potrace 1.11, written by Peter Selinger 2001-2013
</metadata>
<g transform="translate(0.000000,1120.000000) scale(0.100000,-0.100000)"
fill="#000000" stroke="none">
<path d="M5538 9435 c-1 -1 -39 -6 -83 -9 -73 -5 -195 -16 -220 -20 -5 -1 -16
-5 -22 -9 -7 -5 -17 -6 -21 -3 -4 2 -39 -1 -77 -9 -39 -7 -83 -15 -100 -18
-16 -3 -52 -10 -80 -17 -27 -6 -59 -13 -70 -14 -12 -1 -25 -5 -31 -9 -6 -3
-21 -8 -35 -10 -13 -3 -42 -10 -64 -16 -22 -6 -44 -11 -50 -12 -5 -1 -21 -6
-35 -11 -14 -6 -45 -16 -70 -23 -25 -7 -70 -23 -100 -35 -30 -12 -62 -23 -70
-25 -53 -13 -406 -173 -439 -198 -7 -6 -19 -12 -27 -13 -7 -1 -26 -10 -41 -21
-48 -31 -67 -43 -88 -52 -11 -5 -38 -21 -59 -36 -22 -15 -50 -31 -63 -36 -13
-5 -23 -13 -23 -19 0 -5 -5 -10 -11 -10 -9 0 -79 -44 -114 -72 -5 -4 -53 -40
-105 -79 -276 -208 -530 -462 -739 -739 -39 -52 -78 -104 -87 -115 -8 -11 -25
-37 -36 -57 -12 -21 -26 -38 -30 -38 -5 0 -6 -5 -3 -10 3 -6 -1 -13 -9 -16 -9
-3 -16 -10 -16 -15 0 -4 -24 -48 -54 -96 l-53 -88 -99 -22 c-55 -12 -110 -24
-124 -27 -14 -2 -55 -13 -92 -24 -38 -11 -68 -17 -68 -13 0 3 -4 2 -8 -4 -4
-5 -51 -25 -105 -42 -107 -36 -144 -52 -295 -124 -56 -27 -106 -49 -111 -49
-5 0 -11 -4 -13 -8 -2 -5 -32 -25 -68 -46 -93 -53 -192 -116 -240 -153 -187
-144 -211 -165 -350 -303 -95 -95 -166 -178 -293 -340 -29 -36 -127 -191 -127
-199 0 -5 -4 -11 -9 -13 -16 -5 -196 -366 -203 -405 -1 -5 -14 -38 -29 -75
-15 -38 -25 -68 -22 -68 3 0 0 -6 -6 -13 -6 -8 -12 -22 -14 -33 -2 -10 -6 -26
-10 -34 -10 -28 -28 -105 -26 -110 1 -3 -3 -15 -9 -27 -7 -12 -14 -35 -16 -50
-2 -15 -9 -48 -14 -73 -6 -25 -14 -61 -17 -80 -3 -19 -8 -48 -11 -65 -3 -16
-7 -46 -9 -65 -2 -19 -7 -66 -12 -105 -15 -133 -8 -524 12 -649 5 -33 12 -76
21 -141 3 -22 13 -67 21 -100 8 -33 16 -67 17 -75 11 -62 80 -277 118 -370 6
-14 14 -34 18 -45 50 -128 202 -406 289 -530 155 -218 359 -440 536 -582 50
-40 100 -82 112 -93 12 -11 25 -20 28 -20 9 0 79 -53 83 -62 2 -5 8 -8 13 -8
5 0 33 -15 62 -34 92 -59 139 -85 277 -152 151 -74 145 -71 255 -112 128 -48
325 -105 325 -95 0 3 6 1 12 -5 7 -6 33 -13 58 -17 25 -3 64 -11 87 -16 145
-31 285 -43 523 -43 189 0 257 4 365 18 22 3 58 8 80 11 60 8 88 13 205 40 61
14 215 57 262 74 31 10 59 17 62 14 3 -4 6 -1 6 5 0 6 15 14 32 18 18 3 44 14
57 23 14 9 26 15 28 13 4 -3 84 31 171 73 45 22 71 30 82 24 24 -14 74 -32 83
-31 4 1 7 -3 7 -9 0 -5 4 -8 8 -5 5 3 21 -1 36 -9 31 -16 318 -114 347 -118
10 -2 22 -6 25 -10 4 -4 18 -7 31 -7 14 0 32 -4 41 -9 9 -5 33 -11 52 -15 19
-3 55 -10 80 -16 79 -18 247 -49 300 -55 19 -2 53 -6 75 -9 229 -28 671 -29
885 -1 19 3 53 7 75 10 22 3 50 7 61 9 12 2 39 7 60 11 87 13 101 16 144 25
25 6 83 20 130 31 47 11 92 22 100 24 72 17 326 104 425 145 17 7 35 14 40 15
23 6 160 70 166 78 3 5 8 7 10 6 5 -4 163 73 170 83 3 5 16 0 30 -10 47 -37
208 -142 218 -142 5 0 11 -4 13 -8 3 -9 233 -122 288 -142 19 -7 39 -17 45
-22 5 -4 18 -8 30 -8 12 0 26 -5 33 -12 7 -7 12 -9 12 -5 0 4 17 0 38 -8 35
-14 133 -42 177 -50 11 -2 32 -7 48 -10 171 -34 236 -39 442 -39 198 0 309 8
405 30 14 3 39 8 55 10 172 31 459 137 625 233 39 22 76 41 81 41 5 0 9 4 9
10 0 5 11 12 25 16 14 3 25 9 25 13 0 4 17 17 38 29 20 12 50 33 66 47 16 14
32 25 35 25 3 0 22 14 41 31 19 16 57 49 84 72 48 42 156 150 196 197 12 14
31 36 43 50 12 14 35 43 51 65 17 22 32 42 36 45 9 8 95 142 116 180 10 19 22
37 25 40 7 5 119 234 119 242 0 3 8 23 17 44 9 22 17 41 18 44 1 3 14 46 30
95 16 50 30 95 31 100 1 6 7 28 12 50 6 22 14 56 17 75 3 19 8 46 10 60 3 14
7 36 10 50 27 141 26 549 -1 683 -2 12 -6 37 -9 55 -20 149 -143 512 -215 632
-56 94 -100 174 -100 181 0 5 -3 9 -8 9 -4 0 -16 16 -26 35 -11 19 -23 35 -28
35 -4 0 -8 5 -8 11 0 6 -17 32 -37 57 -21 26 -42 53 -48 60 -20 27 -161 176
-199 211 -21 20 -48 45 -60 56 -28 27 -234 185 -242 185 -3 0 -24 13 -47 29
-35 24 -97 58 -215 121 -60 31 -285 117 -333 127 -26 5 -42 17 -44 33 -1 3 -5
30 -10 60 -4 30 -9 62 -10 70 -2 15 -4 25 -31 140 -9 36 -17 72 -19 80 -2 8
-10 42 -19 75 -9 33 -18 67 -21 75 -2 8 -8 28 -14 43 -6 16 -9 32 -6 37 3 5 1
10 -3 12 -9 3 -57 148 -54 161 1 4 -2 7 -7 7 -5 0 -13 14 -16 32 -4 18 -11 39
-16 48 -5 8 -25 56 -46 105 -20 50 -42 93 -47 97 -6 4 -8 8 -4 8 4 0 -18 48
-49 108 -31 59 -63 120 -71 136 -8 15 -32 56 -53 90 -21 33 -46 76 -55 94 -9
17 -20 32 -25 32 -5 0 -9 4 -9 10 0 8 -76 126 -90 140 -3 3 -25 32 -50 65 -24
33 -49 65 -55 72 -5 7 -14 18 -20 25 -12 16 -101 122 -135 162 -43 50 -265
269 -320 316 -29 25 -62 53 -74 63 -11 10 -34 28 -49 40 -16 12 -34 27 -40 33
-21 18 -200 148 -262 189 -33 22 -63 45 -67 50 -4 6 -8 6 -8 2 0 -4 -20 6 -44
23 -25 16 -49 30 -55 30 -6 0 -11 3 -11 8 0 4 -10 12 -23 18 -12 6 -87 45
-167 85 -137 70 -168 84 -265 125 -79 33 -90 37 -100 40 -5 2 -74 25 -151 51
-78 26 -148 50 -155 52 -143 39 -272 70 -315 76 -11 2 -45 8 -75 14 -92 18
-152 27 -254 37 -33 3 -71 8 -85 10 -28 6 -556 14 -562 9z"/>
</g>
</svg>
