<?xml version="1.0" standalone="no"?>
<!DOCTYPE svg PUBLIC "-//W3C//DTD SVG 20010904//EN"
 "http://www.w3.org/TR/2001/REC-SVG-20010904/DTD/svg10.dtd">
<svg version="1.0" xmlns="http://www.w3.org/2000/svg"
 width="700.000000pt" height="700.000000pt" viewBox="0 0 700.000000 700.000000"
 preserveAspectRatio="xMidYMid meet">
<metadata>
Created by potrace 1.11, written by Peter Selinger 2001-2013
</metadata>
<g transform="translate(0.000000,700.000000) scale(0.100000,-0.100000)"
fill="#000000" stroke="none">
<path d="M4915 5726 c-5 -3 -40 -7 -77 -11 -38 -4 -68 -10 -68 -13 0 -4 21
-18 48 -32 26 -14 92 -55 147 -91 172 -115 234 -181 220 -237 -3 -13 -86 -160
-183 -324 -127 -215 -185 -304 -204 -314 -49 -26 -110 -18 -164 21 -255 182
-523 306 -781 361 l-82 17 -20 -24 c-11 -13 -42 -61 -68 -107 -77 -133 -86
-146 -125 -160 -49 -19 -104 -8 -137 27 -14 15 -48 65 -74 112 -26 46 -58 97
-71 112 l-23 28 -64 -16 c-35 -9 -111 -39 -167 -66 -86 -42 -117 -63 -181
-127 -51 -50 -87 -96 -103 -132 -73 -156 -58 -349 37 -473 19 -25 79 -81 133
-124 157 -126 326 -205 859 -400 454 -165 734 -289 908 -401 167 -107 357
-273 430 -377 94 -132 173 -337 201 -517 28 -181 4 -448 -55 -621 -18 -52 -18
-56 -3 -48 32 18 348 329 452 446 514 575 799 1133 886 1732 24 166 22 432 -5
562 -28 140 -53 215 -116 346 -68 142 -156 264 -276 385 -123 124 -251 216
-414 296 -237 116 -429 163 -690 170 -88 2 -164 2 -170 0z"/>
<path d="M1780 5699 c-511 -59 -949 -336 -1201 -759 -54 -92 -112 -236 -146
-366 -27 -105 -28 -118 -28 -339 1 -198 4 -247 24 -355 104 -554 405 -1108
886 -1634 107 -116 381 -390 426 -425 l25 -19 134 165 c140 172 165 193 233
193 26 0 51 -15 119 -69 193 -155 462 -303 681 -375 240 -80 513 -113 709 -86
202 27 386 109 504 225 110 107 154 215 154 372 0 94 -18 152 -71 229 -51 74
-108 132 -173 177 -110 75 -391 205 -637 296 -672 248 -952 380 -1216 572 -76
55 -244 225 -311 314 -90 119 -158 280 -199 468 -24 116 -25 371 0 487 55 254
172 463 372 665 55 55 142 131 193 167 l92 66 -67 11 c-192 32 -346 38 -503
20z"/>
</g>
</svg>
