<svg width="312" height="196" viewBox="0 0 312 196" fill="none" xmlns="http://www.w3.org/2000/svg">
<rect width="312" height="196" fill="#F2F2F2"/>
<rect width="360" height="667" transform="translate(-24 -192)" fill="white"/>
<rect width="312" height="196" fill="white"/>
<mask id="mask0" mask-type="alpha" maskUnits="userSpaceOnUse" x="0" y="0" width="312" height="196">
<rect width="312" height="196" fill="white"/>
</mask>
<g mask="url(#mask0)">
<path d="M74.2411 9.82266C77.1459 9.82266 80.1942 7.59921 83.3142 3.22404C83.3859 3.11645 83.3859 2.93714 83.2425 2.86542C83.1349 2.79369 82.9556 2.79369 82.8839 2.93714C79.7639 7.31231 76.7873 9.46404 73.9901 9.28473C71.7308 9.17714 70.1528 7.59921 68.4673 5.98542C66.7818 4.33576 65.0246 2.61438 62.4784 2.47093C59.6453 2.32749 56.7046 4.22817 53.7639 8.06542C53.6563 8.173 53.6921 8.35231 53.7997 8.4599C53.9073 8.56749 54.0866 8.53162 54.1942 8.42404C57.0273 4.73024 59.8246 2.90128 62.4425 3.04473C64.7735 3.15231 66.3873 4.73024 68.0728 6.3799C69.7225 8.02955 71.4439 9.71507 73.9184 9.85852C74.0259 9.7868 74.1335 9.82266 74.2411 9.82266Z" fill="#14132F"/>
<path d="M302.072 45.0033C306.125 45.0033 310.392 41.8833 314.767 35.7509C314.839 35.6433 314.839 35.464 314.696 35.3923C314.588 35.3205 314.409 35.3205 314.337 35.464C309.926 41.6681 305.658 44.6805 301.678 44.4654C298.45 44.286 296.191 42.0985 293.86 39.7674C291.493 37.4364 289.054 35.0336 285.504 34.8543C281.559 34.675 277.471 37.2929 273.311 42.7081C273.203 42.8157 273.239 42.995 273.347 43.1026C273.454 43.2102 273.634 43.1743 273.741 43.0667C277.758 37.795 281.703 35.2488 285.468 35.4281C288.803 35.6074 291.17 37.9385 293.465 40.1978C295.796 42.4929 298.199 44.8598 301.642 45.0392C301.785 45.0033 301.929 45.0033 302.072 45.0033Z" fill="#14132F"/>
<path fill-rule="evenodd" clip-rule="evenodd" d="M252.589 91.0859C252.553 91.1934 252.482 91.2293 252.374 91.2293C252.332 91.2293 252.302 91.217 252.278 91.2068C252.26 91.1996 252.245 91.1934 252.231 91.1934L246.349 87.8224C246.206 87.7507 246.17 87.6072 246.242 87.4638L249.613 81.5824C249.684 81.439 249.828 81.4031 249.971 81.4748L255.853 84.8459C255.996 84.9176 256.032 85.061 255.96 85.2045L252.589 91.0859ZM252.266 90.5838L255.386 85.1686L249.971 82.0486L246.851 87.4638L252.266 90.5838Z" fill="#14132F"/>
<path fill-rule="evenodd" clip-rule="evenodd" d="M182.329 6.88154C182.329 6.98913 182.221 7.09671 182.078 7.09671H182.006L177.38 6.37947C177.308 6.37947 177.236 6.34361 177.2 6.27188C177.164 6.20016 177.164 6.12844 177.164 6.05671L177.882 1.4305C177.882 1.35878 177.918 1.28706 177.989 1.25119C178.061 1.21533 178.133 1.21533 178.204 1.21533L182.831 1.93257C182.974 1.96844 183.082 2.11188 183.046 2.25533L182.329 6.88154ZM181.862 6.52292L182.472 2.43464L178.384 1.82499L177.774 5.91326L181.862 6.52292Z" fill="#14132F"/>
<path d="M214.748 13.6595C214.784 13.6595 214.82 13.6595 214.856 13.6236C214.999 13.5519 215.071 13.4084 214.999 13.265L212.704 7.52705C212.632 7.38361 212.489 7.31188 212.345 7.38361C212.202 7.45533 212.13 7.59878 212.202 7.74223L214.497 13.4802C214.533 13.5877 214.641 13.6595 214.748 13.6595Z" fill="#14132F"/>
<path d="M268.72 9.89418C268.792 9.89418 268.863 9.85832 268.935 9.78659C269.043 9.67901 269.007 9.4997 268.899 9.39211L264.165 5.44728C264.058 5.3397 263.878 5.37556 263.771 5.48315C263.663 5.59073 263.699 5.77004 263.807 5.87763L268.505 9.85832C268.576 9.89418 268.648 9.89418 268.72 9.89418Z" fill="#14132F"/>
<path d="M206.105 56.5867C206.176 56.5867 206.248 56.5509 206.32 56.4791C206.427 56.3716 206.392 56.1922 206.284 56.0847L201.622 52.0322C201.514 51.9247 201.335 51.9605 201.227 52.0681C201.12 52.1757 201.156 52.355 201.263 52.4626L205.925 56.515C205.997 56.5867 206.033 56.5867 206.105 56.5867Z" fill="#14132F"/>
<path d="M48.5278 145.991C48.5995 145.991 48.7071 145.955 48.7429 145.883L52.365 140.898C52.4367 140.791 52.4367 140.612 52.2933 140.54C52.1857 140.468 52.0064 140.468 51.9347 140.612L48.3126 145.596C48.2409 145.704 48.2409 145.883 48.3843 145.955C48.4202 145.991 48.4919 145.991 48.5278 145.991Z" fill="#14132F"/>
<path d="M254.105 182.448C254.213 182.448 254.32 182.376 254.356 182.268C254.392 182.125 254.32 181.982 254.177 181.946L248.331 180.009C248.188 179.973 248.044 180.045 248.009 180.188C247.973 180.332 248.044 180.475 248.188 180.511L254.033 182.448C254.033 182.412 254.069 182.448 254.105 182.448Z" fill="#14132F"/>
<path d="M290.405 177C290.476 177 290.512 177.036 290.584 177.072L295.784 181.196C295.892 181.303 295.927 181.447 295.82 181.59L291.696 186.79C291.588 186.898 291.445 186.934 291.301 186.826L286.101 182.702C285.994 182.594 285.958 182.451 286.065 182.308L290.189 177.108C290.225 177.036 290.297 177 290.405 177ZM295.246 181.411L290.441 177.61L286.639 182.415L291.445 186.216L295.246 181.411Z" fill="#14132F"/>
<path d="M129.576 189.456C129.611 189.456 129.683 189.456 129.719 189.42C129.827 189.348 129.863 189.169 129.791 189.061L126.384 183.897C126.312 183.79 126.133 183.754 126.025 183.825C125.918 183.897 125.882 184.076 125.954 184.184L129.36 189.348C129.396 189.42 129.468 189.456 129.576 189.456Z" fill="black"/>
<path d="M28.3725 175.469C28.4442 175.469 28.5518 175.434 28.5877 175.362C28.6594 175.254 28.6594 175.075 28.5159 175.003L23.5311 171.381C23.4235 171.309 23.2442 171.309 23.1725 171.453C23.1008 171.56 23.1008 171.74 23.2442 171.811L28.229 175.434C28.2649 175.469 28.3008 175.469 28.3725 175.469Z" fill="#14132F"/>
<path d="M13.4548 116.153C13.4906 116.153 13.5265 116.153 13.5624 116.118C13.7058 116.046 13.7417 115.902 13.7058 115.759L11.1596 110.129C11.0879 109.985 10.9444 109.949 10.801 109.985C10.6575 110.057 10.6217 110.2 10.6575 110.344L13.2037 115.974C13.2755 116.118 13.3472 116.153 13.4548 116.153Z" fill="#14132F"/>
<path d="M282.891 74.1947C282.963 74.1947 283.035 74.1588 283.07 74.123L287.302 69.6402C287.41 69.5326 287.41 69.3533 287.302 69.2457C287.195 69.1381 287.015 69.1381 286.908 69.2457L282.676 73.7285C282.568 73.8361 282.568 74.0154 282.676 74.123C282.748 74.1947 282.819 74.1947 282.891 74.1947Z" fill="#14132F"/>
<path d="M273.354 109.801C273.374 109.732 273.385 109.698 273.36 109.653C273.322 109.53 273.161 109.444 273.037 109.482L267.239 111.606C267.115 111.644 267.029 111.806 267.067 111.93C267.105 112.053 267.267 112.139 267.391 112.101L273.189 109.977C273.268 109.963 273.323 109.904 273.354 109.801Z" fill="#14132F"/>
<path d="M311.146 151.729C311.253 151.729 311.325 151.693 311.361 151.585L314.517 146.278C314.589 146.134 314.553 145.991 314.409 145.919C314.266 145.847 314.122 145.883 314.051 146.027L310.895 151.334C310.823 151.478 310.859 151.621 311.002 151.693C311.038 151.729 311.074 151.729 311.146 151.729Z" fill="#14132F"/>
<path d="M65.2394 93.0227C65.3111 93.0227 65.3828 92.9868 65.4546 92.9151C65.5622 92.8075 65.5263 92.6282 65.4187 92.5206L60.5773 88.7193C60.4697 88.6117 60.2904 88.6475 60.1828 88.7551C60.0753 88.8627 60.1111 89.042 60.2187 89.1496L65.0601 92.951C65.1318 93.0227 65.1677 93.0227 65.2394 93.0227Z" fill="#14132F"/>
<path d="M20.4483 12.6555C20.4842 12.6555 20.52 12.6555 20.52 12.6555L26.4014 10.7549C26.5448 10.719 26.6166 10.5755 26.5807 10.4321C26.5448 10.2887 26.4014 10.2169 26.2579 10.2528L20.3766 12.1176C20.2331 12.1535 20.1614 12.2969 20.1973 12.4404C20.1973 12.5838 20.3048 12.6555 20.4483 12.6555Z" fill="#14132F"/>
<path d="M26.078 60.7467C26.2573 60.7467 26.3649 60.6033 26.3291 60.4598L25.9346 54.2916C25.9346 54.1481 25.7911 54.0405 25.6477 54.0405C25.5042 54.0405 25.3967 54.184 25.3967 54.3274L25.7911 60.4957C25.827 60.6391 25.9346 60.7467 26.078 60.7467Z" fill="#14132F"/>
<circle r="3.08414" transform="matrix(-1 0 0 1 83.0995 68.8512)" fill="#E6F3FF"/>
<path fill-rule="evenodd" clip-rule="evenodd" d="M41.2478 113.177C40.925 113.822 40.2795 114.181 39.5981 114.181C39.3112 114.181 39.0602 114.109 38.7733 114.002C37.8767 113.536 37.4822 112.424 37.9484 111.527C38.1636 111.061 38.5581 110.738 39.0243 110.595C39.4905 110.451 39.9567 110.487 40.4229 110.702C40.8891 110.918 41.2119 111.312 41.3553 111.778C41.4988 112.245 41.4629 112.747 41.2478 113.177ZM40.1719 111.169C39.9926 111.061 39.8133 111.025 39.5981 111.025C39.4546 111.025 39.3112 111.061 39.1678 111.097C38.845 111.205 38.5581 111.42 38.4146 111.742C38.0919 112.388 38.3429 113.177 38.9884 113.5C39.634 113.822 40.4229 113.571 40.7457 112.926C40.8891 112.603 40.925 112.245 40.8174 111.922C40.7098 111.599 40.4946 111.312 40.1719 111.169Z" fill="#14132F"/>
<path fill-rule="evenodd" clip-rule="evenodd" d="M298.24 103.53C297.917 104.176 297.272 104.534 296.59 104.534C296.303 104.534 296.016 104.462 295.765 104.355C295.299 104.14 294.976 103.745 294.833 103.279C294.69 102.813 294.725 102.311 294.941 101.88C295.407 100.984 296.519 100.589 297.415 101.056C297.881 101.271 298.204 101.665 298.348 102.131C298.491 102.598 298.455 103.1 298.24 103.53ZM297.164 101.522C296.985 101.414 296.77 101.378 296.59 101.378C296.124 101.378 295.658 101.665 295.407 102.096C295.263 102.418 295.228 102.777 295.335 103.1C295.443 103.422 295.658 103.709 295.981 103.853C296.626 104.176 297.415 103.925 297.738 103.279C298.061 102.634 297.81 101.845 297.164 101.522Z" fill="#14132F"/>
<circle r="3.58621" transform="matrix(-1 0 0 1 244.693 44.7879)" fill="#E6F3FF"/>
<circle r="1.7931" transform="matrix(-1 0 0 1 278.019 161.56)" fill="#E6F3FF"/>
<path fill-rule="evenodd" clip-rule="evenodd" d="M60.5326 42.8476C60.4904 42.8719 60.4571 42.8912 60.4046 42.8912C60.297 42.8912 60.2253 42.8553 60.1895 42.7836L56.0653 37.5836C55.9577 37.4401 55.9936 37.2967 56.1012 37.1891L61.3012 33.065C61.4446 32.9574 61.5881 32.9932 61.6957 33.1008L65.8198 38.3008C65.9274 38.4443 65.8915 38.5877 65.7839 38.6953L60.5839 42.8194C60.5647 42.8291 60.5481 42.8387 60.5326 42.8476ZM60.4405 42.2815L65.246 38.4801L61.4446 33.6746L56.6391 37.476L60.4405 42.2815Z" fill="#14132F"/>
<path fill-rule="evenodd" clip-rule="evenodd" d="M221.459 195.833H78.4638C78.1633 195.833 77.9004 195.57 77.9004 195.269V92.8027C77.9004 92.5022 78.1633 92.2393 78.4638 92.2393H221.459C221.759 92.2393 222.022 92.5022 222.022 92.8027V195.269C222.022 195.607 221.759 195.833 221.459 195.833Z" fill="white"/>
<mask id="mask1" mask-type="alpha" maskUnits="userSpaceOnUse" x="77" y="92" width="146" height="104">
<path fill-rule="evenodd" clip-rule="evenodd" d="M221.459 195.833H78.4638C78.1633 195.833 77.9004 195.57 77.9004 195.269V92.8027C77.9004 92.5022 78.1633 92.2393 78.4638 92.2393H221.459C221.759 92.2393 222.022 92.5022 222.022 92.8027V195.269C222.022 195.607 221.759 195.833 221.459 195.833Z" fill="white"/>
</mask>
<g mask="url(#mask1)">
<path fill-rule="evenodd" clip-rule="evenodd" d="M78.4638 195.833H221.459C221.759 195.833 222.022 195.607 222.022 195.269V92.8027C222.022 92.5022 221.759 92.2393 221.459 92.2393H78.4638C78.1633 92.2393 77.9004 92.5022 77.9004 92.8027V195.269C77.9004 195.57 78.1633 195.833 78.4638 195.833ZM220.933 194.706H79.0272V93.3661H220.933V194.706Z" fill="#51D767"/>
<path d="M141.699 149.596C141.229 147.481 139.866 143.58 138.597 140.196C138.409 139.726 138.221 139.256 138.033 138.786C137.563 137.564 137.093 136.436 136.717 135.543C136.67 135.59 136.623 135.637 136.576 135.731C128.445 137.893 120.315 140.055 112.184 142.217C112.278 146.306 112.325 150.395 112.419 154.531C112.466 156.646 112.513 158.714 112.56 160.829C112.607 162.709 112.654 164.542 112.654 166.422C112.654 166.563 112.654 166.751 112.654 166.892C112.654 166.751 112.654 166.61 112.654 166.422C112.513 166.563 112.325 166.704 112.137 166.845L112.654 171.028L113.688 179.722C120.972 185.503 128.257 191.331 135.542 197.159C135.213 189.404 134.884 181.649 134.602 173.894C134.602 173.753 134.602 173.659 134.602 173.518C134.649 173.518 134.696 173.518 134.743 173.471C136.341 173.095 137.751 172.672 139.114 171.545C145.271 166.281 142.592 153.826 141.699 149.596Z" fill="#FFF1F2"/>
<path d="M133.568 157.445C133.474 157.445 133.38 157.398 133.333 157.304C133.286 157.21 133.333 157.069 133.427 156.975L138.55 154.531L132.252 147.481C132.158 147.387 132.158 147.246 132.252 147.152C132.346 147.058 132.487 147.058 132.581 147.152L139.161 154.484C139.208 154.531 139.208 154.625 139.208 154.672C139.208 154.766 139.161 154.813 139.067 154.86L133.662 157.445C133.662 157.398 133.615 157.445 133.568 157.445Z" fill="#14132F"/>
<circle cx="127.646" cy="148.327" r="1.22197" fill="#14132F"/>
<circle cx="137.093" cy="145.648" r="1.22197" fill="#14132F"/>
<path d="M132.674 164.353C131.687 164.353 130.513 164.071 129.15 163.272C129.056 163.225 129.009 163.084 129.056 162.943C129.103 162.849 129.244 162.802 129.385 162.849C133.802 165.434 136.058 162.238 136.105 162.238C136.199 162.144 136.34 162.097 136.434 162.191C136.528 162.285 136.575 162.426 136.481 162.52C136.434 162.567 135.165 164.353 132.674 164.353Z" fill="#14132F"/>
<path d="M136.717 135.543C136.67 135.59 136.623 135.637 136.576 135.731C128.445 137.893 120.314 140.055 112.184 142.217C112.325 148.421 112.419 154.625 112.56 160.782L111.385 160.641C111.385 160.641 111.827 164.38 112.047 166.249L109.091 167.739C107.106 165.64 104.952 162.853 103.16 159.325C98.272 149.596 99.494 140.572 100.011 137.141C101.092 129.95 104.852 118.201 111.714 116.321C112.513 116.086 114.769 115.475 116.461 116.697C118.763 118.389 118.293 122.196 118.199 122.572C120.972 117.261 126.189 115.851 128.445 117.355C130.372 118.624 130.936 122.525 129.291 126.379C130.56 123.606 132.957 121.961 135.213 122.196C137.281 122.431 138.503 124.123 138.644 124.358C140.618 127.036 139.819 131.501 136.717 135.543Z" fill="#14132F"/>
<path d="M113.406 155.377C110.539 152.134 105.651 151.805 102.408 154.672C101.045 155.894 100.152 157.492 99.87 159.137C99.447 161.393 100.058 163.79 101.703 165.623C104.382 168.678 108.941 169.148 112.184 166.751C112.372 166.61 112.56 166.469 112.701 166.328C115.897 163.555 116.226 158.62 113.406 155.377Z" fill="#FFF1F2"/>
<path d="M111.337 162.897H111.29C110.35 162.662 109.551 161.957 109.269 160.97C109.034 160.124 109.175 159.231 109.692 158.526L103.629 156.223C103.488 156.176 103.441 156.035 103.488 155.941C103.535 155.8 103.676 155.753 103.77 155.8L110.162 158.197C110.256 158.244 110.303 158.291 110.303 158.385C110.303 158.479 110.303 158.526 110.256 158.62C109.692 159.231 109.457 160.077 109.692 160.876C109.927 161.675 110.538 162.286 111.337 162.474C111.478 162.521 111.525 162.615 111.525 162.756C111.525 162.85 111.431 162.897 111.337 162.897Z" fill="#14132F"/>
<ellipse cx="124.692" cy="143.157" rx="3.43101" ry="0.893002" transform="rotate(-21.9557 124.692 143.157)" fill="#14132F"/>
<ellipse cx="136.303" cy="139.774" rx="3.43106" ry="0.893016" transform="rotate(-6.70716 136.303 139.774)" fill="#14132F"/>
<path d="M132.675 173.894C131.171 173.894 129.62 173.753 128.116 173.471C125.578 173.001 123.134 172.155 120.831 170.98C120.737 170.933 120.69 170.792 120.737 170.651C120.784 170.558 120.925 170.511 121.066 170.558C123.322 171.732 125.719 172.578 128.21 173.001C130.325 173.377 132.44 173.471 134.555 173.33C134.696 173.33 134.79 173.424 134.79 173.565C134.79 173.706 134.696 173.8 134.555 173.8C133.991 173.847 133.333 173.894 132.675 173.894Z" fill="#14132F"/>
<circle cx="97.4728" cy="186.725" r="1.55096" fill="#14132F"/>
<circle cx="112.418" cy="186.725" r="1.55096" fill="#14132F"/>
<circle cx="141.887" cy="186.725" r="1.55096" fill="#14132F"/>
<circle cx="157.301" cy="186.725" r="1.55096" fill="#14132F"/>
<path d="M135.541 197.3C135.494 197.3 135.447 197.3 135.4 197.253L117.399 182.918C117.305 182.824 117.258 182.683 117.352 182.589C117.446 182.495 117.587 182.448 117.681 182.542L135.259 196.548L134.695 182.73C134.695 182.589 134.789 182.495 134.93 182.495C135.071 182.495 135.165 182.589 135.165 182.73L135.729 197.065C135.729 197.159 135.682 197.253 135.588 197.3C135.635 197.3 135.588 197.3 135.541 197.3Z" fill="#14132F"/>
<path d="M230.892 148.891C224.124 148.985 217.403 149.079 210.635 149.173C211.152 142.546 211.622 135.919 212.139 129.292C208.191 134.227 204.243 139.162 200.295 144.05C195.079 139.773 189.909 135.496 184.692 131.219C186.196 135.637 187.747 140.102 189.251 144.52C189.674 145.742 190.097 147.011 190.52 148.233C188.264 148.421 186.008 148.656 183.705 148.844C179.522 149.22 175.339 149.596 171.156 149.972C174.023 151.57 176.89 153.168 179.757 154.766C182.53 156.317 185.35 157.868 188.123 159.419C185.35 162.991 182.577 166.516 179.804 170.087C178.535 171.732 177.219 173.377 175.95 175.069C177.172 174.834 178.441 174.599 179.663 174.364C185.209 173.283 190.802 172.249 196.348 171.168C196.395 171.215 196.395 171.262 196.442 171.309L196.63 171.685C197.758 173.706 198.886 175.68 199.966 177.701C201.705 180.85 203.491 183.999 205.23 187.101C206.217 181.32 207.204 175.586 208.191 169.805C214.395 171.168 220.552 172.531 226.756 173.894C222.996 169.241 219.189 164.589 215.429 159.983C220.505 156.27 225.675 152.557 230.892 148.891Z" fill="#6068F8"/>
<path d="M205.232 167.314C205.232 167.314 198.464 182.965 197.665 186.819C194.657 185.221 191.555 183.482 188.359 181.649C185.304 179.863 182.343 178.077 179.57 176.291L179.664 174.364C185.21 173.283 190.803 172.249 196.349 171.168C196.396 171.215 196.396 171.262 196.443 171.309C196.49 171.45 196.584 171.544 196.631 171.685L200.203 164.729C200.908 163.32 202.647 162.756 204.057 163.508C205.373 164.165 205.937 165.904 205.232 167.314Z" fill="#FFF1F2"/>
<path d="M195.41 174.035C195.363 174.035 195.316 174.035 195.316 173.988C195.222 173.941 195.175 173.8 195.222 173.659L198.934 166.422C198.981 166.328 199.122 166.281 199.263 166.328C199.357 166.375 199.404 166.516 199.357 166.657L195.645 173.894C195.598 173.988 195.504 174.035 195.41 174.035Z" fill="#14132F"/>
</g>
<path d="M221.42 110.231H78.4629V109.104H221.42V110.231Z" fill="#51D767"/>
<path fill-rule="evenodd" clip-rule="evenodd" d="M84.3984 101.292C84.3984 103.996 86.577 106.175 89.2814 106.175C91.9858 106.175 94.1643 103.996 94.1643 101.292C94.1643 98.5872 91.9858 96.4087 89.2814 96.4087C86.577 96.4087 84.3984 98.5872 84.3984 101.292ZM85.5253 101.292C85.5253 99.2258 87.2155 97.5355 89.2814 97.5355C91.3472 97.5355 93.0375 99.2258 93.0375 101.292C93.0375 103.357 91.3472 105.048 89.2814 105.048C87.2155 105.048 85.5253 103.357 85.5253 101.292Z" fill="#51D767"/>
<path fill-rule="evenodd" clip-rule="evenodd" d="M98.709 101.292C98.709 103.996 100.888 106.175 103.592 106.175C106.296 106.175 108.475 103.996 108.475 101.292C108.475 98.5872 106.296 96.4087 103.592 96.4087C100.888 96.4087 98.709 98.5872 98.709 101.292ZM99.8358 101.292C99.8358 99.2258 101.526 97.5355 103.592 97.5355C105.658 97.5355 107.348 99.2258 107.348 101.292C107.348 103.357 105.658 105.048 103.592 105.048C101.526 105.048 99.8358 103.357 99.8358 101.292Z" fill="#51D767"/>
<path fill-rule="evenodd" clip-rule="evenodd" d="M113.02 101.292C113.02 103.996 115.198 106.175 117.902 106.175C120.607 106.175 122.785 103.996 122.785 101.292C122.785 98.5872 120.607 96.4087 117.902 96.4087C115.198 96.4087 113.02 98.5872 113.02 101.292ZM114.146 101.292C114.146 99.2258 115.837 97.5355 117.902 97.5355C119.968 97.5355 121.659 99.2258 121.659 101.292C121.659 103.357 119.968 105.048 117.902 105.048C115.837 105.048 114.146 103.357 114.146 101.292Z" fill="#51D767"/>
<path d="M173.493 31.9161C172.066 29.8878 169.173 25.8687 163.727 24.1034C159.295 22.676 155.388 23.4273 153.548 23.9156C151.97 23.0141 149.003 21.6619 145.435 22.0751C140.477 22.6385 137.397 26.1692 135.744 28.1224C127.593 37.738 129.359 50.8468 129.697 53.1005C130.373 57.6454 131.763 61.2137 132.814 63.3922C147.163 62.4532 161.548 61.5142 175.897 60.5751C176.61 58.3966 181.456 43.0341 173.493 31.9161Z" fill="#14132F"/>
<path d="M143.858 47.7667C143.82 47.7667 143.783 47.7667 143.745 47.7292L131.313 39.7662C131.237 39.7287 131.2 39.5784 131.237 39.5033C131.275 39.4282 131.425 39.3906 131.5 39.4658L143.933 47.4663C144.008 47.5038 144.046 47.6541 144.008 47.7292C143.971 47.7292 143.933 47.7667 143.858 47.7667Z" fill="black"/>
<path d="M165.003 48.3676C164.891 48.6681 164.778 48.9685 164.665 49.2315C163.839 51.2973 162.599 53.1754 161.135 54.8656C160.496 59.2603 159.895 63.6549 159.257 68.0495C154.787 74.0969 150.317 80.1066 145.81 86.154C145.171 80.2193 144.57 74.2847 143.932 68.35C143.932 68.35 144.533 64.2559 144.833 62.2276C143.443 62.1149 142.129 61.7769 140.964 61.1383C134.091 57.57 131.612 44.5739 135.555 35.5593C135.743 35.1085 135.969 34.6578 136.194 34.2071C137.133 34.2822 138.297 34.2822 139.575 33.9441C142.805 33.1553 144.645 30.9768 145.246 30.2256C145.509 30.7139 146.148 31.9158 147.537 32.6671C149.829 33.9066 152.157 33.0051 152.496 32.8549C152.608 33.4558 153.096 35.409 154.937 36.949C157.078 38.7144 159.482 38.6393 160.008 38.6017C157.566 41.4188 157.716 45.2124 159.67 47.1281C161.698 49.0437 164.74 48.4427 165.003 48.3676Z" fill="#FFF1F2"/>
<path fill-rule="evenodd" clip-rule="evenodd" d="M141.303 56.2181C142.092 57.0445 143.181 57.4952 144.233 57.4952C144.608 57.4952 144.984 57.4201 145.397 57.3074C147.163 56.744 148.289 54.8284 148.027 52.8752C147.989 52.8001 147.951 52.7625 147.914 52.7249L147.914 52.7249C147.839 52.6874 147.764 52.6874 147.726 52.7249L141.378 55.9176C141.303 55.9552 141.266 55.9928 141.266 56.0679C141.228 56.1054 141.266 56.1806 141.303 56.2181ZM145.209 56.9693C144.045 57.345 142.73 57.0069 141.754 56.143L147.613 53.1757C147.726 54.9035 146.749 56.4811 145.209 56.9693Z" fill="#14132F"/>
<path d="M143.707 49.7578C143.67 49.7578 143.632 49.7578 143.632 49.7202L140.439 48.0675C140.364 48.03 140.327 47.9173 140.364 47.8422L143.407 38.9026C143.444 38.79 143.557 38.7524 143.632 38.79C143.745 38.8275 143.782 38.9402 143.745 39.0153L140.74 47.8046L143.782 49.3822C143.858 49.4197 143.895 49.5324 143.858 49.6451C143.858 49.7202 143.782 49.7578 143.707 49.7578Z" fill="#14132F"/>
<path d="M144.721 62.5658C144.42 62.5658 144.082 62.5658 143.782 62.5282C143.669 62.5282 143.594 62.4531 143.594 62.3404C143.594 62.2277 143.669 62.1526 143.782 62.1526C145.397 62.2277 147.049 62.115 148.627 61.8146C150.129 61.5516 151.594 61.1009 152.984 60.4999C153.097 60.4624 153.172 60.4999 153.247 60.6126C153.284 60.7253 153.247 60.8004 153.134 60.8755C151.707 61.4765 150.204 61.9272 148.702 62.2277C147.387 62.4531 146.035 62.5658 144.721 62.5658Z" fill="#14132F"/>
<ellipse cx="136.83" cy="36.8359" rx="2.81695" ry="0.826306" transform="rotate(-7.41214 136.83 36.8359)" fill="#14132F"/>
<ellipse cx="151.212" cy="37.7447" rx="0.826359" ry="2.81713" transform="rotate(-71.0287 151.212 37.7447)" fill="#14132F"/>
<path d="M166.243 45.4382C164.853 44.8748 163.351 44.8748 162.036 45.4382C161.886 45.4757 161.773 45.5509 161.623 45.626C160.496 46.1894 159.557 47.166 159.031 48.4431C157.867 51.2601 159.181 54.4904 161.999 55.6548C164.816 56.8192 168.046 55.5045 169.21 52.6875C170.375 49.8328 169.06 46.6026 166.243 45.4382Z" fill="#FFF1F2"/>
<path d="M161.21 52.7999C161.134 52.7999 161.059 52.7624 161.022 52.6497C160.984 52.537 161.059 52.4619 161.134 52.4243C161.285 52.3868 161.961 52.1239 162.224 51.4853C162.487 50.7717 162.149 49.8702 161.397 49.3819C161.322 49.3443 161.322 49.2692 161.322 49.1941C161.322 49.119 161.36 49.0814 161.435 49.0438L166.13 47.0156C166.243 46.978 166.318 47.0156 166.393 47.1282C166.43 47.2409 166.393 47.316 166.28 47.3912L161.886 49.3068C162.599 49.9078 162.9 50.8468 162.599 51.6356C162.299 52.4243 161.51 52.7248 161.285 52.7999C161.247 52.7999 161.21 52.7999 161.21 52.7999Z" fill="#14132F"/>
<circle cx="162.487" cy="55.542" r="2.0283" fill="#31B0FF"/>
<circle cx="149.642" cy="42.9966" r="5.44635" fill="#D9FFDF"/>
<circle cx="136.007" cy="42.4332" r="5.44635" fill="#D9FFDF"/>
<path d="M145.398 41.0434C145.36 41.0434 145.322 41.0434 145.285 41.0059C144.834 40.5927 143.97 39.9166 142.806 39.9166C141.792 39.9166 140.815 40.48 140.477 40.6678C140.402 40.7054 140.327 40.7429 140.289 40.7805C140.214 40.8181 140.101 40.8181 140.026 40.7054C139.989 40.6302 139.989 40.5176 140.101 40.4424C140.139 40.4049 140.214 40.3673 140.327 40.3298C140.665 40.142 141.754 39.541 142.843 39.5034C144.121 39.5034 145.097 40.2171 145.585 40.6678C145.661 40.7429 145.661 40.8556 145.585 40.9307C145.51 41.0059 145.435 41.0434 145.398 41.0434Z" fill="#14132F"/>
<path d="M161.999 45.2504C161.849 45.2879 161.736 45.363 161.586 45.4382L154.487 40.8557C154.412 40.7806 154.374 40.6679 154.449 40.5928C154.487 40.5177 154.637 40.4801 154.712 40.5177L161.999 45.2504Z" fill="#14132F"/>
<path d="M138.261 47.5792C138.224 47.5792 138.224 47.5792 138.261 47.5792C135.82 47.1285 134.505 46.3773 134.129 45.2505C133.829 44.3865 134.242 43.5602 134.618 42.7714C134.993 42.0202 135.369 41.1939 135.144 40.3675C134.918 39.5036 134.129 38.7524 132.777 38.1514C132.664 38.1139 132.627 38.0012 132.664 37.8885C132.702 37.7758 132.815 37.7382 132.927 37.7758C134.392 38.4143 135.256 39.2407 135.519 40.2173C135.782 41.1939 135.369 42.0578 134.956 42.8841C134.58 43.6353 134.242 44.349 134.467 45.0626C134.768 46.0392 136.083 46.7529 138.299 47.1661C138.411 47.2036 138.486 47.2787 138.449 47.3914C138.411 47.5417 138.336 47.5792 138.261 47.5792Z" fill="white"/>
<path d="M152.27 47.9546C149.979 47.6541 148.664 47.0156 148.214 45.9639C147.876 45.1376 148.214 44.2737 148.514 43.4473C148.815 42.6585 149.153 41.8322 148.89 41.0058C148.589 40.1044 147.688 39.3907 146.185 38.9024C146.073 38.8649 146.035 38.7522 146.073 38.6771C146.11 38.5644 146.223 38.5268 146.298 38.5644C147.913 39.0902 148.927 39.879 149.265 40.8932C149.603 41.8697 149.228 42.7337 148.89 43.5976C148.589 44.3863 148.289 45.1 148.589 45.8137C148.965 46.7151 150.204 47.3161 152.308 47.579C152.42 47.579 152.496 47.6917 152.458 47.8044C152.458 47.8795 152.383 47.9546 152.27 47.9546Z" fill="white"/>
<circle cx="151.934" cy="42.696" r="0.826343" fill="#14132F"/>
<circle cx="138.299" cy="42.1325" r="0.826343" fill="#14132F"/>
<path fill-rule="evenodd" clip-rule="evenodd" d="M184.085 80.445L179.015 80.2196C179.052 78.9425 179.09 77.7406 179.127 76.6138C179.087 76.5868 179.046 76.555 179.004 76.5219L179.004 76.5218C178.929 76.4626 178.848 76.399 178.752 76.3508C178.714 77.5528 178.677 78.8299 178.639 80.1821L166.92 79.6938L159.783 79.3933C159.934 74.6981 160.046 70.9045 160.121 68.1625C160.009 68.125 159.858 68.0874 159.746 68.0874C159.671 70.8294 159.558 74.6606 159.408 79.3933L151.257 79.0552H151.032H150.806L150.543 79.4308H150.769H150.994L159.408 79.7689C159.374 81.37 159.311 83.06 159.245 84.8389L159.245 84.8391L159.22 85.5157C159.18 86.6476 159.15 87.812 159.12 89.0091C159.094 90.0367 159.067 91.0883 159.032 92.164H159.408C159.483 89.7226 159.558 87.3938 159.633 85.2152C159.705 83.3848 159.742 81.6572 159.778 79.9998L159.783 79.7689L166.432 80.0318L178.639 80.5201C178.526 83.9382 178.414 87.8445 178.301 92.164H178.677C178.827 87.8821 178.939 83.9757 179.015 80.5577L184.536 80.783C184.423 80.7079 184.273 80.5952 184.085 80.445ZM118.769 87.9727C118.824 85.8898 118.871 84.1393 118.917 82.7738C119.067 82.6611 119.18 82.5484 119.33 82.3982L119.33 82.3982L119.321 82.6687C119.246 84.9158 119.138 88.1614 119.03 92.2391H118.654C118.697 90.6967 118.735 89.2705 118.769 87.9732L118.769 87.9727ZM201.007 254.202C201.016 254.249 201.025 254.296 201.025 254.353C201.025 254.353 201.025 254.39 201.1 254.465L192.011 254.09C191.964 254.922 191.921 255.73 191.879 256.511L191.879 256.512C191.786 258.233 191.701 259.829 191.598 261.301C191.582 261.293 191.566 261.286 191.551 261.279C191.536 261.271 191.521 261.265 191.506 261.258L191.45 261.232C191.367 261.195 191.295 261.162 191.222 261.114C191.321 259.734 191.403 258.24 191.49 256.655L191.49 256.654L191.49 256.653L191.49 256.653L191.491 256.652L191.491 256.65L191.491 256.65C191.536 255.82 191.584 254.966 191.635 254.09L172.817 253.338C172.691 255.918 172.539 258.286 172.405 260.377L172.405 260.38L172.404 260.381L172.403 260.396C172.378 260.796 172.353 261.185 172.329 261.564C172.225 261.616 172.139 261.686 172.047 261.761C172.005 261.795 171.962 261.83 171.916 261.865C172.061 259.973 172.184 257.81 172.32 255.428C172.359 254.737 172.399 254.028 172.441 253.301L153.586 252.55C153.398 256.005 153.21 259.048 153.022 261.527C152.872 261.452 152.759 261.376 152.647 261.301C152.685 260.664 152.727 259.996 152.77 259.299L152.771 259.28L152.771 259.274C152.895 257.266 153.034 255.013 153.173 252.512L139.726 251.949C139.632 251.874 139.538 251.808 139.444 251.742L139.444 251.742C139.35 251.676 139.256 251.611 139.162 251.536L153.21 252.099C153.248 251.35 153.287 250.582 153.327 249.794C153.605 244.34 153.929 237.971 154.224 230.914L134.092 230.088C134.015 231.745 133.941 233.364 133.869 234.944L133.868 234.946L133.868 234.947L133.868 234.948L133.868 234.951C133.657 239.567 133.461 243.844 133.265 247.704C133.115 247.629 133.002 247.554 132.89 247.479L132.89 247.479C133.085 243.658 133.28 239.443 133.491 234.896L133.491 234.896C133.564 233.32 133.639 231.704 133.716 230.051L114.41 229.262C114.347 230.64 114.291 231.992 114.236 233.318C114.159 235.172 114.084 236.975 113.996 238.727C113.94 238.708 113.874 238.69 113.809 238.671C113.743 238.652 113.677 238.633 113.621 238.615C113.709 236.882 113.783 235.097 113.861 233.262L113.861 233.262L113.861 233.261C113.916 231.954 113.972 230.621 114.034 229.262L106.334 228.961C106.372 228.849 106.372 228.698 106.372 228.586L114.072 228.886C114.137 227.252 114.204 225.586 114.272 223.891L114.272 223.889C114.481 218.728 114.7 213.3 114.898 207.702L107.761 207.401C107.761 207.345 107.771 207.279 107.78 207.213C107.789 207.148 107.799 207.082 107.799 207.026L114.898 207.326C115.006 203.722 115.149 200.049 115.293 196.339L115.293 196.339L115.311 195.87H115.687C115.574 199.739 115.424 203.57 115.274 207.326L134.58 208.115C134.73 204.133 134.88 200.039 135.031 195.87H135.406C135.256 200.039 135.106 204.133 134.955 208.153L155.088 208.979L155.121 208.043V208.043V208.043V208.043C155.261 204.062 155.402 200.015 155.577 195.87H155.952C155.868 198.375 155.772 200.856 155.677 203.3C155.603 205.218 155.53 207.113 155.464 208.979L174.319 209.73C174.424 207.229 174.516 204.694 174.61 202.124C174.686 200.062 174.762 197.977 174.845 195.87H175.221C175.137 197.985 175.061 200.086 174.985 202.164L174.985 202.169C174.891 204.74 174.799 207.277 174.695 209.768L193.476 210.519C193.663 205.749 193.851 200.866 194.039 195.87H194.415V195.908C194.227 200.903 194.039 205.786 193.851 210.556L195.917 210.632C195.917 210.688 195.926 210.754 195.936 210.819C195.945 210.885 195.955 210.951 195.955 211.007L193.851 210.932C193.765 213.068 193.683 215.173 193.601 217.245L193.6 217.262L193.6 217.265L193.6 217.269L193.6 217.27L193.6 217.272L193.6 217.274L193.6 217.277L193.6 217.283L193.599 217.287C193.396 222.451 193.201 227.408 192.987 232.116L198.359 232.342C198.359 232.398 198.368 232.464 198.377 232.53C198.387 232.595 198.396 232.661 198.396 232.717L192.95 232.492C192.612 240.455 192.274 247.667 191.936 253.676L200.988 254.052C200.988 254.108 200.997 254.155 201.007 254.202ZM174.658 210.106L193.438 210.857C193.351 213.019 193.267 215.153 193.185 217.254C192.982 222.413 192.788 227.37 192.574 232.041L173.794 231.29C174.012 226.537 174.211 221.466 174.419 216.164L174.419 216.158L174.419 216.154L174.419 216.152C174.497 214.167 174.576 212.15 174.658 210.106ZM174.282 210.068L155.426 209.317C155.262 213.416 155.098 217.403 154.94 221.242L154.94 221.248C154.809 224.443 154.682 227.534 154.562 230.501L173.418 231.253C173.552 227.909 173.695 224.42 173.843 220.815L173.844 220.809C173.987 217.328 174.134 213.739 174.282 210.068ZM133.678 229.675L114.372 228.886C114.437 227.252 114.504 225.586 114.573 223.891L114.573 223.889L114.573 223.888C114.781 218.727 115 213.299 115.198 207.702L134.542 208.491C134.279 215.965 133.979 223.102 133.678 229.675ZM134.665 214.886L134.665 214.887C134.462 220.047 134.268 225.003 134.054 229.675L154.187 230.501C154.306 227.533 154.433 224.442 154.565 221.247C154.723 217.407 154.887 213.418 155.051 209.317L134.918 208.491C134.831 210.653 134.747 212.786 134.665 214.886ZM172.366 252.85L153.511 252.099C153.849 246.164 154.187 238.99 154.525 230.914L173.38 231.666C173.042 239.704 172.704 246.878 172.366 252.85ZM172.779 252.888L191.56 253.639C191.898 247.629 192.236 240.417 192.574 232.454L173.794 231.703C173.456 239.741 173.118 246.915 172.779 252.888ZM145.059 78.8674H145.247V79.3182H145.059H144.872L139.237 79.0928C139.215 80.5131 139.167 82.0514 139.115 83.6845C139.08 84.8155 139.043 85.9919 139.012 87.206C139.01 87.3132 139.007 87.4208 139.005 87.529C138.969 89.0506 138.932 90.6661 138.862 92.3143H138.486C138.521 91.3376 138.548 90.3851 138.574 89.4532C138.604 88.3783 138.634 87.3306 138.674 86.3045C138.749 83.6377 138.824 81.2338 138.899 79.0552L135.782 78.9425L124.1 78.4542C124.251 78.304 124.401 78.1913 124.551 78.0786L135.632 78.5294L138.899 78.6421C138.943 77.1785 138.982 75.8289 139.016 74.6023C139.071 72.6811 139.116 71.0615 139.162 69.7776C139.253 69.717 139.369 69.6808 139.469 69.6494C139.493 69.6419 139.516 69.6346 139.538 69.6274C139.492 70.9483 139.445 72.6122 139.39 74.5929C139.356 75.8226 139.318 77.1745 139.275 78.6421L144.872 78.8674H145.059Z" fill="#31B0FF"/>
<path d="M174.733 73.8717C169.474 77.8532 164.215 81.8347 158.957 85.8161C156.14 87.9571 153.323 90.0981 150.506 92.2391C147.388 92.2391 144.233 92.2391 141.115 92.2391C140.139 89.8727 139.2 87.4688 138.261 85.0649C136.571 80.8205 134.918 76.6137 133.303 72.4068C136.721 70.6039 140.289 69.1766 144.008 68.3127C144.646 74.2473 145.247 80.182 145.886 86.1166C150.355 80.0693 154.825 74.0595 159.333 68.0122C159.821 68.1249 160.347 68.2376 160.835 68.3503C165.793 69.4771 170.488 71.4303 174.733 73.8717Z" fill="#31B0FF"/>
<path d="M157.718 70.4539L151.295 79.1305L151.032 79.5061L145.999 86.267C145.961 86.3046 145.923 86.3422 145.848 86.3422H145.811C145.736 86.3422 145.698 86.267 145.66 86.1919L144.909 79.2807L144.872 78.9051L144.008 70.7919C144.008 70.6792 144.083 70.6041 144.158 70.6041C144.271 70.6041 144.346 70.6792 144.346 70.7919L145.21 78.9426L145.247 79.3183L145.923 85.7036L150.506 79.5436L150.769 79.168L157.342 70.3036C157.417 70.2285 157.53 70.1909 157.605 70.266C157.755 70.266 157.793 70.3787 157.718 70.4539Z" fill="#14132F"/>
<path d="M91.3477 161.802L90.9721 161.84C91.6482 162.14 92.1365 162.816 92.1741 163.605C92.2116 164.77 91.2726 165.821 90.0331 165.934L89.5072 165.971C89.8077 166.159 90.3711 166.572 90.4838 167.249C90.4838 167.249 90.6341 167.962 89.958 168.864C89.0565 170.028 83.6477 170.854 78.2389 170.329C73.093 169.84 67.9096 168.112 66.6701 164.356C66.1443 162.741 66.2569 160.45 66.8579 158.534C67.6467 156.018 69.1491 154.478 69.7501 153.877C72.7926 150.834 76.5862 150.346 77.8633 150.233C77.8633 150.985 77.8633 151.698 77.8633 152.449C77.8633 153.276 77.8633 154.102 77.8633 154.891C79.2531 154.703 90.3336 153.238 91.7984 154.666C92.2867 155.154 92.3619 155.68 92.3619 155.68C92.4745 156.581 91.6482 157.332 91.3853 157.558C92.5121 157.558 93.4511 158.422 93.4887 159.511C93.4887 160.675 92.5497 161.69 91.3477 161.802Z" fill="#FFF1F2"/>
<path d="M79.7034 159.361C79.6283 159.361 79.5156 159.286 79.5156 159.211C79.5156 159.098 79.5907 159.023 79.6659 158.985L91.3098 157.37C91.4225 157.37 91.4976 157.445 91.5352 157.52C91.5352 157.633 91.46 157.708 91.3849 157.746L79.7034 159.361C79.741 159.361 79.741 159.361 79.7034 159.361Z" fill="black"/>
<path d="M80.0413 163.342C79.9662 163.342 79.8535 163.267 79.8535 163.192C79.8535 163.079 79.9286 163.004 80.0038 162.966L90.934 161.652C91.0467 161.652 91.1218 161.727 91.1594 161.802C91.1594 161.915 91.0843 161.99 91.0091 162.027L80.0413 163.342C80.0413 163.342 80.0789 163.342 80.0413 163.342Z" fill="black"/>
<path d="M80.4554 166.986C80.3427 166.986 80.2676 166.911 80.2676 166.798C80.2676 166.685 80.3427 166.61 80.4554 166.61L89.47 165.784C89.5827 165.784 89.6578 165.859 89.6578 165.971C89.6578 166.084 89.5827 166.159 89.47 166.159L80.4554 166.986Z" fill="black"/>
<path d="M208.575 139.566L208.913 139.641C208.2 139.904 207.674 140.505 207.599 141.294C207.449 142.458 208.35 143.585 209.514 143.773L210.04 143.848C209.702 143.998 209.139 144.374 208.951 145.012C208.951 145.012 208.763 145.726 209.327 146.665C210.115 147.905 215.449 149.144 220.895 149.069C226.079 148.994 231.375 147.717 232.915 144.073C233.629 142.308 233.854 140.129 233.215 138.251C232.877 137.237 232.239 136.148 230.398 134.42C228.821 132.955 226.116 130.814 222.022 129.086C221.985 129.537 221.985 129.988 221.947 130.476C221.91 131.565 221.872 132.58 221.872 133.631C219.017 133.368 216.726 132.918 215.186 132.58C212.331 131.941 210.115 131.19 208.876 132.354C208.5 132.692 208.312 133.105 208.237 133.406C208.2 133.556 208.012 134.082 208.275 134.645C208.425 135.021 208.688 135.284 208.838 135.359C207.711 135.284 206.735 136.035 206.585 137.124C206.51 138.251 207.373 139.378 208.575 139.566Z" fill="#FFF1F2"/>
<path d="M220.369 138.064H220.331L208.838 135.472C208.725 135.434 208.688 135.359 208.688 135.246C208.725 135.134 208.8 135.096 208.913 135.096L220.407 137.688C220.519 137.725 220.557 137.801 220.557 137.913C220.519 138.026 220.444 138.064 220.369 138.064Z" fill="#14132F"/>
<path d="M219.694 142.007H219.657L208.877 139.791C208.764 139.754 208.727 139.678 208.727 139.566C208.764 139.453 208.839 139.416 208.952 139.416L219.732 141.632C219.845 141.669 219.882 141.744 219.882 141.857C219.845 141.97 219.77 142.007 219.694 142.007Z" fill="#14132F"/>
<path d="M218.979 145.613L210.002 144.036C209.889 144.036 209.814 143.923 209.852 143.81C209.852 143.698 209.964 143.623 210.077 143.66L219.016 145.238C219.129 145.238 219.204 145.35 219.167 145.463C219.167 145.576 219.092 145.613 218.979 145.613Z" fill="#14132F"/>
</g>
</svg>
