<svg width="20" height="20" viewBox="0 0 20 20" fill="none" xmlns="http://www.w3.org/2000/svg">
<path fill-rule="evenodd" clip-rule="evenodd" d="M11.2866 0.833496C15.639 0.833496 19.1673 4.37791 19.1673 8.75016C19.1673 9.96778 18.8937 11.1212 18.4048 12.1517L19.126 15.3726C19.3267 16.2686 18.7644 16.8305 17.8711 16.6279L14.6703 15.902C13.8808 16.2796 13.019 16.5292 12.1114 16.624C10.9729 18.1615 9.14492 19.1584 7.08398 19.1584C6.02768 19.1584 5.03258 18.8965 4.16014 18.4342L2.03508 19.0917C1.15349 19.3645 0.656338 18.871 0.925204 17.9876L1.57261 15.8606C1.1013 14.9825 0.833984 13.9788 0.833984 12.9126C0.833984 10.8135 1.87016 8.95633 3.45924 7.82391C3.91582 3.88809 7.24611 0.833496 11.2866 0.833496ZM14.4755 14.1492L17.2973 14.8L16.6602 11.9551L16.9071 11.4347C17.3011 10.6042 17.5082 9.69361 17.5082 8.75016C17.5082 5.29838 14.7227 2.50016 11.2866 2.50016C8.48664 2.50016 6.11867 4.3582 5.33786 6.91385C5.89202 6.75304 6.47793 6.66683 7.084 6.66683C10.5358 6.66683 13.334 9.46316 13.334 12.9126C13.334 13.5494 13.2386 14.1639 13.0614 14.7427C13.3684 14.6511 14.4755 14.1492 14.4755 14.1492ZM3.36957 15.69L2.94217 17.0717L4.32577 16.644L4.94374 16.9712C5.59711 17.3171 6.32553 17.5002 7.08398 17.5002C9.61358 17.5002 11.6673 15.4498 11.6673 12.9168C11.6673 10.3838 9.61358 8.3335 7.08398 8.3335C4.55439 8.3335 2.50065 10.3838 2.50065 12.9168C2.50065 13.685 2.68852 14.4224 3.04283 15.0818L3.36957 15.69Z" fill="currentColor"/>
</svg>
