<svg width="12" height="12" viewBox="0 0 12 12" fill="none" xmlns="http://www.w3.org/2000/svg">
<path fill-rule="evenodd" clip-rule="evenodd" d="M6 1C8.76142 1 11 3.23755 11 5.9977C11 6.75142 10.8331 7.46616 10.5342 8.10702L10.9728 10.206C11.0859 10.7469 10.7409 11.0927 10.2004 10.978L8.1034 10.533C7.46402 10.8297 6.75136 10.9954 6 10.9954C3.23858 10.9954 1 8.75785 1 5.9977C1 3.23755 3.23858 1 6 1ZM6 2C3.79086 2 2 3.79086 2 6C2 8.20914 3.79086 10 6 10C6.59009 10 7.16022 9.87278 7.68224 9.63038L7.98479 9.48989L9.88566 9.89629L9.48728 7.9892L9.62782 7.68774C9.87188 7.16425 10 6.59218 10 6C10 3.79086 8.20914 2 6 2Z" fill="currentColor"/>
</svg>
