<svg width="312" height="196" viewBox="0 0 312 196" fill="none" xmlns="http://www.w3.org/2000/svg">
<rect width="312" height="196" fill="white"/>
<mask id="mask0" mask-type="alpha" maskUnits="userSpaceOnUse" x="0" y="0" width="312" height="196">
<rect width="312" height="196" fill="white"/>
</mask>
<g mask="url(#mask0)">
<path d="M277.128 17.2101C272.036 17.2101 266.621 21.1549 261.098 28.9011C261.026 29.0087 261.026 29.188 261.17 29.2598C261.277 29.3315 261.457 29.3315 261.528 29.188C267.159 21.2984 272.538 17.4611 277.63 17.7122C281.754 17.9273 284.623 20.7246 287.6 23.7011C290.577 26.6418 293.697 29.6901 298.143 29.9053C303.128 30.1563 308.292 26.8211 313.528 19.9715C313.636 19.8639 313.6 19.6846 313.492 19.577C313.385 19.4694 313.205 19.5053 313.098 19.6129C307.97 26.2832 302.949 29.5825 298.179 29.3315C293.912 29.1163 290.899 26.1398 287.959 23.2708C285.018 20.366 281.97 17.3894 277.63 17.1384C277.451 17.2101 277.308 17.2101 277.128 17.2101Z" fill="black"/>
<path d="M17.129 185.475C13.0766 185.475 8.809 188.595 4.43383 194.727C4.36211 194.835 4.36211 195.014 4.50556 195.086C4.61314 195.157 4.79245 195.157 4.86418 195.014C9.27521 188.81 13.5428 185.797 17.5235 186.013C20.7511 186.192 23.0104 188.38 25.3414 190.711C27.7083 193.042 30.1469 195.444 33.6973 195.624C37.6421 195.803 41.7304 193.185 45.8904 187.77C45.998 187.662 45.9621 187.483 45.8545 187.375C45.7469 187.268 45.5676 187.304 45.46 187.411C41.4435 192.683 37.4987 195.229 33.7331 195.05C30.398 194.871 28.0311 192.54 25.7359 190.28C23.4049 187.985 21.0021 185.618 17.5593 185.439C17.4159 185.475 17.2725 185.475 17.129 185.475Z" fill="black"/>
<path fill-rule="evenodd" clip-rule="evenodd" d="M56.612 139.392C56.6478 139.285 56.7196 139.249 56.8271 139.249C56.8692 139.249 56.8989 139.261 56.9235 139.271C56.9409 139.278 56.9557 139.285 56.9706 139.285L62.852 142.656C62.9954 142.727 63.0313 142.871 62.9596 143.014L59.5885 148.896C59.5168 149.039 59.3734 149.075 59.2299 149.003L53.3485 145.632C53.2051 145.56 53.1692 145.417 53.2409 145.274L56.612 139.392ZM56.9347 139.894L53.8147 145.309L59.2299 148.429L62.3499 143.014L56.9347 139.894Z" fill="black"/>
<path d="M113.097 173.891C113.025 173.891 112.953 173.927 112.881 173.999C112.774 174.106 112.81 174.286 112.917 174.393L117.579 178.446C117.687 178.553 117.866 178.518 117.974 178.41C118.081 178.302 118.046 178.123 117.938 178.015L113.276 173.963C113.204 173.891 113.168 173.891 113.097 173.891Z" fill="#9B9DB1"/>
<path d="M241.698 48.0156C241.59 48.0156 241.483 48.0873 241.447 48.1949C241.411 48.3384 241.483 48.4818 241.626 48.5177L247.471 50.4542C247.615 50.4901 247.758 50.4184 247.794 50.2749C247.83 50.1315 247.758 49.988 247.615 49.9522L241.769 48.0156C241.769 48.0515 241.734 48.0156 241.698 48.0156Z" fill="black"/>
<path d="M235.35 11.4723C235.314 11.4723 235.314 11.4723 235.35 11.4723C235.17 11.5082 235.063 11.6158 235.099 11.7592L235.888 17.8916C235.923 18.0351 236.031 18.1427 236.175 18.1068C236.318 18.071 236.426 17.9634 236.39 17.8199L235.601 11.6875C235.601 11.5799 235.457 11.4723 235.35 11.4723Z" fill="black"/>
<path d="M291.258 4.08466C291.186 4.08466 291.115 4.12052 291.079 4.15638C290.971 4.26397 290.971 4.44328 291.079 4.55087L295.597 8.78259C295.705 8.89018 295.884 8.89018 295.992 8.78259C296.099 8.67501 296.099 8.4957 295.992 8.38811L291.473 4.15638C291.401 4.12052 291.33 4.08466 291.258 4.08466Z" fill="black"/>
<path d="M189.626 41.0223C189.59 41.0223 189.518 41.0223 189.482 41.0581C189.374 41.1299 189.339 41.3092 189.41 41.4168L192.817 46.5809C192.889 46.6885 193.068 46.7244 193.176 46.6526C193.283 46.5809 193.319 46.4016 193.248 46.294L189.841 41.1299C189.805 41.0581 189.733 41.0223 189.626 41.0223Z" fill="black"/>
<path d="M189.804 6.20027C189.733 6.20027 189.661 6.23613 189.625 6.272L185.286 10.683C185.178 10.7906 185.178 10.9699 185.286 11.0775C185.393 11.1851 185.573 11.1851 185.68 11.0775L190.02 6.66648C190.127 6.55889 190.127 6.37958 190.02 6.272C189.912 6.23613 189.84 6.20027 189.804 6.20027Z" fill="black"/>
<path d="M290.829 55.0087C290.757 55.0087 290.649 55.0445 290.614 55.1162C290.542 55.2238 290.542 55.4031 290.685 55.4749L295.67 59.0969C295.778 59.1687 295.957 59.1687 296.029 59.0252C296.1 58.9176 296.1 58.7383 295.957 58.6666L290.972 55.0445C290.936 55.0087 290.9 55.0087 290.829 55.0087Z" fill="black"/>
<path d="M305.746 114.325C305.711 114.325 305.675 114.325 305.639 114.361C305.495 114.432 305.459 114.576 305.495 114.719L308.042 120.349C308.113 120.493 308.257 120.529 308.4 120.493C308.544 120.421 308.579 120.278 308.544 120.134L305.997 114.504C305.926 114.361 305.854 114.325 305.746 114.325Z" fill="#9B9DB1"/>
<path d="M26.3101 156.283C26.2384 156.283 26.1666 156.319 26.1308 156.355L21.899 160.838C21.7915 160.945 21.7915 161.125 21.899 161.232C22.0066 161.34 22.1859 161.34 22.2935 161.232L26.5253 156.75C26.6328 156.642 26.6328 156.463 26.5253 156.355C26.4535 156.283 26.3818 156.283 26.3101 156.283Z" fill="black"/>
<path d="M37.6783 108.407C37.6065 108.407 37.5707 108.407 37.5348 108.443C37.4272 108.515 37.3914 108.694 37.4631 108.802L41.1569 113.751C41.2286 113.858 41.4079 113.894 41.5155 113.823C41.6231 113.751 41.659 113.572 41.5872 113.464L37.8934 108.515C37.8576 108.443 37.7859 108.407 37.6783 108.407Z" fill="black"/>
<path d="M8.05533 78.7492C7.94775 78.7492 7.87602 78.7851 7.84016 78.8927L4.6843 84.2002C4.61258 84.3437 4.64844 84.4871 4.79189 84.5589C4.93533 84.6306 5.07878 84.5947 5.15051 84.4513L8.30637 79.1437C8.37809 79.0002 8.34223 78.8568 8.19878 78.7851C8.16292 78.7492 8.12706 78.7492 8.05533 78.7492Z" fill="#9B9DB1"/>
<path d="M32.0468 31.0171C32.0109 31.0171 31.975 31.0171 31.9392 31.0171C31.7957 31.0529 31.724 31.2322 31.7957 31.3757L33.9116 37.1853C33.9474 37.3288 34.1268 37.4005 34.2702 37.3288C34.4136 37.2929 34.4854 37.1136 34.4136 36.9702L32.2978 31.1605C32.2619 31.0888 32.1543 31.0171 32.0468 31.0171Z" fill="#9B9DB1"/>
<path d="M42.2681 -2.55003C42.1605 -2.55003 42.0529 -2.47831 42.0171 -2.37072L40.224 3.54652C40.1881 3.68997 40.2598 3.83342 40.4033 3.86928C40.5467 3.90514 40.6902 3.83342 40.7261 3.68997L42.5192 -2.22727C42.555 -2.37072 42.4833 -2.51417 42.3398 -2.55003C42.304 -2.55003 42.304 -2.55003 42.2681 -2.55003Z" fill="black"/>
<path d="M1.88733 7.92198C1.77974 7.92198 1.70802 7.99371 1.63629 8.06543C1.56457 8.20888 1.63629 8.35233 1.74388 8.42405L7.3025 11.1137C7.44595 11.1854 7.5894 11.1137 7.66112 11.0061C7.73284 10.8627 7.66112 10.7192 7.55353 10.6475L1.99491 7.95784C1.95905 7.92198 1.92319 7.92198 1.88733 7.92198Z" fill="black"/>
<path d="M253.962 137.455C253.89 137.455 253.818 137.491 253.747 137.563C253.639 137.67 253.675 137.85 253.782 137.957L258.624 141.759C258.731 141.866 258.911 141.83 259.018 141.723C259.126 141.615 259.09 141.436 258.982 141.328L254.141 137.527C254.069 137.455 254.033 137.455 253.962 137.455Z" fill="#9B9DB1"/>
<path d="M293.123 169.731C292.944 169.731 292.836 169.875 292.872 170.018L293.267 176.186C293.267 176.33 293.41 176.438 293.553 176.438C293.697 176.438 293.805 176.294 293.805 176.151L293.41 169.982C293.374 169.839 293.267 169.731 293.123 169.731Z" fill="#9B9DB1"/>
<circle r="3.08414" transform="matrix(1 0 0 -1 236.102 161.627)" fill="#E6F8FF"/>
<path fill-rule="evenodd" clip-rule="evenodd" d="M277.953 117.301C278.276 116.656 278.922 116.297 279.603 116.297C279.89 116.297 280.141 116.369 280.428 116.476C281.324 116.942 281.719 118.054 281.253 118.951C281.038 119.417 280.643 119.74 280.177 119.883C279.711 120.027 279.244 119.991 278.778 119.776C278.312 119.56 277.989 119.166 277.846 118.7C277.702 118.234 277.738 117.731 277.953 117.301ZM279.029 119.309C279.209 119.417 279.388 119.453 279.603 119.453C279.747 119.453 279.89 119.417 280.033 119.381C280.356 119.274 280.643 119.058 280.787 118.736C281.109 118.09 280.858 117.301 280.213 116.978C279.567 116.656 278.778 116.907 278.455 117.552C278.312 117.875 278.276 118.234 278.384 118.556C278.491 118.879 278.707 119.166 279.029 119.309Z" fill="#9B9DB1"/>
<path fill-rule="evenodd" clip-rule="evenodd" d="M10.9612 126.948C11.284 126.302 11.9295 125.944 12.6109 125.944C12.8978 125.944 13.1847 126.016 13.4357 126.123C13.9019 126.338 14.2247 126.733 14.3681 127.199C14.5116 127.665 14.4757 128.167 14.2605 128.598C13.7943 129.494 12.6826 129.889 11.7861 129.422C11.3199 129.207 10.9971 128.813 10.8536 128.347C10.7102 127.88 10.7461 127.378 10.9612 126.948ZM12.0371 128.956C12.2164 129.064 12.4316 129.1 12.6109 129.1C13.0771 129.1 13.5433 128.813 13.7943 128.382C13.9378 128.06 13.9736 127.701 13.8661 127.378C13.7585 127.056 13.5433 126.769 13.2205 126.625C12.575 126.302 11.7861 126.553 11.4633 127.199C11.1405 127.844 11.3916 128.633 12.0371 128.956Z" fill="black"/>
<circle r="3.58621" transform="matrix(1 0 0 -1 74.5081 185.69)" fill="#E6F8FF"/>
<circle r="1.7931" transform="matrix(1 0 0 -1 21.1818 58.9178)" fill="#E6F8FF"/>
<path fill-rule="evenodd" clip-rule="evenodd" d="M259.034 188.997C259.076 188.973 259.109 188.954 259.162 188.954C259.269 188.954 259.341 188.989 259.377 189.061L263.501 194.261C263.609 194.405 263.573 194.548 263.465 194.656L258.265 198.78C258.122 198.887 257.978 198.851 257.871 198.744L253.747 193.544C253.639 193.4 253.675 193.257 253.782 193.149L258.982 189.025C259.002 189.016 259.018 189.006 259.034 188.997ZM259.126 189.563L254.32 193.365L258.122 198.17L262.927 194.369L259.126 189.563Z" fill="#9B9DB1"/>
<path fill-rule="evenodd" clip-rule="evenodd" d="M311.109 195.69H194.467C194.13 195.69 193.836 195.396 193.836 195.059V110.467C193.836 110.13 194.13 109.836 194.467 109.836H311.109C311.446 109.836 311.74 110.13 311.74 110.467V195.059C311.74 195.396 311.446 195.69 311.109 195.69Z" fill="#C7C8D9"/>
<mask id="mask1" mask-type="alpha" maskUnits="userSpaceOnUse" x="193" y="109" width="119" height="87">
<path fill-rule="evenodd" clip-rule="evenodd" d="M311.109 195.69H194.467C194.13 195.69 193.836 195.396 193.836 195.059V110.467C193.836 110.13 194.13 109.836 194.467 109.836H311.109C311.446 109.836 311.74 110.13 311.74 110.467V195.059C311.74 195.396 311.446 195.69 311.109 195.69Z" fill="white"/>
</mask>
<g mask="url(#mask1)">
<path d="M194.467 110.467H311.109V194.059H194.467V110.467Z" fill="white"/>
<path fill-rule="evenodd" clip-rule="evenodd" d="M218.538 220.295C218.552 220.237 218.552 220.179 218.567 220.12C218.83 218.091 219.224 216.032 219.647 213.988C219.691 213.798 219.72 213.608 219.764 213.418C219.779 213.36 219.793 213.302 219.808 213.243C219.808 213.214 219.823 213.185 219.823 213.17C220.188 211.462 220.596 209.768 220.991 208.133C221.107 207.622 221.239 207.126 221.356 206.658C221.37 206.6 221.385 206.542 221.399 206.483C221.721 205.301 221.983 204.381 221.983 204.381C222.334 203.213 222.684 202.103 223.035 201.096C224.174 200.687 225.312 200.278 226.451 199.869C226.51 199.84 226.568 199.825 226.626 199.811C226.641 199.796 226.67 199.796 226.685 199.782C226.845 199.723 227.006 199.665 227.167 199.606C229.196 198.876 231.226 198.146 233.24 197.416C233.299 197.402 233.357 197.372 233.416 197.358C235.226 196.701 237.051 196.058 238.862 195.401C238.643 196.54 238.365 197.957 238.044 199.606C238.029 199.665 238.015 199.723 238.015 199.782C237.986 199.957 237.942 200.147 237.913 200.322C237.475 202.629 237.08 204.673 236.745 206.469C236.73 206.527 236.73 206.585 236.715 206.644C236.219 209.316 235.825 211.477 235.518 213.229C235.504 213.287 235.504 213.345 235.489 213.404C234.774 217.536 234.569 219.317 234.569 220.106C234.569 220.179 234.569 220.222 234.569 220.281C234.584 220.587 234.657 220.675 234.73 220.704C234.876 220.748 235.036 220.602 235.226 220.281C235.255 220.222 235.285 220.164 235.328 220.106C235.912 219.011 236.774 216.543 238.088 213.404C238.117 213.345 238.132 213.287 238.161 213.229C238.73 211.9 239.373 210.469 240.117 208.965C240.176 208.849 240.234 208.732 240.293 208.615C240.628 207.958 240.979 207.301 241.344 206.644C241.373 206.585 241.402 206.527 241.446 206.469C242.687 204.235 244.162 201.957 245.899 199.782C245.943 199.723 245.987 199.665 246.045 199.606C246.323 199.271 246.6 198.92 246.892 198.584C246.95 198.511 247.009 198.453 247.067 198.38C247.155 198.278 247.257 198.161 247.345 198.059C248.892 196.336 250.615 194.701 252.572 193.27C252.645 193.211 252.732 193.153 252.805 193.095C252.951 192.992 253.097 192.876 253.258 192.773C253.433 192.657 253.594 192.54 253.769 192.423C253.827 192.379 253.886 192.35 253.944 192.306C256.09 190.89 258.28 189.809 260.266 188.977C260.324 188.948 260.383 188.933 260.441 188.904C260.996 188.671 261.551 188.466 262.077 188.276C262.252 188.218 262.427 188.16 262.588 188.101C262.704 188.057 262.821 188.028 262.938 187.984C262.85 189.693 262.763 191.386 262.675 193.095C262.675 193.153 262.675 193.211 262.661 193.27C262.558 195.372 262.442 197.489 262.339 199.592C262.339 199.65 262.339 199.709 262.325 199.767C262.296 200.234 262.281 200.701 262.252 201.183C262.164 202.95 262.077 204.702 261.974 206.469H263.478C264.69 204.746 265.916 203.008 267.128 201.285C267.143 201.271 267.143 201.256 267.158 201.256C267.201 201.183 267.26 201.11 267.304 201.037C267.596 200.614 267.888 200.19 268.194 199.782C268.238 199.723 268.282 199.665 268.311 199.606C269.8 197.504 271.275 195.401 272.764 193.284C272.808 193.226 272.852 193.168 272.881 193.109C273.217 192.642 273.553 192.16 273.874 191.693C273.932 191.605 273.991 191.532 274.049 191.445C275.246 189.736 276.443 188.043 277.655 186.334C277.787 186.349 277.933 186.364 278.064 186.378C278.152 186.393 278.239 186.393 278.327 186.407C278.4 186.407 278.458 186.422 278.531 186.437C278.648 186.451 278.765 186.466 278.882 186.48C278.94 186.495 279.013 186.495 279.072 186.51C279.174 186.524 279.261 186.539 279.364 186.553C279.393 186.553 279.437 186.568 279.466 186.568C279.539 186.583 279.597 186.583 279.67 186.597C279.743 186.612 279.816 186.612 279.875 186.626C280.021 186.641 280.152 186.67 280.298 186.699C280.444 186.729 280.59 186.743 280.736 186.772C280.794 186.787 280.853 186.787 280.911 186.802C282.182 187.035 283.598 187.371 285.072 187.824C285.905 188.087 286.708 188.379 287.482 188.7C287.54 188.729 287.598 188.744 287.657 188.773C290.299 189.868 292.519 191.211 294.358 192.511C294.417 192.554 294.475 192.598 294.534 192.642C294.753 192.803 294.972 192.963 295.176 193.109C295.249 193.168 295.337 193.226 295.41 193.284C296.972 194.482 298.198 195.606 299.104 196.438C299.819 197.095 300.491 197.752 301.118 198.409C301.177 198.468 301.235 198.526 301.294 198.584C301.615 198.92 301.921 199.256 302.228 199.592C302.286 199.65 302.33 199.709 302.389 199.767C304.389 202.015 305.995 204.279 307.338 206.454C307.367 206.512 307.411 206.571 307.44 206.629C307.63 206.936 307.805 207.228 307.981 207.534C308.039 207.637 308.097 207.739 308.156 207.826C309.251 209.71 310.156 211.52 310.974 213.214C311.003 213.272 311.032 213.331 311.061 213.389C311.164 213.594 311.251 213.784 311.353 213.988C312.39 216.12 313.251 218.178 313.967 220.091C313.996 220.149 314.011 220.208 314.025 220.266C314.361 221.142 314.653 222.004 314.931 222.821C314.989 222.996 315.047 223.186 315.106 223.361C315.485 224.544 315.807 225.654 316.084 226.676H251.506C251.389 226.676 251.301 226.734 251.243 226.836C251.243 226.851 251.228 226.851 251.228 226.866C251.214 226.88 251.214 226.909 251.214 226.939C251.214 226.953 251.214 226.968 251.214 226.968C251.214 226.982 251.214 226.997 251.214 227.012C251.228 227.114 251.301 227.201 251.389 227.245C251.374 227.274 251.36 227.304 251.345 227.333C250.221 229.844 248.761 232.063 247.053 233.932C247.023 233.976 246.98 234.005 246.95 234.049C246.936 234.078 246.907 234.093 246.877 234.122C246.848 234.151 246.819 234.195 246.775 234.224C244.862 236.239 242.658 237.845 240.293 238.94C240.234 238.969 240.176 238.999 240.117 239.013C237.986 239.962 235.723 240.517 233.416 240.59C233.357 240.59 233.299 240.59 233.24 240.59C233.124 240.59 233.021 240.59 232.905 240.59C232.116 240.59 229.444 240.605 226.612 239.597C226.553 239.583 226.495 239.553 226.437 239.539C224.758 238.926 223.049 237.962 221.618 236.414C220.888 235.626 220.29 234.735 219.808 233.786C219.75 233.669 219.691 233.553 219.633 233.421C218.786 231.596 218.362 229.523 218.216 227.304C218.216 227.201 218.202 227.099 218.202 226.982C218.202 226.968 218.202 226.953 218.202 226.939C218.202 226.895 218.202 226.851 218.202 226.807C218.1 224.778 218.246 222.558 218.538 220.295Z" fill="#20AAFF"/>
<path d="M246.659 176.304C248.148 180.684 251.769 184.772 250.046 187.605C249.55 188.422 248.586 189.401 247.725 191.445C247.404 192.189 247.185 193.124 247.112 194.423C247.039 195.825 247.141 197.022 247.331 198.088C248.878 196.365 250.601 194.73 252.558 193.299C252.631 193.241 252.718 193.182 252.791 193.124C252.937 193.022 253.083 192.905 253.244 192.803C253.419 192.686 253.58 192.569 253.755 192.452C253.813 192.408 253.872 192.379 253.93 192.335C256.076 190.919 258.267 189.839 260.252 189.006C260.311 188.977 260.369 188.963 260.427 188.933C261.303 188.568 262.15 188.262 262.91 187.999C262.983 186.583 263.056 185.166 263.129 183.736C260.062 183.706 257.084 182.772 255.273 180.436C253.813 178.552 253.58 176.333 253.58 174.917C252.499 174.464 251.419 174.026 250.338 173.574C251.653 171.164 252.967 168.741 254.281 166.332C254.135 165.689 253.667 163.295 254.324 160.448C256.938 160.01 259.96 157.922 262.063 154.213C262.253 155.571 263.216 161.397 268.443 165.631C269.932 166.828 271.465 167.675 272.984 168.259C273.86 166.507 275.583 165.207 277.685 164.945C281.029 164.536 284.08 166.901 284.489 170.245C284.913 173.588 282.533 176.64 279.189 177.049C278.707 177.107 278.24 177.107 277.773 177.063C277.729 180.144 277.7 183.239 277.656 186.334C278.503 186.422 279.569 186.553 280.751 186.772C280.81 186.787 280.868 186.787 280.927 186.802C282.197 187.035 283.613 187.371 285.088 187.824C285.92 188.087 286.723 188.379 287.497 188.7C287.555 188.729 287.614 188.744 287.672 188.773C290.315 189.868 292.534 191.211 294.374 192.51C294.432 192.554 294.491 192.598 294.549 192.642C294.768 192.803 294.987 192.963 295.191 193.109C295.264 193.168 295.352 193.226 295.425 193.284C296.987 194.482 298.214 195.606 299.119 196.438C299.834 197.095 300.506 197.752 301.134 198.409C301.192 198.468 301.251 198.526 301.309 198.584C301.63 198.92 301.937 199.256 302.243 199.592C302.302 199.65 302.346 199.709 302.404 199.767C304.404 202.015 306.01 204.279 307.354 206.454C307.383 206.512 307.427 206.571 307.456 206.629C307.646 206.936 307.821 207.228 307.996 207.534C308.054 207.637 308.113 207.739 308.171 207.826C309.266 209.71 310.172 211.52 310.989 213.214C311.018 213.272 311.048 213.331 311.077 213.389C311.179 213.594 311.267 213.783 311.369 213.988C312.405 216.12 313.267 218.178 313.982 220.091C314.011 220.149 314.026 220.208 314.041 220.266C314.376 221.142 314.668 222.004 314.946 222.821C315.004 222.996 315.063 223.186 315.121 223.361C315.501 224.544 315.822 225.654 316.099 226.676H317.209V197.007C313.048 196.35 308.741 195.27 306.113 193.533C299.688 189.298 305.967 180.392 302.608 172.8C301.995 171.413 301.309 170.449 300.535 169.704C297.63 166.93 295.148 166.843 292.607 165.207C288.592 162.623 290.052 159.061 286.854 155.118C284.942 152.782 282.284 151.41 279.496 150.636C277.977 148.504 276.094 146.738 273.889 145.468C268.049 142.095 261.931 143.307 261.041 143.496C255.361 144.694 248.426 149.147 248.382 154.578C248.367 155.892 248.762 157.44 249.579 158.623C246.25 163.514 244.703 170.507 246.659 176.304Z" fill="black"/>
<path fill-rule="evenodd" clip-rule="evenodd" d="M254.267 166.361C254.121 165.719 253.653 163.324 254.31 160.477C256.924 160.039 259.946 157.951 262.049 154.243C262.239 155.601 263.202 161.426 268.429 165.66C268.517 165.733 268.59 165.792 268.677 165.85C268.765 165.909 268.838 165.982 268.926 166.04C269.013 166.098 269.086 166.157 269.174 166.23C269.247 166.288 269.32 166.332 269.393 166.39C269.48 166.449 269.568 166.507 269.656 166.566C269.729 166.609 269.787 166.653 269.86 166.697C269.948 166.755 270.035 166.814 270.123 166.872C270.225 166.931 270.313 166.989 270.415 167.047C270.415 167.047 270.429 167.047 270.429 167.062C270.517 167.12 270.605 167.164 270.692 167.223C270.794 167.281 270.882 167.325 270.984 167.383C271.072 167.427 271.159 167.485 271.262 167.529C271.276 167.529 271.291 167.544 271.305 167.544C271.305 167.544 271.305 167.544 271.32 167.544H271.335C271.349 167.544 271.364 167.558 271.378 167.558C271.437 167.588 271.51 167.631 271.568 167.661C271.656 167.704 271.758 167.763 271.86 167.807C271.963 167.85 272.05 167.894 272.152 167.938C272.255 167.982 272.342 168.026 272.444 168.069C272.634 168.157 272.824 168.23 273.014 168.303C274.167 168.756 275.306 169.048 276.386 169.237C276.343 169.778 276.313 170.332 276.313 170.931C276.313 171.063 276.313 171.194 276.313 171.325C276.328 173.019 276.474 174.888 276.722 176.83C276.883 176.757 277.044 176.698 277.204 176.625C277.409 176.538 277.613 176.465 277.803 176.377C277.803 176.611 277.803 176.859 277.788 177.093C277.774 178.085 277.759 179.078 277.744 180.086C277.715 182.174 277.686 184.276 277.671 186.364C276.474 188.072 275.277 189.766 274.065 191.474C274.007 191.562 273.948 191.635 273.89 191.722C273.554 192.19 273.218 192.671 272.897 193.139C272.853 193.197 272.809 193.255 272.78 193.314C271.291 195.416 269.816 197.533 268.327 199.636C268.283 199.694 268.239 199.753 268.21 199.811C267.918 200.234 267.612 200.658 267.32 201.067C267.276 201.14 267.217 201.213 267.174 201.286C267.159 201.3 267.159 201.315 267.144 201.315C265.932 203.038 264.706 204.775 263.494 206.498C263.45 206.556 263.407 206.615 263.377 206.673C262.881 207.374 262.385 208.09 261.888 208.79C261.917 208.09 261.961 207.374 261.99 206.673C261.99 206.615 261.99 206.556 262.005 206.498C262.093 204.731 262.18 202.979 262.282 201.213C262.312 200.745 262.326 200.278 262.355 199.796C262.355 199.738 262.355 199.68 262.37 199.621C262.472 197.519 262.589 195.416 262.691 193.299C262.691 193.241 262.691 193.182 262.706 193.124C262.793 191.416 262.881 189.722 262.969 188.014C263.042 186.597 263.115 185.181 263.188 183.75H263.246C263.158 183.75 263.085 183.75 262.998 183.75C262.896 183.75 262.793 183.75 262.691 183.736C262.589 183.736 262.487 183.721 262.385 183.721C262.341 183.721 262.282 183.721 262.239 183.707C262.224 183.707 262.209 183.707 262.195 183.707C262.18 183.707 262.166 183.707 262.136 183.707C262.122 183.707 262.107 183.707 262.093 183.707C262.005 183.707 261.903 183.692 261.815 183.677C261.713 183.663 261.625 183.663 261.538 183.648C261.509 183.648 261.479 183.634 261.436 183.634C261.406 183.634 261.377 183.619 261.333 183.619C261.246 183.604 261.158 183.59 261.071 183.575C260.998 183.561 260.91 183.546 260.837 183.531C260.822 183.531 260.822 183.531 260.808 183.531C260.749 183.517 260.691 183.517 260.632 183.502C260.516 183.473 260.399 183.458 260.282 183.429C260.224 183.415 260.151 183.4 260.092 183.385C259.902 183.342 259.713 183.283 259.537 183.239C259.464 183.21 259.377 183.196 259.304 183.166C259.216 183.137 259.129 183.108 259.041 183.079C258.953 183.05 258.866 183.02 258.778 182.991C258.691 182.962 258.603 182.918 258.53 182.889C258.457 182.86 258.369 182.816 258.282 182.772C258.194 182.743 258.121 182.699 258.034 182.655C257.946 182.612 257.844 182.553 257.756 182.509C257.712 182.48 257.654 182.451 257.61 182.422C257.566 182.393 257.523 182.378 257.479 182.349C257.435 182.32 257.377 182.29 257.333 182.261C257.26 182.217 257.187 182.174 257.114 182.115C257.041 182.071 256.968 182.013 256.895 181.969C256.836 181.925 256.763 181.882 256.705 181.823C256.69 181.809 256.69 181.809 256.676 181.794C256.676 181.794 256.661 181.779 256.647 181.779C256.588 181.736 256.53 181.692 256.486 181.648C256.471 181.633 256.457 181.619 256.442 181.619C256.384 181.575 256.325 181.517 256.267 181.473C256.194 181.414 256.136 181.356 256.063 181.297C256.004 181.239 255.931 181.166 255.873 181.108C255.829 181.064 255.771 181.005 255.727 180.962C255.698 180.918 255.654 180.889 255.624 180.845C255.624 180.845 255.624 180.845 255.61 180.83L255.595 180.816L255.581 180.801C255.551 180.772 255.522 180.728 255.493 180.699L255.478 180.684C255.435 180.626 255.391 180.567 255.332 180.509C253.872 178.626 253.639 176.406 253.639 174.99C252.558 174.537 251.478 174.099 250.398 173.647C251.639 171.194 252.953 168.77 254.267 166.361Z" fill="#FFF1F2"/>
<path d="M264.736 183.648C266.167 183.736 267.583 183.531 268.941 183.035C271.657 182.056 273.453 180.173 274.475 178.757C274.518 178.698 274.518 178.596 274.46 178.552C274.402 178.509 274.329 178.509 274.27 178.582C273.263 179.954 271.496 181.808 268.853 182.757C267.539 183.239 266.152 183.429 264.751 183.356C264.678 183.356 264.619 183.414 264.605 183.487C264.605 183.56 264.663 183.633 264.736 183.648Z" fill="black"/>
<circle r="0.934435" transform="matrix(-1 0 0 1 256.587 166.595)" fill="black"/>
<ellipse rx="2.65731" ry="0.642426" transform="matrix(-0.969397 -0.245499 -0.245499 0.969397 257.903 162.49)" fill="black"/>
<path fill-rule="evenodd" clip-rule="evenodd" d="M272.969 168.288C273.845 166.536 275.568 165.236 277.671 164.974C281.014 164.565 284.066 166.93 284.475 170.274C284.898 173.617 282.518 176.669 279.175 177.078C278.693 177.136 278.226 177.136 277.758 177.092C275.013 176.8 272.721 174.639 272.371 171.778C272.21 170.536 272.444 169.325 272.969 168.288Z" fill="#FFF1F2"/>
<path d="M276.824 174.537C276.838 174.537 276.853 174.537 276.868 174.537C277.802 174.245 278.342 173.282 278.109 172.376C277.919 171.646 277.291 171.121 276.546 171.048L279.992 167.018C280.051 166.96 280.036 166.857 279.978 166.814C279.919 166.755 279.817 166.77 279.773 166.828L276.123 171.092C276.079 171.135 276.079 171.194 276.108 171.252C276.138 171.311 276.196 171.34 276.254 171.34C276.999 171.296 277.656 171.778 277.831 172.464C278.021 173.223 277.554 174.041 276.78 174.289C276.707 174.318 276.663 174.391 276.692 174.479C276.707 174.493 276.765 174.537 276.824 174.537Z" fill="black"/>
<path d="M261.843 208.936C261.887 208.936 261.93 208.907 261.96 208.878L274.078 191.678C274.122 191.605 274.107 191.518 274.049 191.474C273.976 191.43 273.888 191.445 273.844 191.503L262.018 208.294L262.763 193.226C262.763 193.138 262.704 193.08 262.631 193.08C262.558 193.08 262.485 193.138 262.485 193.226L261.711 208.805C261.711 208.863 261.755 208.921 261.814 208.951C261.814 208.921 261.828 208.936 261.843 208.936Z" fill="black"/>
<path d="M257.837 178.208C258.017 178.208 258.197 178.178 258.377 178.148C259.637 177.878 260.477 176.828 260.867 176.228C260.897 176.168 260.897 176.078 260.807 176.018C260.747 175.988 260.657 175.988 260.597 176.078C260.297 176.528 259.517 177.608 258.317 177.878C256.817 178.178 255.797 177.008 255.497 176.618C255.437 176.558 255.347 176.528 255.287 176.588C255.227 176.648 255.197 176.738 255.257 176.798C255.527 177.128 256.487 178.208 257.837 178.208Z" fill="black"/>
<path fill-rule="evenodd" clip-rule="evenodd" d="M239.696 178.309C239.816 178.309 239.906 178.279 239.996 178.189C240.146 178.069 240.176 177.859 240.116 177.679L234.266 164.359C236.936 161.809 238.286 158.869 238.166 155.809C238.016 151.939 235.496 148.429 231.116 145.909C226.796 143.419 221.126 142.189 215.156 142.429C202.796 142.939 192.986 149.749 193.286 157.639C193.436 161.509 195.956 165.019 200.336 167.539C204.656 170.029 210.326 171.259 216.296 171.019C219.296 170.899 222.176 170.419 224.906 169.579L239.486 178.249C239.546 178.279 239.606 178.309 239.696 178.309ZM216.596 143.329C221.846 143.329 226.796 144.529 230.636 146.719C234.746 149.089 237.116 152.329 237.236 155.869C237.356 158.719 236.036 161.509 233.396 163.939C233.246 164.059 233.216 164.269 233.276 164.449L238.706 176.749L225.176 168.709C225.056 168.649 224.936 168.619 224.816 168.679C222.116 169.519 219.236 170.029 216.266 170.149C210.476 170.389 204.986 169.189 200.786 166.789C196.676 164.419 194.306 161.179 194.186 157.639C193.886 150.259 203.306 143.869 215.186 143.389C215.636 143.359 216.116 143.329 216.596 143.329Z" fill="#4ED77B"/>
<path d="M213.145 160.909C213.385 162.439 213.625 163.969 213.865 165.499C215.245 164.299 216.625 163.099 217.975 161.899C219.565 162.559 221.125 163.249 222.715 163.909C222.085 162.319 221.485 160.699 220.855 159.109C222.385 158.749 223.945 158.389 225.475 158.029C223.735 157.159 221.995 156.289 220.285 155.419C220.705 153.559 221.095 151.699 221.515 149.839C219.955 150.979 218.395 152.149 216.835 153.289C215.755 151.669 214.675 150.049 213.565 148.429C213.295 150.259 213.025 152.089 212.725 153.889C210.925 153.679 209.155 153.439 207.355 153.229C208.465 154.549 209.605 155.899 210.715 157.219C209.605 158.479 208.495 159.769 207.355 161.029C209.305 160.999 211.225 160.939 213.145 160.909Z" fill="#8169EE"/>
<path fill-rule="evenodd" clip-rule="evenodd" d="M311.109 125.015H194.467C194.13 125.015 193.836 124.721 193.836 124.385C193.836 124.048 194.13 123.754 194.467 123.754H311.109C311.446 123.754 311.74 124.048 311.74 124.385C311.74 124.721 311.446 125.015 311.109 125.015Z" fill="#4ED77B"/>
<path fill-rule="evenodd" clip-rule="evenodd" d="M215.028 121.694C212.757 121.694 210.865 119.844 210.865 117.531C210.865 115.26 212.715 113.368 215.028 113.368C217.341 113.368 219.191 115.218 219.191 117.531C219.191 119.844 217.299 121.694 215.028 121.694ZM215.028 114.672C213.43 114.672 212.127 115.975 212.127 117.573C212.127 119.171 213.43 120.474 215.028 120.474C216.626 120.474 217.929 119.171 217.929 117.573C217.929 115.933 216.626 114.672 215.028 114.672Z" fill="#4ED77B"/>
<path fill-rule="evenodd" clip-rule="evenodd" d="M226.675 121.694C224.404 121.694 222.512 119.844 222.512 117.531C222.512 115.26 224.362 113.368 226.675 113.368C228.945 113.368 230.837 115.218 230.837 117.531C230.837 119.844 228.987 121.694 226.675 121.694ZM226.675 114.672C225.077 114.672 223.773 115.975 223.773 117.573C223.773 119.171 225.077 120.474 226.675 120.474C228.272 120.474 229.576 119.171 229.576 117.573C229.576 115.933 228.272 114.672 226.675 114.672Z" fill="#4ED77B"/>
<path fill-rule="evenodd" clip-rule="evenodd" d="M311.109 195.69H194.467C194.13 195.69 193.836 195.396 193.836 195.059V110.467C193.836 110.13 194.13 109.836 194.467 109.836H311.109C311.446 109.836 311.74 110.13 311.74 110.467V195.059C311.74 195.396 311.446 195.69 311.109 195.69ZM195.097 194.428H310.479V111.097H195.097V194.428Z" fill="#4ED77B"/>
</g>
<rect x="0.732422" y="0.841309" width="139.096" height="99.655" fill="white"/>
<path fill-rule="evenodd" clip-rule="evenodd" d="M139.787 101.127H0.73229C0.395902 101.127 0.101562 100.833 0.101562 100.496V0.841177C0.101562 0.504789 0.395902 0.210449 0.73229 0.210449H139.829C140.165 0.210449 140.46 0.504789 140.46 0.841177V100.496C140.417 100.875 140.165 101.127 139.787 101.127ZM1.36302 99.8654H139.198V1.4719H1.36302V99.8654Z" fill="#4ED77B"/>
<rect x="0.732422" y="0.841309" width="139.096" height="99.655" fill="white"/>
<path fill-rule="evenodd" clip-rule="evenodd" d="M139.787 101.127H0.73229C0.395902 101.127 0.101562 100.833 0.101562 100.496V0.841177C0.101562 0.504789 0.395902 0.210449 0.73229 0.210449H139.829C140.165 0.210449 140.46 0.504789 140.46 0.841177V100.496C140.417 100.875 140.165 101.127 139.787 101.127ZM1.36302 99.8654H139.198V1.4719H1.36302V99.8654Z" fill="#4ED77B"/>
<path fill-rule="evenodd" clip-rule="evenodd" d="M139.787 18.0813H0.73229C0.395902 18.0813 0.101562 17.7869 0.101562 17.4506C0.101562 17.1142 0.395902 16.8198 0.73229 16.8198H139.787C140.123 16.8198 140.417 17.1142 140.417 17.4506C140.417 17.7869 140.165 18.0813 139.787 18.0813Z" fill="#4ED77B"/>
<path fill-rule="evenodd" clip-rule="evenodd" d="M11.2868 14.0867C8.63769 14.0867 6.45117 11.9002 6.45117 9.25111C6.45117 6.60205 8.63769 4.41553 11.2868 4.41553C13.9358 4.41553 16.1223 6.60205 16.1223 9.25111C16.1223 11.9002 13.9779 14.0867 11.2868 14.0867ZM11.2868 5.71903C9.31047 5.71903 7.71263 7.31687 7.71263 9.29316C7.71263 11.2694 9.31047 12.8673 11.2868 12.8673C13.263 12.8673 14.8609 11.2694 14.8609 9.29316C14.8609 7.31687 13.263 5.71903 11.2868 5.71903Z" fill="#4ED77B"/>
<path fill-rule="evenodd" clip-rule="evenodd" d="M25.2047 14.0867C22.5557 14.0867 20.3691 11.9002 20.3691 9.25111C20.3691 6.60205 22.5557 4.41553 25.2047 4.41553C27.8538 4.41553 30.0403 6.60205 30.0403 9.25111C30.0403 11.9002 27.8958 14.0867 25.2047 14.0867ZM25.2047 5.71903C23.2284 5.71903 21.6306 7.31687 21.6306 9.29316C21.6306 11.2694 23.2284 12.8673 25.2047 12.8673C27.181 12.8673 28.7788 11.2694 28.7788 9.29316C28.7788 7.31687 27.181 5.71903 25.2047 5.71903Z" fill="#4ED77B"/>
<path fill-rule="evenodd" clip-rule="evenodd" d="M39.1227 14.0867C36.4736 14.0867 34.2871 11.9002 34.2871 9.25111C34.2871 6.60205 36.4736 4.41553 39.1227 4.41553C41.7717 4.41553 43.9583 6.60205 43.9583 9.25111C43.9583 11.9002 41.8138 14.0867 39.1227 14.0867ZM39.1227 5.71903C37.1464 5.71903 35.5486 7.31687 35.5486 9.29316C35.5486 11.2694 37.1464 12.8673 39.1227 12.8673C41.099 12.8673 42.6968 11.2694 42.6968 9.29316C42.6968 7.31687 41.099 5.71903 39.1227 5.71903Z" fill="#4ED77B"/>
<path fill-rule="evenodd" clip-rule="evenodd" d="M59.3689 74.6844C59.2489 74.6844 59.1589 74.6544 59.0689 74.5644C58.9189 74.4444 58.8889 74.2344 58.9489 74.0544L64.7989 60.7344C62.1289 58.1844 60.7789 55.2444 60.8989 52.1844C61.0489 48.3144 63.5689 44.8044 67.9489 42.2844C72.2689 39.7944 77.9389 38.5644 83.9089 38.8044C96.2689 39.3144 106.079 46.1244 105.779 54.0144C105.629 57.8844 103.109 61.3944 98.7289 63.9144C94.4089 66.4044 88.7389 67.6344 82.7689 67.3944C79.7689 67.2744 76.8889 66.7944 74.1589 65.9544L59.5789 74.6244C59.5189 74.6544 59.4589 74.6844 59.3689 74.6844ZM82.4689 39.7044C77.2189 39.7044 72.2689 40.9044 68.4289 43.0944C64.3189 45.4644 61.9489 48.7044 61.8289 52.2444C61.7089 55.0944 63.0289 57.8844 65.6689 60.3144C65.8189 60.4344 65.8489 60.6444 65.7889 60.8244L60.3589 73.1244L73.8889 65.0844C74.0089 65.0244 74.1289 64.9944 74.2489 65.0544C76.9489 65.8944 79.8289 66.4044 82.7989 66.5244C88.5889 66.7644 94.0789 65.5644 98.2789 63.1644C102.389 60.7944 104.759 57.5544 104.879 54.0144C105.179 46.6344 95.7589 40.2444 83.8789 39.7644C83.4289 39.7344 82.9489 39.7044 82.4689 39.7044Z" fill="#4ED77B"/>
<path d="M85.9198 57.2842C85.6798 58.8142 85.4398 60.3442 85.1998 61.8742C83.8198 60.6742 82.4398 59.4742 81.0898 58.2742C79.4998 58.9342 77.9398 59.6242 76.3498 60.2842C76.9798 58.6942 77.5798 57.0742 78.2098 55.4842C76.6798 55.1242 75.1198 54.7642 73.5898 54.4042C75.3298 53.5342 77.0698 52.6642 78.7798 51.7942C78.3598 49.9342 77.9698 48.0742 77.5498 46.2142C79.1098 47.3542 80.6698 48.5242 82.2298 49.6642C83.3098 48.0442 84.3898 46.4242 85.4998 44.8042C85.7698 46.6342 86.0398 48.4642 86.3398 50.2642C88.1398 50.0542 89.9098 49.8142 91.7098 49.6042C90.5998 50.9242 89.4598 52.2742 88.3498 53.5942C89.4598 54.8542 90.5698 56.1442 91.7098 57.4042C89.7598 57.3742 87.8398 57.3142 85.9198 57.2842Z" fill="#8169EE"/>
<path d="M51.7576 73.6342C51.6976 74.7442 51.3376 77.9542 48.8476 80.7742C47.2876 82.5142 45.5776 83.3842 44.5276 83.8042C44.6776 84.1942 44.7976 84.5842 44.9176 84.9742C45.9676 88.9042 45.0676 92.7142 42.5776 94.6942C40.2376 96.5542 37.1776 96.2242 36.2176 96.1042C35.5576 96.0442 31.1176 95.5342 28.6576 91.9042C27.4576 90.1342 27.1576 88.2142 27.0676 87.7042C26.9176 86.7142 27.0076 86.2042 27.0376 84.7642C27.0976 82.5442 27.0076 80.9542 26.8276 78.3142C26.7976 78.0142 26.7976 77.7142 26.7676 77.3842C26.7976 77.3842 26.8276 77.3542 26.8276 77.3542C29.7676 75.9442 31.0276 72.4942 29.7976 69.5242C30.9676 67.3642 30.6676 64.0342 30.4276 60.2842C30.1276 55.3342 29.9776 52.8442 30.4876 52.3342C32.5576 50.1742 37.0876 53.8042 43.0276 51.9142C45.4276 51.1642 47.1376 49.7842 48.1276 48.8242C48.5176 49.7242 48.7876 50.6242 49.0276 51.4942C51.3976 59.7742 51.6976 69.8242 51.7576 73.6342Z" fill="#F73D9E"/>
<path d="M44.6195 68.3844C44.5595 68.3844 44.5295 68.3544 44.4995 68.3244C44.4695 68.2644 44.4695 68.1744 44.5595 68.1144L48.0995 65.9244L43.7495 59.7744C43.6895 59.7144 43.7195 59.6244 43.7795 59.5644C43.8395 59.5044 43.9295 59.5344 43.9895 59.5944L48.4295 65.8944C48.4595 65.9244 48.4595 65.9844 48.4595 66.0144C48.4595 66.0444 48.4295 66.1044 48.3995 66.1044L44.7095 68.3844C44.6795 68.3544 44.6495 68.3844 44.6195 68.3844Z" fill="black"/>
<circle cx="47.6495" cy="59.9541" r="0.96" fill="black"/>
<circle cx="37.7491" cy="61.544" r="0.96" fill="black"/>
<path d="M44.7081 78.2543C44.5281 78.2543 44.3481 78.2243 44.1681 78.1943C42.9081 77.9243 42.0681 76.8743 41.6781 76.2743C41.6481 76.2143 41.6481 76.1243 41.7381 76.0643C41.7981 76.0343 41.8881 76.0343 41.9481 76.1243C42.2481 76.5743 43.0281 77.6543 44.2281 77.9243C45.7281 78.2243 46.7481 77.0543 47.0481 76.6643C47.1081 76.6043 47.1981 76.5743 47.2581 76.6343C47.3181 76.6943 47.3481 76.7843 47.2881 76.8443C47.0181 77.1743 46.0581 78.2543 44.7081 78.2543Z" fill="black"/>
<ellipse cx="47.8599" cy="55.5459" rx="3.00005" ry="0.750013" transform="rotate(-0.336156 47.8599 55.5459)" fill="#003FFF"/>
<ellipse cx="37.4153" cy="57.9731" rx="2.99993" ry="0.749983" transform="rotate(-27.6721 37.4153 57.9731)" fill="#003FFF"/>
<path d="M51.4577 72.2242C51.6677 72.4342 53.7677 74.3842 53.2877 75.1942C52.9577 75.7942 51.1577 75.7942 45.1577 73.5442C38.7077 75.4642 36.8777 75.3142 36.5777 74.6842C36.1877 73.9042 38.0777 72.2242 38.9477 71.5642C41.4677 69.6442 44.3177 69.6442 45.3077 69.7042C46.2077 69.7042 49.1177 69.9742 51.4577 72.2242Z" fill="#003FFF"/>
<path d="M40.7783 84.5544C37.0583 84.5544 34.2083 82.8144 32.8283 81.7644C32.7683 81.7044 32.7383 81.6144 32.7983 81.5544C32.8583 81.4944 32.9483 81.4644 33.0083 81.5244C34.3883 82.5744 37.2383 84.3144 40.9883 84.2544C42.1583 84.2244 43.3583 84.0444 44.4983 83.6544C44.5883 83.6244 44.6483 83.6844 44.6783 83.7444C44.7083 83.8344 44.6483 83.8944 44.5883 83.9244C43.4183 84.3144 42.2183 84.4944 40.9883 84.5244C40.9283 84.5544 40.8383 84.5544 40.7783 84.5544Z" fill="black"/>
<path d="M45.2793 43.7243C42.9393 41.3843 40.2093 40.8443 38.9793 40.6043C33.8793 39.5843 27.8493 41.5043 23.9493 45.4643C17.1993 52.3043 16.8693 65.1443 22.7493 69.8243C23.7093 70.5743 24.7293 71.0543 25.7493 71.3543C25.8993 71.4143 26.0493 71.4443 26.1993 71.4743C27.0393 71.6843 27.8493 71.7743 28.5393 71.8343C28.5393 71.8343 29.6793 69.7643 29.8293 69.5243C30.9993 67.3643 30.6993 64.0343 30.4593 60.2843C30.1593 55.3343 30.0093 52.8443 30.5193 52.3343C32.5893 50.1743 37.1193 53.8043 43.0593 51.9143C45.4593 51.1643 47.1693 49.7843 48.1593 48.8243C47.8893 47.7143 47.1693 45.6143 45.2793 43.7243Z" fill="#003FFF"/>
<path d="M29.7985 69.5245C29.7385 69.4045 29.7085 69.2845 29.6485 69.1945C28.1785 66.1645 24.5185 64.8745 21.4885 66.3745C18.4585 67.8445 17.1985 71.5045 18.6685 74.5345C20.1385 77.5345 23.7385 78.8245 26.7685 77.3845C26.7985 77.3845 26.8285 77.3545 26.8285 77.3545C29.7685 75.9445 31.0285 72.4945 29.7985 69.5245Z" fill="#F73D9E"/>
<path d="M26.9194 71.8947C26.9194 71.9547 26.8894 71.9847 26.8594 72.0147C26.8594 72.0147 26.5594 72.1947 26.3194 72.5247C26.1994 72.7047 26.1094 72.8847 26.0794 73.1247C26.0494 73.4847 26.1994 73.8747 26.5294 74.2647C26.5894 74.3547 26.6794 74.4447 26.7994 74.5347C26.8594 74.5947 26.8594 74.6847 26.7994 74.7447C26.7694 74.7747 26.7394 74.8047 26.6794 74.8047C26.6194 74.8047 26.6194 74.8047 26.5894 74.7747C26.0194 74.2347 25.7494 73.6647 25.8094 73.1247C25.8694 72.7047 26.0794 72.3747 26.2894 72.1347C26.3794 72.0147 26.4994 71.9547 26.5594 71.8947L26.2294 71.5347L22.7794 67.9947C22.7194 67.9347 22.7194 67.8447 22.7794 67.7847C22.8394 67.7247 22.9294 67.7247 22.9894 67.7847L26.7694 71.6547L26.9194 71.8047C26.8894 71.8047 26.9194 71.8347 26.9194 71.8947Z" fill="black"/>
<path d="M78.3383 99.8544C52.6283 99.8544 26.9483 99.8544 1.23828 99.8544C1.23828 98.0544 1.23828 96.2844 1.23828 94.4844C3.93828 92.6844 7.29828 90.7944 11.2883 89.0844C17.2883 86.5344 22.7483 85.3344 27.0383 84.7344C26.8883 85.5744 26.7383 87.1344 27.2483 88.9644C27.3683 89.3844 27.7583 90.6144 28.6583 91.9044C31.2683 95.5644 35.7683 96.0744 36.2183 96.1044C37.1783 96.2244 40.2383 96.5544 42.5783 94.6944C45.0683 92.7144 45.9683 88.9044 44.9183 84.9744C46.3583 85.1844 47.8583 85.4544 49.3583 85.7844C61.5383 88.4544 71.1683 94.1844 78.3383 99.8544Z" fill="#00B7EA"/>
<path d="M34.7486 95.9843H34.7186C25.1486 93.3743 26.8586 84.8243 26.8886 84.7343C26.9186 84.6443 26.9786 84.6143 27.0686 84.6143C27.1586 84.6443 27.1886 84.7043 27.1886 84.7943C27.1286 85.1243 25.5086 93.1643 34.8086 95.7143C34.8986 95.7443 34.9286 95.8043 34.9286 95.8943C34.8686 95.9543 34.8086 95.9843 34.7486 95.9843Z" fill="#1F0D60"/>
<path fill-rule="evenodd" clip-rule="evenodd" d="M51.7576 73.6342C51.6976 74.7442 51.3376 77.9542 48.8476 80.7742C47.2876 82.5142 45.5776 83.3842 44.5276 83.8042C44.6776 84.1942 44.7976 84.5842 44.9176 84.9742C45.9676 88.9042 45.0676 92.7142 42.5776 94.6942C40.2376 96.5542 37.1776 96.2242 36.2176 96.1042C35.5576 96.0442 31.1176 95.5342 28.6576 91.9042C27.4576 90.1342 27.1576 88.2142 27.0676 87.7042C26.9176 86.7142 27.0076 86.2042 27.0376 84.7642C27.0976 82.5442 27.0076 80.9542 26.8276 78.3142C26.7976 78.0142 26.7976 77.7142 26.7676 77.3842C26.7976 77.3842 26.8276 77.3542 26.8276 77.3542C29.7676 75.9442 31.0276 72.4942 29.7976 69.5242C30.9676 67.3642 30.6676 64.0342 30.4276 60.2842C30.1276 55.3342 29.9776 52.8442 30.4876 52.3342C32.5576 50.1742 37.0876 53.8042 43.0276 51.9142C45.4276 51.1642 47.1376 49.7842 48.1276 48.8242C48.5176 49.7242 48.7876 50.6242 49.0276 51.4942C51.3976 59.7742 51.6976 69.8242 51.7576 73.6342Z" fill="#FFF1F2"/>
<path fill-rule="evenodd" clip-rule="evenodd" d="M44.6195 68.3844C44.5595 68.3844 44.5295 68.3544 44.4995 68.3244C44.4695 68.2644 44.4695 68.1744 44.5595 68.1144L48.0995 65.9244L43.7495 59.7744C43.6895 59.7144 43.7195 59.6244 43.7795 59.5644C43.8395 59.5044 43.9295 59.5344 43.9895 59.5944L48.4295 65.8944C48.4595 65.9244 48.4595 65.9844 48.4595 66.0144C48.4595 66.0444 48.4295 66.1044 48.3995 66.1044L44.7095 68.3844C44.6795 68.3544 44.6495 68.3844 44.6195 68.3844Z" fill="black"/>
<circle cx="47.6495" cy="59.9541" r="0.96" fill="black"/>
<circle cx="37.7491" cy="61.544" r="0.96" fill="black"/>
<path fill-rule="evenodd" clip-rule="evenodd" d="M44.7081 78.2543C44.5281 78.2543 44.3481 78.2243 44.1681 78.1943C42.9081 77.9243 42.0681 76.8743 41.6781 76.2743C41.6481 76.2143 41.6481 76.1243 41.7381 76.0643C41.7981 76.0343 41.8881 76.0343 41.9481 76.1243C42.2481 76.5743 43.0281 77.6543 44.2281 77.9243C45.7281 78.2243 46.7481 77.0543 47.0481 76.6643C47.1081 76.6043 47.1981 76.5743 47.2581 76.6343C47.3181 76.6943 47.3481 76.7843 47.2881 76.8443C47.0181 77.1743 46.0581 78.2543 44.7081 78.2543Z" fill="black"/>
<ellipse cx="47.8599" cy="55.5459" rx="3.00005" ry="0.750013" transform="rotate(-0.336156 47.8599 55.5459)" fill="black"/>
<ellipse cx="37.4153" cy="57.9731" rx="2.99993" ry="0.749983" transform="rotate(-27.6721 37.4153 57.9731)" fill="black"/>
<path fill-rule="evenodd" clip-rule="evenodd" d="M51.4577 72.2242C51.6677 72.4342 53.7677 74.3842 53.2877 75.1942C52.9577 75.7942 51.1577 75.7942 45.1577 73.5442C38.7077 75.4642 36.8777 75.3142 36.5777 74.6842C36.1877 73.9042 38.0777 72.2242 38.9477 71.5642C41.4677 69.6442 44.3177 69.6442 45.3077 69.7042C46.2077 69.7042 49.1177 69.9742 51.4577 72.2242Z" fill="black"/>
<path fill-rule="evenodd" clip-rule="evenodd" d="M40.7783 84.5544C37.0583 84.5544 34.2083 82.8144 32.8283 81.7644C32.7683 81.7044 32.7383 81.6144 32.7983 81.5544C32.8583 81.4944 32.9483 81.4644 33.0083 81.5244C34.3883 82.5744 37.2383 84.3144 40.9883 84.2544C42.1583 84.2244 43.3583 84.0444 44.4983 83.6544C44.5883 83.6244 44.6483 83.6844 44.6783 83.7444C44.7083 83.8344 44.6483 83.8944 44.5883 83.9244C43.4183 84.3144 42.2183 84.4944 40.9883 84.5244C40.9283 84.5544 40.8383 84.5544 40.7783 84.5544Z" fill="black"/>
<path fill-rule="evenodd" clip-rule="evenodd" d="M45.2793 43.7243C42.9393 41.3843 40.2093 40.8443 38.9793 40.6043C33.8793 39.5843 27.8493 41.5043 23.9493 45.4643C17.1993 52.3043 16.8693 65.1443 22.7493 69.8243C23.7093 70.5743 24.7293 71.0543 25.7493 71.3543C25.8993 71.4143 26.0493 71.4443 26.1993 71.4743C27.0393 71.6843 27.8493 71.7743 28.5393 71.8343C28.5393 71.8343 29.6793 69.7643 29.8293 69.5243C30.9993 67.3643 30.6993 64.0343 30.4593 60.2843C30.1593 55.3343 30.0093 52.8443 30.5193 52.3343C32.5893 50.1743 37.1193 53.8043 43.0593 51.9143C45.4593 51.1643 47.1693 49.7843 48.1593 48.8243C47.8893 47.7143 47.1693 45.6143 45.2793 43.7243Z" fill="black"/>
<path fill-rule="evenodd" clip-rule="evenodd" d="M29.7985 69.5245C29.7385 69.4045 29.7085 69.2845 29.6485 69.1945C28.1785 66.1645 24.5185 64.8745 21.4885 66.3745C18.4585 67.8445 17.1985 71.5045 18.6685 74.5345C20.1385 77.5345 23.7385 78.8245 26.7685 77.3845C26.7985 77.3845 26.8285 77.3545 26.8285 77.3545C29.7685 75.9445 31.0285 72.4945 29.7985 69.5245Z" fill="#FFF1F2"/>
<path fill-rule="evenodd" clip-rule="evenodd" d="M26.9194 71.8947C26.9194 71.9547 26.8894 71.9847 26.8594 72.0147C26.8594 72.0147 26.5594 72.1947 26.3194 72.5247C26.1994 72.7047 26.1094 72.8847 26.0794 73.1247C26.0494 73.4847 26.1994 73.8747 26.5294 74.2647C26.5894 74.3547 26.6794 74.4447 26.7994 74.5347C26.8594 74.5947 26.8594 74.6847 26.7994 74.7447C26.7694 74.7747 26.7394 74.8047 26.6794 74.8047C26.6194 74.8047 26.6194 74.8047 26.5894 74.7747C26.0194 74.2347 25.7494 73.6647 25.8094 73.1247C25.8694 72.7047 26.0794 72.3747 26.2894 72.1347C26.3794 72.0147 26.4994 71.9547 26.5594 71.8947L26.2294 71.5347L22.7794 67.9947C22.7194 67.9347 22.7194 67.8447 22.7794 67.7847C22.8394 67.7247 22.9294 67.7247 22.9894 67.7847L26.7694 71.6547L26.9194 71.8047C26.8894 71.8047 26.9194 71.8347 26.9194 71.8947Z" fill="black"/>
<path fill-rule="evenodd" clip-rule="evenodd" d="M78.3383 99.8544C52.6283 99.8544 26.9483 99.8544 1.23828 99.8544C1.23828 98.0544 1.23828 96.2844 1.23828 94.4844C3.93828 92.6844 7.29828 90.7944 11.2883 89.0844C17.2883 86.5344 22.7483 85.3344 27.0383 84.7344C26.8883 85.5744 26.7383 87.1344 27.2483 88.9644C27.3683 89.3844 27.7583 90.6144 28.6583 91.9044C31.2683 95.5644 35.7683 96.0744 36.2183 96.1044C37.1783 96.2244 40.2383 96.5544 42.5783 94.6944C45.0683 92.7144 45.9683 88.9044 44.9183 84.9744C46.3583 85.1844 47.8583 85.4544 49.3583 85.7844C61.5383 88.4544 71.1683 94.1844 78.3383 99.8544Z" fill="#20AAFF"/>
<path fill-rule="evenodd" clip-rule="evenodd" d="M34.7486 95.9843H34.7186C25.1486 93.3743 26.8586 84.8243 26.8886 84.7343C26.9186 84.6443 26.9786 84.6143 27.0686 84.6143C27.1586 84.6443 27.1886 84.7043 27.1886 84.7943C27.1286 85.1243 25.5086 93.1643 34.8086 95.7143C34.8986 95.7443 34.9286 95.8043 34.9286 95.8943C34.8686 95.9543 34.8086 95.9843 34.7486 95.9843Z" fill="black"/>
<path d="M173.154 30.487C171.515 29.6039 163.399 25.1468 154.359 26.8708C153.77 26.9969 153.181 27.1231 152.593 27.2913L150.743 27.88C137.581 32.8417 127.153 50.3339 127.111 72.7037C135.689 74.4697 149.986 76.2778 166.847 72.5355C177.065 70.2649 185.264 66.6487 191.277 63.411C191.277 62.2336 190.689 40.1161 173.154 30.487Z" fill="black"/>
<path fill-rule="evenodd" clip-rule="evenodd" d="M175.552 38.3081C175.342 37.8876 175.131 37.5092 175.131 37.5092C173.113 38.0138 170.001 38.3922 166.596 37.1307C162.727 35.659 160.667 32.7997 159.952 31.7485C160.036 32.7997 160.751 41.3776 154.233 47.3485C150.449 50.8386 146.076 51.6795 144.1 51.9318C144.184 52.1841 144.226 52.4364 144.31 52.7307C144.52 53.5297 144.814 54.2445 144.814 54.2445C144.814 54.2445 145.487 55.9264 146.707 57.4402C146.791 57.5243 147.716 58.6175 149.23 60.0472C149.103 64.0838 148.977 68.1205 148.809 72.1572C148.809 72.1992 148.851 72.1992 148.851 72.2413C149.524 73.7971 150.197 75.3528 150.869 76.9086C153.687 83.4682 156.504 89.9857 159.321 96.5453C160.541 93.4758 165.839 77.0348 166.89 72.5776C166.89 71.3582 166.89 70.1809 166.89 68.9615V68.583C167.184 68.541 167.479 68.4569 167.731 68.3728C174.122 66.3545 176.897 58.0709 177.402 56.5992C177.36 56.5572 180.387 47.6008 175.552 38.3081Z" fill="#FFF1F2"/>
<path fill-rule="evenodd" clip-rule="evenodd" d="M164.45 69.1718C163.441 69.1718 162.306 69.0457 161.128 68.7934C157.428 67.9104 155.031 65.7238 153.938 64.4624C153.854 64.3783 153.854 64.2522 153.938 64.1681C154.022 64.084 154.148 64.084 154.232 64.1681C155.284 65.3454 157.638 67.4899 161.212 68.3729C164.198 69.0877 166.763 68.6672 168.403 68.1627C168.529 68.1206 168.613 68.2047 168.655 68.2888C168.697 68.415 168.613 68.4991 168.529 68.5411C167.52 68.8775 166.09 69.1718 164.45 69.1718Z" fill="black"/>
<path fill-rule="evenodd" clip-rule="evenodd" d="M166.216 54.4548C166.132 54.4548 166.048 54.4128 166.006 54.3287C165.964 54.2025 166.006 54.1184 166.132 54.0764L170.589 52.4785L168.108 43.396C168.066 43.2699 168.15 43.1858 168.277 43.1438C168.403 43.1017 168.487 43.1858 168.529 43.3119L171.052 52.5626C171.094 52.6888 171.01 52.7729 170.926 52.8149L166.3 54.4969C166.3 54.4548 166.258 54.4548 166.216 54.4548Z" fill="black"/>
<circle cx="162.114" cy="46.2553" r="1.05121" fill="black"/>
<circle cx="173.467" cy="46.2553" r="1.05121" fill="black"/>
<ellipse cx="162.948" cy="42.1565" rx="1.05125" ry="3.65834" transform="rotate(-95.4706 162.948 42.1565)" fill="black"/>
<ellipse cx="174.702" cy="42.1756" rx="3.65811" ry="1.05118" transform="rotate(-8.16 174.702 42.1756)" fill="black"/>
<path d="M168.529 46.0449C168.529 49.1565 165.964 51.7215 162.852 51.7215C159.741 51.7215 157.176 49.1565 157.176 46.0449C160.96 46.0449 164.745 46.0449 168.529 46.0449Z" fill="#BDF9D0"/>
<path d="M181.564 46.0449C181.564 49.1565 178.999 51.7215 175.887 51.7215C172.776 51.7215 170.211 49.1565 170.211 46.0449C173.995 46.0449 177.78 46.0449 181.564 46.0449Z" fill="#BDF9D0"/>
<path d="M161.718 51.8053H161.676C161.55 51.7633 161.508 51.6792 161.508 51.553C161.676 50.8382 161.97 50.2075 162.433 49.745C162.727 49.4506 162.937 49.3245 163.694 48.9881C163.905 48.8619 164.157 48.7358 164.493 48.5676C165.965 47.8107 166.301 47.6005 166.596 47.1379C166.764 46.8436 166.89 46.5493 166.932 46.1708C166.932 46.0447 167.058 45.9606 167.184 46.0026C167.311 46.0026 167.395 46.1288 167.353 46.2549C167.311 46.6754 167.184 47.0539 166.974 47.3902C166.638 47.9369 166.175 48.2312 164.703 48.946C164.367 49.1142 164.115 49.2404 163.905 49.3665C163.19 49.745 163.022 49.8291 162.769 50.0393C162.391 50.4598 162.096 50.9644 161.97 51.6371C161.886 51.7633 161.802 51.8053 161.718 51.8053Z" fill="white"/>
<path d="M175.173 51.8053H175.131C175.005 51.7632 174.963 51.6791 174.963 51.553C175.131 50.8382 175.425 50.2074 175.888 49.7449C176.182 49.4506 176.393 49.3244 177.149 48.988C177.36 48.8619 177.612 48.7357 177.948 48.6096C179.42 47.8527 179.756 47.6425 180.051 47.1799C180.219 46.8856 180.345 46.5913 180.387 46.2128C180.387 46.0867 180.513 46.0026 180.639 46.0446C180.766 46.0446 180.85 46.1708 180.808 46.2969C180.766 46.7174 180.639 47.0958 180.429 47.4322C180.093 47.9789 179.63 48.2732 178.159 48.988C177.822 49.1562 177.57 49.2824 177.36 49.4085C176.645 49.7869 176.477 49.871 176.224 50.0813C175.846 50.5018 175.552 51.0064 175.425 51.6791C175.341 51.7632 175.257 51.8053 175.173 51.8053Z" fill="white"/>
<path fill-rule="evenodd" clip-rule="evenodd" d="M181.985 46.2547C181.985 46.3809 181.9 46.465 181.774 46.465H157.008L150.154 50.3334C150.028 50.2493 149.902 50.1232 149.775 50.0391L156.882 46.0445C156.924 46.0445 156.966 46.0024 156.966 46.0024H181.774C181.9 46.0445 181.985 46.1706 181.985 46.2547Z" fill="black"/>
<path d="M162.365 55.5264C162.449 55.5264 162.533 55.5684 162.575 55.6525C162.617 55.7366 163.837 58.2175 167.495 57.9652C167.621 57.9652 167.705 58.0493 167.705 58.1754C167.705 58.3016 167.621 58.3857 167.495 58.3857C163.542 58.68 162.197 55.8628 162.197 55.8207C162.155 55.6946 162.197 55.6105 162.281 55.5264C162.281 55.5264 162.323 55.5264 162.365 55.5264Z" fill="black"/>
<path fill-rule="evenodd" clip-rule="evenodd" d="M152.551 54.6231C152.383 53.0673 151.668 51.7217 150.617 50.7125C150.491 50.5864 150.323 50.4603 150.197 50.3341C150.071 50.25 149.944 50.1239 149.818 50.0398C149.061 49.5352 148.178 49.1988 147.295 49.0306C146.749 48.9465 146.202 48.9465 145.655 48.9886C142.207 49.367 139.685 52.4786 140.063 55.9266C140.441 59.3745 143.553 61.8975 147.001 61.519C150.449 61.1406 152.93 58.1131 152.551 54.6231Z" fill="#FFF1F2"/>
<path d="M145.361 68.075C145.319 68.075 145.277 68.075 145.235 68.0329C143.469 66.6874 142.67 64.5009 143.174 62.4825C143.259 62.2302 143.343 61.9359 143.427 61.7257C143.721 61.0108 144.142 60.5483 144.268 60.3801C144.814 59.7494 145.571 59.2027 146.412 58.8664C146.538 58.8243 146.622 58.8664 146.706 58.9925C146.749 59.1186 146.706 59.2027 146.58 59.2868C145.781 59.6232 145.109 60.1278 144.604 60.7165C144.436 60.8847 144.099 61.3052 143.805 61.9359C143.721 62.1461 143.637 62.3984 143.553 62.6507C143.132 64.4588 143.763 66.351 145.235 67.6124C145.613 66.4771 146.034 65.3418 146.454 64.2065C146.791 63.2394 147.169 62.3143 147.505 61.3893C147.547 61.2631 147.674 61.2211 147.758 61.2631C147.884 61.3052 147.926 61.4313 147.884 61.5154C147.547 62.4405 147.169 63.3655 146.833 64.3327C146.37 65.5521 145.95 66.7715 145.529 67.9909C145.487 68.075 145.445 68.117 145.403 68.117C145.403 68.0329 145.403 68.075 145.361 68.075Z" fill="#20A9FE" stroke="#20AAFF" stroke-width="0.3"/>
<path fill-rule="evenodd" clip-rule="evenodd" d="M148.137 58.2392C148.095 58.2392 148.053 58.2392 148.011 58.1971C147.212 57.6505 146.791 57.0618 146.791 56.3891C146.791 55.5481 147.464 54.9174 147.8 54.623L143.385 50.6284C143.301 50.5443 143.301 50.4182 143.385 50.3341C143.469 50.25 143.596 50.25 143.68 50.3341L148.305 54.5389C148.347 54.581 148.389 54.6651 148.389 54.7071C148.389 54.7492 148.347 54.8333 148.305 54.8753C148.305 54.8753 147.296 55.5901 147.296 56.4311C147.296 56.9357 147.632 57.4403 148.305 57.8608C148.389 57.9449 148.431 58.071 148.347 58.1551C148.305 58.2392 148.221 58.2392 148.137 58.2392Z" fill="black"/>
<path fill-rule="evenodd" clip-rule="evenodd" d="M204.228 228.241C204.06 227.61 203.892 226.938 203.723 226.307C202.882 223.027 202.083 219.789 201.242 216.51C201.116 216.089 201.032 215.669 200.906 215.206C197.837 203.096 194.767 190.986 191.697 178.876C191.571 178.33 191.445 177.825 191.277 177.278C188.754 167.313 186.231 157.347 183.666 147.382C165.459 148.097 147.21 148.769 129.003 149.484C117.145 199.985 105.288 250.443 93.4721 300.943C93.388 301.321 93.3039 301.742 93.1778 302.12C90.739 312.506 88.3001 322.85 85.8613 333.236C87.5433 333.278 89.2252 333.278 90.9492 333.32C91.2856 333.32 91.622 333.32 91.9584 333.32C96.7098 333.404 101.461 333.447 106.213 333.531C113.95 333.657 121.729 333.783 129.508 333.909C130.811 333.951 132.115 333.951 133.418 333.993C133.713 333.993 133.965 333.993 134.259 333.993C136.278 334.035 138.296 334.077 140.356 334.077C142.501 316.879 144.603 299.64 146.748 282.442C146.79 281.937 146.874 281.39 146.958 280.886C150.406 252.924 153.854 225.003 157.344 197.041C158.731 207.469 160.161 217.939 161.549 228.367C161.675 229.334 161.801 230.302 161.927 231.269C166.51 265.37 171.094 299.513 175.677 333.615C177.065 333.531 178.494 333.489 179.882 333.404C180.176 333.404 180.428 333.362 180.723 333.362C182.741 333.278 184.717 333.194 186.736 333.068C194.262 332.732 201.747 332.395 209.274 332.017C216.296 331.68 223.318 331.386 230.34 331.05C221.636 296.864 212.932 262.553 204.228 228.241Z" fill="#20AAFF"/>
<path d="M132.284 161.048C132.158 161.048 132.074 161.006 131.989 160.922C131.821 160.753 131.821 160.501 131.989 160.333L137.245 155.077C137.414 154.909 137.666 154.909 137.834 155.077C138.002 155.245 138.002 155.497 137.834 155.666L132.578 160.922C132.494 161.006 132.368 161.048 132.284 161.048Z" fill="#1F0D60"/>
<path d="M180.177 157.137C180.009 157.137 179.883 157.053 179.799 156.885L176.729 150.115C176.645 149.905 176.729 149.652 176.94 149.568C177.15 149.484 177.402 149.568 177.486 149.779L180.556 156.548C180.64 156.759 180.556 157.011 180.346 157.095C180.304 157.095 180.262 157.137 180.177 157.137Z" fill="#1F0D60"/>
<path d="M191.699 178.876L187.704 174.881C187.536 174.713 187.536 174.461 187.704 174.293C187.872 174.124 188.125 174.124 188.293 174.293L191.278 177.278C191.405 177.825 191.531 178.371 191.699 178.876Z" fill="#1F0D60"/>
<path d="M125.136 181.105C125.094 181.105 125.052 181.105 124.968 181.063C124.758 180.978 124.632 180.726 124.716 180.516L127.365 173.578C127.449 173.368 127.701 173.242 127.911 173.326C128.122 173.41 128.248 173.662 128.164 173.872L125.515 180.81C125.473 180.978 125.304 181.105 125.136 181.105Z" fill="#1F0D60"/>
<path d="M179.672 175.26C179.504 175.26 179.336 175.134 179.252 174.966L177.276 167.817C177.234 167.607 177.36 167.355 177.57 167.313C177.78 167.271 178.033 167.397 178.075 167.607L180.051 174.755C180.093 174.966 179.967 175.218 179.756 175.26C179.714 175.26 179.672 175.26 179.672 175.26Z" fill="#1F0D60"/>
<path d="M128.206 198.261C128.079 198.261 127.995 198.219 127.911 198.134C127.743 197.966 127.743 197.714 127.911 197.546L133.167 192.29C133.336 192.122 133.588 192.122 133.756 192.29C133.924 192.458 133.924 192.71 133.756 192.878L128.5 198.134C128.416 198.219 128.29 198.261 128.206 198.261Z" fill="#1F0D60"/>
<path d="M189.511 194.476C189.343 194.476 189.217 194.392 189.133 194.224L186.063 187.454C185.979 187.244 186.063 186.991 186.274 186.907C186.484 186.823 186.736 186.907 186.82 187.117L189.89 193.887C189.974 194.098 189.89 194.35 189.68 194.434C189.638 194.476 189.554 194.476 189.511 194.476Z" fill="#1F0D60"/>
<circle cx="142.443" cy="101.006" r="7.94717" fill="#20AAFF"/>
<path fill-rule="evenodd" clip-rule="evenodd" d="M171.22 126.903C169.791 128.333 167.772 129.216 165.586 129.216C161.171 129.216 157.639 125.642 157.639 121.268C157.639 116.895 161.213 113.321 165.586 113.321C167.394 113.321 169.034 113.91 170.379 114.919C170.674 118.914 170.968 122.908 171.22 126.903Z" fill="#20AAFF"/>
<path fill-rule="evenodd" clip-rule="evenodd" d="M150.87 144.396C150.87 145.91 150.449 147.298 149.735 148.475C149.693 148.559 149.651 148.643 149.609 148.685C148.683 148.727 147.716 148.769 146.791 148.812C144.31 148.896 141.788 148.98 139.307 149.106C139.811 144.985 140.316 140.864 140.778 136.702C141.451 136.491 142.166 136.407 142.923 136.407C147.296 136.407 150.87 139.981 150.87 144.396Z" fill="#20AAFF"/>
<path d="M150.828 76.9087C149.987 77.3712 149.02 77.7076 147.969 77.8338C148.221 75.9836 148.825 72.1904 148.825 72.1904C149.57 73.7524 150.182 75.3126 150.828 76.9087Z" fill="white"/>
<path d="M159.278 96.7138C159.194 96.7138 159.11 96.6718 159.068 96.5877L150.195 76.0259C150.153 75.8998 150.195 75.8157 150.322 75.7316C150.448 75.6895 150.532 75.7316 150.616 75.8577L159.278 95.9149L165.165 77.8761C165.207 77.7499 165.333 77.7079 165.417 77.7499C165.543 77.792 165.585 77.9181 165.543 78.0022L159.488 96.5877C159.488 96.6718 159.404 96.7138 159.278 96.7138C159.278 96.7138 159.32 96.7138 159.278 96.7138Z" fill="black"/>
<path fill-rule="evenodd" clip-rule="evenodd" d="M146.958 149.022C146.832 149.022 146.748 148.938 146.748 148.812C146.748 148.686 146.832 148.601 146.958 148.601L171.935 147.592C172.061 147.592 172.145 147.676 172.145 147.803C172.145 147.929 172.061 148.013 171.935 148.013L146.958 149.022Z" fill="#1D214D"/>
<mask id="path-116-inside-1" fill="white">
<path d="M148.051 77.8335C148.219 76.4459 148.598 73.6286 148.766 72.241C143.005 73.4604 134.385 75.9833 125.513 81.8701C106.297 94.6529 102.428 112.734 96.1633 111.935C92.7153 111.472 88.7207 105.291 86.1137 80.8609C86.1137 80.7348 86.0716 80.5666 86.0716 80.4405C85.567 75.8572 85.1466 70.6432 84.7681 64.7564C77.6619 64.2518 70.5557 63.7893 63.4495 63.2847H63.3234C63.2813 65.345 63.1972 71.8626 63.6177 80.3564V80.7769C64.5848 100.287 68.0328 129.847 80.1428 139.813L80.1602 139.827C81.3485 140.803 84.2427 143.181 88.5525 144.018C102.849 146.835 116.052 130.142 117.986 127.619L101.849 197H133.473C135.688 178.24 137.119 166.934 137.119 166.934C137.623 162.94 138.338 156.632 139.305 148.811C142.122 125.138 145.066 101.465 148.051 77.8335Z"/>
</mask>
<path d="M148.051 77.8335C148.219 76.4459 148.598 73.6286 148.766 72.241C143.005 73.4604 134.385 75.9833 125.513 81.8701C106.297 94.6529 102.428 112.734 96.1633 111.935C92.7153 111.472 88.7207 105.291 86.1137 80.8609C86.1137 80.7348 86.0716 80.5666 86.0716 80.4405C85.567 75.8572 85.1466 70.6432 84.7681 64.7564C77.6619 64.2518 70.5557 63.7893 63.4495 63.2847H63.3234C63.2813 65.345 63.1972 71.8626 63.6177 80.3564V80.7769C64.5848 100.287 68.0328 129.847 80.1428 139.813L80.1602 139.827C81.3485 140.803 84.2427 143.181 88.5525 144.018C102.849 146.835 116.052 130.142 117.986 127.619L101.849 197H133.473C135.688 178.24 137.119 166.934 137.119 166.934C137.623 162.94 138.338 156.632 139.305 148.811C142.122 125.138 145.066 101.465 148.051 77.8335Z" fill="white" stroke="black" stroke-width="0.8" mask="url(#path-116-inside-1)"/>
<mask id="path-117-inside-2" fill="white">
<path fill-rule="evenodd" clip-rule="evenodd" d="M259.311 82.879C255.191 81.8278 251.364 80.6925 247.832 79.4731C247.832 79.4731 247.832 79.4731 247.79 79.4731C244.174 91.4569 240.558 101.254 237.656 108.445C234.082 117.275 232.695 119.671 230.382 120.092C225.462 120.975 222.14 112.061 209.358 97.3858C201.999 88.9761 196.491 82.7529 187.703 78.2116C179.713 74.0909 172.103 72.9135 166.889 72.5771V72.6192C168.613 97.7222 170.337 122.783 172.061 147.886L178.242 273.569C191.992 270.5 205.699 267.388 219.449 264.318C210.325 216.383 201.242 168.448 192.118 120.512C195.524 125.769 199.182 130.436 202.924 134.473C206.498 138.299 209.736 141.621 214.488 144.48C217.263 146.12 227.144 152.049 236.395 149.946C248.883 147.129 254.728 130.814 261.077 113.112C265.324 101.338 267.258 91.2467 268.226 84.8553C265.324 84.3087 262.381 83.6359 259.311 82.879Z"/>
</mask>
<path fill-rule="evenodd" clip-rule="evenodd" d="M259.311 82.879C255.191 81.8278 251.364 80.6925 247.832 79.4731C247.832 79.4731 247.832 79.4731 247.79 79.4731C244.174 91.4569 240.558 101.254 237.656 108.445C234.082 117.275 232.695 119.671 230.382 120.092C225.462 120.975 222.14 112.061 209.358 97.3858C201.999 88.9761 196.491 82.7529 187.703 78.2116C179.713 74.0909 172.103 72.9135 166.889 72.5771V72.6192C168.613 97.7222 170.337 122.783 172.061 147.886L178.242 273.569C191.992 270.5 205.699 267.388 219.449 264.318C210.325 216.383 201.242 168.448 192.118 120.512C195.524 125.769 199.182 130.436 202.924 134.473C206.498 138.299 209.736 141.621 214.488 144.48C217.263 146.12 227.144 152.049 236.395 149.946C248.883 147.129 254.728 130.814 261.077 113.112C265.324 101.338 267.258 91.2467 268.226 84.8553C265.324 84.3087 262.381 83.6359 259.311 82.879Z" fill="white" stroke="black" stroke-width="0.8" mask="url(#path-117-inside-2)"/>
<path fill-rule="evenodd" clip-rule="evenodd" d="M134.344 155.413C134.26 155.413 134.176 155.329 134.134 155.245L124.799 110.757C124.799 110.715 124.799 110.631 124.841 110.589C124.883 110.547 124.925 110.505 125.009 110.505C125.472 110.505 133.082 110.463 135.059 110.463L126.901 89.8593C126.859 89.7752 126.901 89.6911 126.943 89.607L143.174 76.4038C143.258 76.3197 143.384 76.3617 143.468 76.4458C143.552 76.5299 143.51 76.656 143.426 76.7401L127.322 89.8172L135.521 110.547C135.563 110.631 135.521 110.673 135.479 110.757C135.437 110.799 135.395 110.841 135.311 110.841C134.134 110.841 126.733 110.884 125.219 110.884L134.554 155.161C134.596 155.287 134.512 155.371 134.386 155.413H134.344Z" fill="black"/>
<path fill-rule="evenodd" clip-rule="evenodd" d="M177.107 155.034C177.107 155.034 177.065 155.034 177.107 155.034C176.939 154.992 176.897 154.908 176.897 154.782L185.98 109.916L176.603 108.024C176.519 108.024 176.477 107.982 176.435 107.898C176.392 107.814 176.435 107.772 176.435 107.688C178.159 105.081 179.925 102.39 181.691 99.7827C183.835 96.587 186.022 93.3493 188.208 90.1536C184.424 87.084 172.945 77.7493 171.599 76.656C171.515 76.5719 171.515 76.4458 171.557 76.3617C171.641 76.2776 171.767 76.2776 171.851 76.3196C173.239 77.4129 185.012 86.9999 188.629 89.9433C188.713 90.0274 188.713 90.1536 188.671 90.2377C186.442 93.4754 184.214 96.7552 182.027 100.035C180.345 102.558 178.621 105.123 176.981 107.688L186.232 109.58C186.358 109.622 186.4 109.706 186.4 109.832L177.318 154.866C177.276 154.95 177.191 155.034 177.107 155.034Z" fill="black"/>
<path fill-rule="evenodd" clip-rule="evenodd" d="M86.9122 80.8611C86.8701 80.8611 86.8701 80.8611 86.9122 80.8611C85.1882 80.8611 69.7564 80.6929 63.7434 80.777C63.6173 80.777 63.5332 80.6929 63.5332 80.5668C63.5332 80.4407 63.6173 80.3566 63.7434 80.3566C69.7564 80.2725 85.1882 80.4407 86.9122 80.4407C87.0383 80.4407 87.1224 80.5247 87.1224 80.6509C87.0804 80.777 86.9963 80.8611 86.9122 80.8611Z" fill="black"/>
<path fill-rule="evenodd" clip-rule="evenodd" d="M264.652 99.825C262.003 99.2363 248.715 96.1667 242.744 94.9473C242.618 94.9053 242.576 94.8212 242.576 94.695C242.618 94.5689 242.702 94.5269 242.828 94.5269C248.799 95.7463 262.087 98.8158 264.694 99.4045C264.82 99.4465 264.862 99.5306 264.862 99.6568C264.82 99.7409 264.736 99.825 264.652 99.825Z" fill="black"/>
<path fill-rule="evenodd" clip-rule="evenodd" d="M84.8949 64.7566C77.7887 64.252 70.6825 63.7894 63.5763 63.2849C62.2728 62.7803 60.9273 62.1916 59.4976 61.5188C54.5359 59.08 50.8356 56.2207 48.3127 53.908C47.3876 53.025 47.3456 51.5533 48.2286 50.6283C48.4809 50.3339 48.8173 50.1657 49.1537 50.0396C49.406 49.9555 49.6583 49.9134 49.9105 49.9134L48.5229 48.694C48.0184 48.2315 47.724 47.6008 47.724 46.928C47.724 46.3814 47.8922 45.8347 48.3127 45.4142C48.9014 44.7835 49.7424 44.4892 50.5413 44.6574L49.9526 44.1528C48.9855 43.3118 48.9014 41.8401 49.7424 40.873C50.5833 39.9059 52.055 39.8218 53.0221 40.6628L53.3165 40.915C52.938 40.1161 53.0221 39.107 53.6529 38.3921C54.4938 37.425 55.9655 37.3409 56.9326 38.1819L68.7062 48.4417L73.71 49.577L69.9256 44.6574C69.1688 43.6482 69.337 42.1765 70.3461 41.3776C70.5564 41.2094 70.7666 41.1253 70.9769 41.0412C71.9019 40.7048 72.9531 40.9991 73.5839 41.8401C75.6442 43.7743 78.4615 46.8439 80.7742 51.2169C83.6755 56.5991 84.5585 61.645 84.8949 64.7566Z" fill="#FFF1F2"/>
<path fill-rule="evenodd" clip-rule="evenodd" d="M73.9212 59.6686C73.8791 59.6686 73.795 59.6266 73.753 59.5845C69.9266 55.632 73.7109 51.2589 73.753 51.2169C73.8371 51.1328 73.9632 51.1328 74.0473 51.2169C74.1314 51.301 74.1314 51.4271 74.0473 51.5112C74.0473 51.5112 73.1223 52.5624 72.7018 54.0341C72.1131 55.9684 72.5756 57.7344 74.0473 59.2902C74.1314 59.3743 74.1314 59.5004 74.0473 59.5845C74.0473 59.6266 74.0053 59.6686 73.9212 59.6686Z" fill="black"/>
<path fill-rule="evenodd" clip-rule="evenodd" d="M64.2066 50.0816C64.1645 50.0816 64.1225 50.0816 64.0804 50.0396L53.1478 41.0832C53.0637 40.9991 53.0637 40.873 53.1057 40.7889C53.1898 40.7048 53.316 40.7048 53.4001 40.7469L64.3327 49.7032C64.4168 49.7873 64.4168 49.9134 64.3747 49.9975C64.3327 50.0816 64.2486 50.0816 64.2066 50.0816Z" fill="black"/>
<path fill-rule="evenodd" clip-rule="evenodd" d="M61.558 53.1512C61.5159 53.1512 61.4739 53.1512 61.4318 53.1091L50.373 44.8256C50.2889 44.7415 50.2469 44.6153 50.331 44.5312C50.4151 44.4472 50.5412 44.4051 50.6253 44.4892L61.6841 52.7728C61.7682 52.8569 61.8102 52.983 61.7261 53.0671C61.6841 53.1512 61.642 53.1512 61.558 53.1512Z" fill="black"/>
<path fill-rule="evenodd" clip-rule="evenodd" d="M60.4225 57.524C60.3805 57.524 60.3384 57.524 60.2964 57.482L49.7422 50.0814C49.6581 49.9973 49.616 49.8712 49.7001 49.7871C49.7842 49.703 49.9104 49.661 49.9945 49.7451L60.5487 57.1456C60.6328 57.2297 60.6748 57.3558 60.5907 57.4399C60.5487 57.482 60.4646 57.524 60.4225 57.524Z" fill="black"/>
<path fill-rule="evenodd" clip-rule="evenodd" d="M247.832 79.4736C257.854 82.7525 261.564 83.4438 268.226 84.8558C268.226 84.8558 268.292 83.9837 268.599 84.0487C269.991 83.9229 271.447 83.7279 273.007 83.4753C278.448 82.4986 282.793 80.77 285.856 79.2423C286.989 78.6485 287.435 77.2454 286.841 76.1128C286.68 75.7603 286.403 75.5059 286.114 75.2919C285.895 75.1415 285.664 75.0316 285.421 74.962L287.091 74.1723C287.704 73.8668 288.161 73.3416 288.346 72.6949C288.497 72.1695 288.486 71.5976 288.197 71.0775C287.805 70.309 287.078 69.7942 286.264 69.7357L286.969 69.4129C288.13 68.8711 288.617 67.4796 288.075 66.3182C287.533 65.1567 286.141 64.6702 284.98 65.212L284.628 65.3734C285.212 64.7098 285.409 63.7165 285 62.8555C284.458 61.6941 283.066 61.2076 281.905 61.7494L267.759 68.3665L262.636 68.0786L267.63 64.3927C268.636 63.6312 268.88 62.1702 268.13 61.124C267.974 60.9044 267.795 60.7656 267.617 60.6268C266.82 60.0485 265.728 60.0417 264.89 60.6762C262.377 61.9676 258.822 64.1417 255.394 67.7079C251.121 72.0819 249.013 76.5752 247.832 79.4736Z" fill="#FFF1F2"/>
<path fill-rule="evenodd" clip-rule="evenodd" d="M259.652 77.7215C259.693 77.7331 259.785 77.7158 259.837 77.687C264.605 74.9423 262.172 69.6955 262.144 69.6435C262.086 69.5395 261.965 69.5047 261.861 69.5624C261.757 69.62 261.722 69.7413 261.779 69.8453C261.779 69.8453 262.379 71.1108 262.377 72.6414C262.41 74.6629 261.479 76.2331 259.635 77.3229C259.531 77.3806 259.496 77.5018 259.554 77.6059C259.543 77.6463 259.571 77.6983 259.652 77.7215Z" fill="#1D214D"/>
<path fill-rule="evenodd" clip-rule="evenodd" d="M271.632 71.1833C271.673 71.1949 271.713 71.2065 271.765 71.1776L284.743 65.5817C284.847 65.524 284.882 65.4028 284.864 65.3103C284.807 65.2063 284.685 65.1715 284.593 65.1888L271.615 70.7847C271.511 70.8424 271.476 70.9636 271.494 71.0561C271.511 71.1485 271.592 71.1717 271.632 71.1833Z" fill="#1D214D"/>
<path fill-rule="evenodd" clip-rule="evenodd" d="M273.332 74.8639C273.372 74.8755 273.413 74.8871 273.465 74.8582L286.379 69.9438C286.483 69.8861 286.558 69.7765 286.5 69.6724C286.442 69.5684 286.333 69.4932 286.229 69.5509L273.315 74.4653C273.211 74.523 273.136 74.6327 273.194 74.7367C273.211 74.8291 273.251 74.8407 273.332 74.8639Z" fill="#1D214D"/>
<path fill-rule="evenodd" clip-rule="evenodd" d="M273.219 79.3802C273.259 79.3918 273.3 79.4034 273.352 79.3746L285.537 75.1699C285.641 75.1122 285.716 75.0025 285.658 74.8985C285.601 74.7945 285.491 74.7193 285.387 74.777L273.202 78.9817C273.098 79.0393 273.023 79.149 273.08 79.253C273.109 79.305 273.178 79.3686 273.219 79.3802Z" fill="#1D214D"/>
</g>
</svg>
