<svg width="147" height="76" viewBox="0 0 147 76" fill="none" xmlns="http://www.w3.org/2000/svg">
<path d="M146.247 10.499L106.164 59L84.247 0L146.247 10.499Z" fill="#EDEFF3"/>
<path fill-rule="evenodd" clip-rule="evenodd" d="M21.933 75.833C9.82 75.833 0 66.013 0 53.9C0 41.787 9.82 31.967 21.933 31.967C34.046 31.967 43.866 41.787 43.866 53.9C43.866 66.013 34.046 75.833 21.933 75.833ZM21.933 65.863C15.325 65.863 9.969 60.507 9.969 53.9C9.969 47.293 15.325 41.937 21.933 41.937C28.54 41.937 33.896 47.293 33.896 53.9C33.896 60.507 28.54 65.863 21.933 65.863Z" fill="#EDEFF3"/>
</svg>
