<svg width="14" height="14" viewBox="0 0 14 14" fill="none" xmlns="http://www.w3.org/2000/svg">
<path fill-rule="evenodd" clip-rule="evenodd" d="M7.00081 1.26123C8.8699 1.26123 9.09128 1.26834 9.8294 1.30202C10.5119 1.33317 10.8825 1.44721 11.1292 1.54304C11.4559 1.67003 11.6891 1.82174 11.9341 2.06668C12.179 2.31162 12.3307 2.54483 12.4577 2.87154C12.5536 3.11823 12.6676 3.48888 12.6987 4.17134C12.7324 4.90949 12.7395 5.13087 12.7395 6.99996C12.7395 8.86905 12.7324 9.09042 12.6987 9.82854C12.6676 10.511 12.5536 10.8817 12.4577 11.1284C12.3307 11.4551 12.179 11.6883 11.9341 11.9332C11.6891 12.1782 11.4559 12.3299 11.1292 12.4568C10.8825 12.5527 10.5119 12.6667 9.8294 12.6979C9.09139 12.7316 8.87001 12.7387 7.00081 12.7387C5.13161 12.7387 4.91023 12.7316 4.17222 12.6979C3.48973 12.6667 3.11909 12.5527 2.87243 12.4568C2.54568 12.3299 2.31247 12.1782 2.06753 11.9332C1.8226 11.6883 1.67088 11.4551 1.54392 11.1284C1.44806 10.8817 1.33402 10.511 1.30288 9.82857C1.2692 9.09042 1.26208 8.86905 1.26208 6.99996C1.26208 5.13087 1.2692 4.90949 1.30288 4.17137C1.33402 3.48888 1.44806 3.11823 1.54392 2.87154C1.67088 2.54483 1.8226 2.31162 2.06753 2.06668C2.31247 1.82174 2.54568 1.67003 2.87243 1.54304C3.11909 1.44721 3.48973 1.33317 4.1722 1.30202C4.91035 1.26834 5.13172 1.26123 7.00081 1.26123ZM6.99999 0C5.09889 0 4.86053 0.0080581 4.11391 0.0421244C3.36881 0.0761351 2.85999 0.19445 2.41471 0.367505C1.95439 0.546395 1.56402 0.785748 1.17487 1.1749C0.78572 1.56405 0.546367 1.95442 0.367477 2.41473C0.194422 2.86001 0.0761073 3.36884 0.0420966 4.11394C0.00803031 4.86053 0 5.09891 0 7.00001C0 8.90111 0.00803031 9.13949 0.0420966 9.88609C0.0761073 10.6312 0.194422 11.14 0.367477 11.5853C0.546367 12.0456 0.78572 12.436 1.17487 12.8251C1.56402 13.2143 1.95439 13.4536 2.41471 13.6325C2.85999 13.8056 3.36881 13.9239 4.11391 13.9579C4.86053 13.992 5.09889 14 6.99999 14C8.90109 14 9.13947 13.992 9.88606 13.9579C10.6312 13.9239 11.14 13.8056 11.5853 13.6325C12.0456 13.4536 12.436 13.2143 12.8251 12.8251C13.2143 12.436 13.4536 12.0456 13.6325 11.5853C13.8055 11.14 13.9239 10.6312 13.9579 9.88609C13.9919 9.13949 14 8.90111 14 7.00001C14 5.09891 13.9919 4.86053 13.9579 4.11394C13.9239 3.36884 13.8055 2.86001 13.6325 2.41473C13.4536 1.95442 13.2143 1.56405 12.8251 1.1749C12.436 0.785748 12.0456 0.546395 11.5853 0.367505C11.14 0.19445 10.6312 0.0761351 9.88606 0.0421244C9.13947 0.0080581 8.90109 0 6.99999 0ZM7.01462 3.41683C5.02794 3.41683 3.4174 5.02737 3.4174 7.01405C3.4174 9.00073 5.02794 10.6113 7.01462 10.6113C9.0013 10.6113 10.6118 9.00073 10.6118 7.01405C10.6118 5.02737 9.0013 3.41683 7.01462 3.41683ZM7.0141 9.34929C5.72451 9.34929 4.67906 8.30384 4.67906 7.01424C4.67906 5.72465 5.72451 4.6792 7.0141 4.6792C8.3037 4.6792 9.34915 5.72465 9.34915 7.01424C9.34915 8.30384 8.3037 9.34929 7.0141 9.34929ZM11.5561 3.25096C11.5561 3.7112 11.1831 4.08431 10.7228 4.08431C10.2626 4.08431 9.88947 3.7112 9.88947 3.25096C9.88947 2.79072 10.2626 2.41764 10.7228 2.41764C11.1831 2.41764 11.5561 2.79072 11.5561 3.25096Z" fill="white"/>
</svg>
