<svg width="20" height="14" viewBox="0 0 20 14" fill="none" xmlns="http://www.w3.org/2000/svg">
<path fill-rule="evenodd" clip-rule="evenodd" d="M2.50065 6.58405C2.50065 7.50634 3.24433 8.25016 4.16732 8.25016C4.62755 8.25016 5.00065 8.62326 5.00065 9.0835C5.00065 9.54373 4.62755 9.91683 4.16732 9.91683C2.32378 9.91683 0.833984 8.42674 0.833984 6.58405V3.66628C0.833984 1.82483 2.32653 0.333496 4.17011 0.333496H10.8312C12.6739 0.333496 14.1673 1.82428 14.1673 3.66628V6.58405C14.1673 8.42591 12.6778 9.91683 10.8341 9.91683H9.16732C8.70708 9.91683 8.33398 9.54373 8.33398 9.0835C8.33398 8.62326 8.70708 8.25016 9.16732 8.25016H10.8341C11.757 8.25016 12.5007 7.50578 12.5007 6.58405V3.66628C12.5007 2.74541 11.7541 2.00016 10.8312 2.00016H4.17011C3.2467 2.00016 2.50065 2.74561 2.50065 3.66628V6.58405ZM17.5007 7.41628C17.5007 6.49508 16.7558 5.75016 15.8357 5.75016C15.3754 5.75016 15.0023 5.37707 15.0023 4.91683C15.0023 4.45659 15.3754 4.0835 15.8357 4.0835C17.6762 4.0835 19.1673 5.57461 19.1673 7.41628V10.334C19.1673 12.1755 17.6748 13.6668 15.8312 13.6668H9.17011C7.32741 13.6668 5.83398 12.176 5.83398 10.334V7.41628C5.83398 5.5759 7.3254 4.0835 9.16481 4.0835H10.834C11.2942 4.0835 11.6673 4.45659 11.6673 4.91683C11.6673 5.37707 11.2942 5.75016 10.834 5.75016H9.16481C8.24612 5.75016 7.50065 6.49613 7.50065 7.41628V10.334C7.50065 11.2549 8.24722 12.0002 9.17011 12.0002H15.8312C16.7546 12.0002 17.5007 11.2547 17.5007 10.334V7.41628Z" fill="currentColor"/>
</svg>
