<svg width="24" height="24" viewBox="0 0 24 24" fill="none" xmlns="http://www.w3.org/2000/svg">
<rect width="24" height="24" fill="white"/>
<path fill-rule="evenodd" clip-rule="evenodd" d="M9 12C9 11.4477 9.44851 11 10.0025 11H19.9975C20.5512 11 21 11.4439 21 12C21 12.5523 20.5515 13 19.9975 13H10.0025C9.44882 13 9 12.5561 9 12ZM9 5C9 4.44772 9.44851 4 10.0025 4H19.9975C20.5512 4 21 4.44386 21 5C21 5.55228 20.5515 6 19.9975 6H10.0025C9.44882 6 9 5.55614 9 5ZM9 19C9 18.4477 9.44851 18 10.0025 18H19.9975C20.5512 18 21 18.4439 21 19C21 19.5523 20.5515 20 19.9975 20H10.0025C9.44882 20 9 19.5561 9 19ZM5 14C3.89543 14 3 13.1046 3 12C3 10.8954 3.89543 10 5 10C6.10457 10 7 10.8954 7 12C7 13.1046 6.10457 14 5 14ZM5 7C3.89543 7 3 6.10457 3 5C3 3.89543 3.89543 3 5 3C6.10457 3 7 3.89543 7 5C7 6.10457 6.10457 7 5 7ZM5 21C3.89543 21 3 20.1046 3 19C3 17.8954 3.89543 17 5 17C6.10457 17 7 17.8954 7 19C7 20.1046 6.10457 21 5 21Z" fill="currentColor"/>
</svg>
