<svg width="80" height="80" viewBox="0 0 80 80" fill="none" xmlns="http://www.w3.org/2000/svg">
<path d="M60.2344 13L49.8281 14.6286L40.5781 23.8252L28.4375 13.5429L18.0312 13L7.625 18.9714L3 29.2857L7.04688 46.1143L19.7656 59.6857L46.3594 70L64.2812 56.9714L72.9531 43.9429L77 32L72.9531 18.9714L60.2344 13Z" fill="#5655F2"/>
<path d="M21.6842 14H28L21.6842 19.6977L19.7895 23.686L19.1579 29.9535L21.0526 35.6512L24.8421 39.6395L30.5263 43.0581L43.7895 48.186L49.4737 51.0349L52 54.4535V57.3023L50.1053 60.1512L47.5789 61.8605L41.8947 63L36.8421 62.4302L29.2632 59.5814L25.4737 56.7326H24.2105L20.4211 60.1512L11.5789 51.6046L7.78947 44.7674L4 36.7907V26.5349L7.78947 19.6977L14.7368 15.1395L21.6842 14Z" fill="#2B8CFF"/>
<path d="M57.7891 13C54.056 13.0182 50.4068 14.0302 47.2738 15.9161C44.1409 17.802 41.6555 20.4827 40.1123 23.6405C38.2318 19.9218 35.0451 16.9082 31.0762 15.0952C27.1073 13.2823 22.5925 12.7779 18.2741 13.6651C13.9557 14.5523 10.0908 16.7781 7.31487 19.9767C4.53895 23.1753 3.01726 27.1562 3 31.2649C3 52.6716 29.2898 68.9676 37.3165 73.45L40.1123 75L42.9081 73.45C48.6182 70.2517 53.9929 66.5631 58.9616 62.4324C74.068 49.8649 76.9991 38.4703 76.9991 31.2649C77.0473 26.4794 75.0532 21.8711 71.4531 18.4481C67.853 15.0252 62.94 13.0663 57.7891 13V13Z" stroke="white" stroke-width="3" stroke-linejoin="round"/>
<path d="M60.1948 49.8783C59.7983 48.619 59.3172 47.5231 58.7523 46.5924C58.1876 45.6607 57.3789 44.752 56.3245 43.8631C55.2714 42.9747 54.324 42.2592 53.484 41.7153C52.6445 41.1709 51.4913 40.5623 50.025 39.8886C48.56 39.2151 47.3992 38.7139 46.5447 38.3843C45.6892 38.0552 44.4515 37.6039 42.8326 37.031C41.3973 36.5156 40.3287 36.1216 39.6255 35.8497C38.9232 35.5774 37.9996 35.1909 36.8542 34.6893C35.7093 34.1884 34.8541 33.7441 34.2889 33.3576C33.7239 32.9711 33.1209 32.4985 32.4794 31.94C31.8379 31.3815 31.3875 30.787 31.1277 30.1568C30.8685 29.5265 30.7386 28.8389 30.7386 28.094C30.7386 26.1465 31.6545 24.5561 33.4869 23.3247C35.3196 22.0933 37.6868 21.4773 40.5884 21.4773C41.8705 21.4773 43.1776 21.6418 44.5053 21.9715C45.8329 22.3013 46.9708 22.6727 47.9176 23.0884C48.8653 23.5041 49.7583 23.9625 50.5985 24.4636C51.4385 24.965 52.0338 25.3443 52.3853 25.6021C52.7366 25.8601 52.9592 26.0318 53.0498 26.1179C53.4474 26.4043 53.8587 26.5044 54.2863 26.4188C54.7443 26.3902 55.0958 26.1606 55.3407 25.7314L59.0522 19.4578C59.4185 18.8851 59.3428 18.3407 58.8232 17.8248C58.6396 17.6529 58.4114 17.4526 58.1347 17.2233C57.8606 16.9939 57.2648 16.5786 56.3478 15.9768C55.4317 15.3754 54.462 14.8382 53.4396 14.3655C52.416 13.8932 51.0871 13.4131 49.4529 12.9264C47.8198 12.4389 46.1319 12.1097 44.3906 11.938V4.37501C44.3906 3.97421 44.2534 3.64461 43.9793 3.38665C43.7046 3.12928 43.3532 3 42.9249 3H36.7398C36.3428 3 35.9993 3.13591 35.7092 3.40817C35.419 3.68043 35.274 4.00251 35.274 4.37501V12.1096C30.4788 12.9686 26.5847 14.888 23.5917 17.8673C20.5989 20.8466 19.102 24.3123 19.102 28.2659C19.102 29.4403 19.2323 30.5575 19.4919 31.6169C19.7512 32.6772 20.0721 33.6297 20.454 34.4747C20.8356 35.3202 21.3779 36.1507 22.0803 36.9673C22.7826 37.7836 23.4471 38.4856 24.073 39.0726C24.6993 39.6594 25.5164 40.2683 26.5239 40.8983C27.5321 41.5289 28.3949 42.0378 29.1128 42.4243C29.8308 42.8096 30.7851 43.2551 31.9759 43.7552C33.167 44.2568 34.1065 44.6359 34.7937 44.8944C35.481 45.1519 36.42 45.5104 37.6116 45.9678C39.2606 46.5693 40.4825 47.035 41.2765 47.3646C42.0711 47.6942 43.0786 48.1525 44.301 48.7397C45.5223 49.3264 46.4152 49.8637 46.9807 50.3509C47.5457 50.8381 48.0571 51.4396 48.5155 52.1556C48.974 52.8715 49.2036 53.6307 49.2036 54.4332C49.2036 56.6963 48.2644 58.4434 46.3856 59.6742C44.5075 60.9064 42.3307 61.5222 39.8572 61.5222C38.7282 61.5222 37.5973 61.4083 36.4677 61.1792C32.4972 60.4335 28.7866 58.6431 25.3354 55.8073L25.2438 55.7213C24.9687 55.4071 24.6021 55.278 24.1444 55.3356C23.6557 55.3928 23.3043 55.5648 23.0907 55.8518L18.3719 61.6523C17.9136 62.2251 17.9446 62.8122 18.4637 63.4138C18.6166 63.5858 18.8837 63.8442 19.2653 64.1874C19.6479 64.5319 20.3581 65.0681 21.3959 65.8C22.4341 66.5309 23.5642 67.2175 24.7861 67.8628C26.0079 68.5071 27.5576 69.1442 29.4363 69.7747C31.3149 70.4041 33.2615 70.8479 35.2774 71.1056V78.6252C35.2774 78.9982 35.4226 79.3201 35.7125 79.5925C36.0028 79.8651 36.3462 80.0005 36.7432 80.0005H42.9283C43.3565 80.0005 43.708 79.8719 43.9825 79.6143C44.2571 79.3568 44.3938 79.0272 44.3938 78.6254V71.1057C49.2507 70.361 53.1982 68.4058 56.2367 65.2403C59.2755 62.0747 60.7954 58.3005 60.7954 53.918C60.7938 52.486 60.5956 51.1395 60.1948 49.8783Z" fill="white"/>
</svg>
