<svg width="18" height="18" viewBox="0 0 18 18" fill="none" xmlns="http://www.w3.org/2000/svg">
<path fill-rule="evenodd" clip-rule="evenodd" d="M4.82873 0.666504H13.17C15.469 0.666504 17.3327 2.52987 17.3327 4.82922V13.1705C17.3327 15.4695 15.4693 17.3332 13.17 17.3332H4.82873C2.52972 17.3332 0.666016 15.4698 0.666016 13.1705V4.82922C0.666016 2.53021 2.52938 0.666504 4.82873 0.666504ZM2.33268 13.1705C2.33268 14.5492 3.45006 15.6665 4.82873 15.6665H13.17C14.5487 15.6665 15.666 14.5491 15.666 13.1705V4.82922C15.666 3.45048 14.5486 2.33317 13.17 2.33317H4.82873C3.45 2.33317 2.33268 3.45055 2.33268 4.82922V13.1705ZM4.83268 8.99984C4.83268 6.69865 6.69816 4.83317 8.99935 4.83317C11.3005 4.83317 13.166 6.69865 13.166 8.99984C13.166 11.301 11.3005 13.1665 8.99935 13.1665C6.69816 13.1665 4.83268 11.301 4.83268 8.99984ZM11.4993 8.99984C11.4993 7.61913 10.3801 6.49984 8.99935 6.49984C7.61864 6.49984 6.49935 7.61913 6.49935 8.99984C6.49935 10.3805 7.61864 11.4998 8.99935 11.4998C10.3801 11.4998 11.4993 10.3805 11.4993 8.99984Z" fill="currentColor"/>
</svg>
