<svg width="312" height="196" viewBox="0 0 312 196" fill="none" xmlns="http://www.w3.org/2000/svg">
<path d="M312 0H0V196H312V0Z" fill="white"/>
<path d="M312 0H0V196H312V0Z" fill="white"/>
<circle r="2" transform="matrix(-1 0 0 1 83 16)" fill="#E6F3FF"/>
<path d="M288.471 178.236C292.523 178.236 296.791 181.356 301.166 187.488C301.238 187.596 301.238 187.775 301.094 187.847C300.986 187.919 300.807 187.919 300.735 187.775C296.324 181.571 292.057 178.559 288.076 178.774C284.849 178.953 282.589 181.141 280.258 183.472C277.891 185.803 275.453 188.206 271.902 188.385C267.958 188.564 263.869 185.946 259.709 180.531C259.602 180.424 259.638 180.244 259.745 180.137C259.853 180.029 260.032 180.065 260.14 180.173C264.156 185.444 268.101 187.99 271.866 187.811C275.202 187.632 277.569 185.301 279.864 183.041C282.195 180.746 284.598 178.379 288.04 178.2C288.184 178.236 288.327 178.236 288.471 178.236Z" fill="#14132F"/>
<path d="M305.169 159C305.277 159 305.348 159.036 305.384 159.144L308.755 165.025C308.827 165.168 308.791 165.312 308.648 165.384L302.766 168.755C302.623 168.826 302.479 168.791 302.408 168.647L299.037 162.766C298.965 162.622 299.001 162.479 299.144 162.407L305.026 159.036C305.061 159.036 305.097 159 305.169 159ZM308.181 165.061L305.061 159.646L299.646 162.766L302.766 168.181L308.181 165.061Z" fill="#14132F"/>
<path d="M92.6958 186.864C92.7673 186.871 92.8356 186.913 92.9008 186.99C92.9986 187.107 92.9472 187.282 92.8307 187.38L87.8332 191.011C87.7166 191.109 87.5411 191.057 87.4433 190.941C87.3455 190.824 87.3969 190.649 87.5134 190.551L92.5109 186.92C92.5886 186.855 92.6243 186.858 92.6958 186.864Z" fill="#14132F"/>
<path d="M6.90389 70.7764C7.01147 70.7764 7.11906 70.8481 7.15492 70.9557C7.19079 71.0991 7.11905 71.2426 6.9756 71.2784L1.13011 73.215C0.986666 73.2508 0.843191 73.1791 0.807329 73.0357C0.771466 72.8922 0.843203 72.7488 0.98665 72.7129L6.83217 70.7764C6.83217 70.8122 6.86802 70.7764 6.90389 70.7764Z" fill="#14132F"/>
<path d="M17.2519 34.2331C17.2877 34.2331 17.2877 34.2331 17.2519 34.2331C17.4312 34.2689 17.5388 34.3765 17.5029 34.52L16.7139 40.6524C16.6781 40.7958 16.5705 40.9034 16.427 40.8676C16.2836 40.8317 16.176 40.7241 16.2118 40.5807L17.0008 34.4482C17.0008 34.3407 17.1443 34.2331 17.2519 34.2331Z" fill="#14132F"/>
<path d="M192.857 13.8753C192.888 13.8932 192.888 13.8932 192.857 13.8753C192.994 13.996 193.034 14.1429 192.931 14.2492L189.182 19.1656C189.079 19.2719 188.932 19.3113 188.826 19.2085C188.719 19.1057 188.68 18.9587 188.783 18.8524L192.532 13.9361C192.586 13.8429 192.764 13.8215 192.857 13.8753Z" fill="#14132F"/>
<path d="M56.9741 63.7835C57.0099 63.7835 57.0817 63.7835 57.1175 63.8194C57.2251 63.8911 57.261 64.0704 57.1892 64.178L53.7824 69.3421C53.7106 69.4497 53.5313 69.4856 53.4237 69.4139C53.3162 69.3421 53.2803 69.1628 53.352 69.0552L56.7589 63.8911C56.7948 63.8194 56.8665 63.7835 56.9741 63.7835Z" fill="#14132F"/>
<path d="M56.7952 28.9615C56.867 28.9615 56.9387 28.9974 56.9745 29.0332L61.3138 33.4443C61.4214 33.5518 61.4214 33.7312 61.3138 33.8387C61.2063 33.9463 61.027 33.9463 60.9194 33.8387L56.58 29.4277C56.4725 29.3201 56.4725 29.1408 56.58 29.0332C56.6876 28.9974 56.7594 28.9615 56.7952 28.9615Z" fill="#14132F"/>
<path d="M303.14 119.956C303.227 119.894 303.306 119.882 303.398 119.949L309.047 122.443C309.188 122.518 309.242 122.656 309.167 122.798C309.092 122.939 308.954 122.993 308.812 122.918L303.164 120.423C303.022 120.348 302.968 120.21 303.043 120.069C303.052 120.019 303.081 119.998 303.14 119.956Z" fill="#14132F"/>
<path d="M274.723 67.811C274.725 67.8468 274.728 67.8826 274.73 67.9184C274.703 68.0638 274.528 68.1463 274.381 68.0834L268.453 66.3246C268.308 66.2976 268.225 66.1229 268.288 65.9754C268.315 65.83 268.49 65.7475 268.637 65.8104L274.565 67.5692C274.639 67.6006 274.717 67.7036 274.723 67.811Z" fill="#14132F"/>
<path d="M16.4979 171.303C14.7946 171.303 13.4138 172.684 13.4138 174.388C13.4138 176.091 14.7946 177.472 16.4979 177.472C18.2012 177.472 19.582 176.091 19.582 174.388C19.582 172.684 18.2012 171.303 16.4979 171.303Z" fill="#E6F3FF"/>
<path d="M266.42 105.885C265.429 105.885 264.627 106.688 264.627 107.679C264.627 108.669 265.429 109.472 266.42 109.472C267.41 109.472 268.213 108.669 268.213 107.679C268.213 106.688 267.41 105.885 266.42 105.885Z" fill="#E6F3FF"/>
<path d="M9.22754 12.9905C9.11995 12.9905 9.04823 12.9547 9.01236 12.8471L5.64133 6.96571C5.56961 6.82226 5.60547 6.67882 5.74892 6.60709L11.6303 3.23606C11.7737 3.16433 11.9172 3.20019 11.9889 3.34364L15.36 9.22503C15.4317 9.36847 15.3958 9.51192 15.2524 9.58365L9.37098 12.9547C9.33512 12.9547 9.29926 12.9905 9.22754 12.9905ZM6.21512 6.92985L9.33512 12.345L14.7503 9.22503L11.6303 3.80985L6.21512 6.92985Z" fill="#14132F"/>
<path d="M33.6221 190.79C33.5145 190.79 33.4428 190.754 33.4069 190.647L30.0359 184.766C29.9641 184.622 30 184.479 30.1434 184.407L36.0248 181.036C36.1683 180.964 36.3117 181 36.3835 181.143L39.7545 187.025C39.8262 187.168 39.7903 187.312 39.6469 187.383L33.7655 190.754C33.7297 190.754 33.6938 190.79 33.6221 190.79ZM30.6097 184.73L33.7297 190.145L39.1448 187.025L36.0248 181.61L30.6097 184.73Z" fill="#14132F"/>
<path d="M282.096 100.224C281.989 100.224 281.881 100.152 281.845 100.044C281.809 99.9009 281.881 99.7574 282.024 99.7216L287.87 97.785C288.013 97.7492 288.157 97.8209 288.193 97.9643C288.229 98.1078 288.157 98.2512 288.013 98.2871L282.168 100.224C282.168 100.188 282.132 100.224 282.096 100.224Z" fill="#14132F"/>
<path d="M264.205 146.038C264.133 146.038 264.061 146.003 264.025 145.967L259.686 141.556C259.579 141.448 259.579 141.269 259.686 141.161C259.794 141.054 259.973 141.054 260.081 141.161L264.42 145.572C264.528 145.68 264.528 145.859 264.42 145.967C264.312 146.003 264.241 146.038 264.205 146.038Z" fill="#14132F"/>
<path d="M8.44714 101.222C8.41128 101.222 8.37542 101.222 8.33955 101.222C8.19611 101.186 8.12438 101.007 8.19611 100.864L10.312 95.0539C10.3478 94.9105 10.5271 94.8387 10.6706 94.9105C10.814 94.9463 10.8858 95.1256 10.814 95.2691L8.69817 101.079C8.66231 101.15 8.55473 101.222 8.44714 101.222Z" fill="#14132F"/>
<path d="M18.6685 134.789C18.5609 134.789 18.4533 134.717 18.4175 134.609L16.6244 128.692C16.5885 128.549 16.6602 128.405 16.8037 128.369C16.9471 128.334 17.0906 128.405 17.1264 128.549L18.9195 134.466C18.9554 134.609 18.8837 134.753 18.7402 134.789C18.7044 134.789 18.7044 134.789 18.6685 134.789Z" fill="#14132F"/>
<path d="M304.362 14.7834C304.29 14.7834 304.219 14.7476 304.147 14.6759C304.039 14.5683 304.075 14.389 304.183 14.2814L309.024 10.48C309.132 10.3724 309.311 10.4083 309.419 10.5159C309.526 10.6234 309.49 10.8028 309.383 10.9103L304.541 14.7117C304.47 14.7834 304.434 14.7834 304.362 14.7834Z" fill="#14132F"/>
<path d="M37.5802 65.1145C38.5705 65.1145 39.3733 64.3117 39.3733 63.3214C39.3733 62.3311 38.5705 61.5283 37.5802 61.5283C36.5899 61.5283 35.7871 62.3311 35.7871 63.3214C35.7871 64.3117 36.5899 65.1145 37.5802 65.1145Z" fill="#E6F3FF"/>
<path d="M266.36 31.4166C263.456 31.4166 260.407 33.64 257.287 38.0152C257.216 38.1228 257.216 38.3021 257.359 38.3738C257.467 38.4456 257.646 38.4456 257.718 38.3021C260.838 33.9269 263.814 31.7752 266.611 31.9545C268.871 32.0621 270.449 33.64 272.134 35.2538C273.82 36.9035 275.577 38.6249 278.123 38.7683C280.956 38.9118 283.897 37.0111 286.838 33.1738C286.945 33.0663 286.909 32.8869 286.802 32.7794C286.694 32.6718 286.515 32.7076 286.407 32.8152C283.574 36.509 280.777 38.338 278.159 38.1945C275.828 38.0869 274.214 36.509 272.529 34.8594C270.879 33.2097 269.158 31.5242 266.683 31.3807C266.576 31.4525 266.468 31.4166 266.36 31.4166Z" fill="#14132F"/>
<path d="M168.975 2.99997C168.832 2.99997 168.724 3.10755 168.724 3.21514L168.007 7.84135C167.971 7.9848 168.079 8.12824 168.222 8.16411L172.848 8.88135C172.92 8.88135 172.992 8.88135 173.063 8.84549C173.135 8.80962 173.171 8.7379 173.171 8.66617L173.888 4.03997C173.888 3.96824 173.888 3.89652 173.852 3.82479C173.817 3.75307 173.745 3.71721 173.673 3.71721L169.047 2.99997C169.011 2.99997 169.011 2.99997 168.975 2.99997ZM168.581 7.66204L169.19 3.57376L173.279 4.18342L172.669 8.27169L168.581 7.66204Z" fill="#14132F"/>
<path d="M279.48 -5.53131e-05C279.408 -5.53131e-05 279.373 0.0358067 279.301 0.0716686L274.101 4.19581C273.993 4.30339 273.957 4.44684 274.065 4.59029L278.189 9.79029C278.297 9.89788 278.44 9.93374 278.584 9.82615L283.784 5.70202C283.891 5.59443 283.927 5.45098 283.819 5.30753L279.695 0.107531C279.659 0.0358067 279.588 -5.53131e-05 279.48 -5.53131e-05ZM274.639 4.41098L279.444 0.609602L283.246 5.41512L278.44 9.2165L274.639 4.41098Z" fill="#14132F"/>
<path d="M113.33 152.427C114.764 153.053 115.961 154.085 116.832 155.413C117.989 157.163 118.355 159.31 117.886 161.347C117.454 163.407 116.216 165.191 114.415 166.322C113.589 166.855 112.723 167.203 111.792 167.404L111.842 166.421C112.558 166.236 113.246 165.931 113.888 165.532C115.492 164.541 116.552 162.989 116.969 161.157C117.354 159.332 117.047 157.463 116.03 155.908C115.343 154.831 114.379 153.975 113.22 153.418C113.246 153.09 113.304 152.755 113.33 152.427Z" fill="#31B0FF"/>
<path d="M142.565 143.847C142.484 143.665 142.368 143.454 142.255 143.275L141.181 143.379C141.366 143.646 141.554 143.945 141.714 144.278C142.544 145.94 142.631 147.832 142.037 149.6C141.443 151.368 140.178 152.789 138.47 153.588C136.796 154.415 134.895 154.535 133.114 153.916C131.332 153.296 129.938 152.068 129.105 150.375C128.275 148.713 128.156 146.824 128.782 145.052C128.83 144.889 128.91 144.723 128.989 144.557L127.915 144.661C127.887 144.695 127.89 144.727 127.893 144.758C127.194 146.758 127.337 148.899 128.254 150.806C129.172 152.713 130.808 154.138 132.816 154.8C133.904 155.17 135.066 155.311 136.171 155.204C137.119 155.112 138.019 154.867 138.902 154.433C140.822 153.519 142.259 151.891 142.958 149.891C143.623 147.863 143.511 145.719 142.565 143.847Z" fill="#31B0FF"/>
<path d="M164.08 141.249C162.587 141.963 160.913 142.125 159.311 141.71L157.226 141.911C157.63 142.126 158.03 142.309 158.459 142.457C159.546 142.827 160.708 142.969 161.813 142.862C162.761 142.77 163.661 142.525 164.544 142.091C165.123 141.813 165.664 141.476 166.133 141.05L164.08 141.249Z" fill="#31B0FF"/>
<path d="M115.638 183.093C114.455 181.338 112.63 180.163 110.547 179.799C110.309 179.76 110.101 179.714 109.871 179.706C109.846 180.004 109.798 180.34 109.773 180.639C109.973 180.655 110.173 180.67 110.35 180.724C112.202 181.08 113.789 182.086 114.827 183.649C115.889 185.174 116.248 187.034 115.916 188.869C115.552 190.712 114.536 192.293 112.961 193.33C111.587 194.253 109.985 194.647 108.447 194.506C108.43 194.835 108.374 195.141 108.35 195.439C109.219 195.518 110.081 195.435 110.913 195.231C111.806 195.011 112.693 194.63 113.473 194.081C115.241 192.899 116.427 191.081 116.8 189.009C117.265 186.914 116.814 184.817 115.638 183.093Z" fill="#31B0FF"/>
<path d="M139.306 170.647C137.395 166.714 132.615 165.085 128.658 167.02C124.698 168.923 123.053 173.676 124.992 177.575C126.499 180.629 129.687 182.285 132.909 181.973C133.825 181.885 134.757 181.636 135.608 181.205C139.568 179.302 141.216 174.581 139.306 170.647ZM135.207 180.357C131.734 182.023 127.547 180.591 125.843 177.144C124.139 173.697 125.617 169.531 129.087 167.834C129.847 167.443 130.656 167.239 131.477 167.159C134.319 166.884 137.139 168.354 138.452 171.047C140.124 174.496 138.68 178.691 135.207 180.357Z" fill="#31B0FF"/>
<path d="M139.306 170.647C137.395 166.714 132.615 165.085 128.658 167.02C124.698 168.923 123.053 173.676 124.992 177.575C126.499 180.629 129.687 182.285 132.909 181.973C133.825 181.885 134.757 181.636 135.608 181.205C139.568 179.302 141.216 174.581 139.306 170.647ZM135.207 180.357C131.734 182.023 127.547 180.591 125.843 177.144C124.139 173.697 125.617 169.531 129.087 167.834C129.847 167.443 130.656 167.239 131.477 167.159C134.319 166.884 137.139 168.354 138.452 171.047C140.124 174.496 138.68 178.691 135.207 180.357Z" fill="#31B0FF"/>
<path d="M166.193 157.594C164.283 153.661 159.503 152.032 155.577 153.964C153.657 154.878 152.221 156.506 151.521 158.506C150.822 160.506 150.965 162.646 151.883 164.553C152.8 166.46 154.436 167.886 156.448 168.579C157.536 168.949 158.665 169.093 159.802 168.983C160.75 168.891 161.651 168.646 162.533 168.212C166.491 166.277 168.135 161.525 166.193 157.594ZM162.13 167.332C160.456 168.159 158.552 168.248 156.774 167.66C154.992 167.04 153.567 165.816 152.765 164.119C151.935 162.457 151.848 160.565 152.442 158.797C153.068 157.026 154.302 155.608 156.01 154.809C156.772 154.45 157.578 154.214 158.399 154.135C161.242 153.86 164.062 155.33 165.374 158.022C167.046 161.472 165.6 165.635 162.13 167.332Z" fill="#31B0FF"/>
<path d="M152.681 181.057C156.97 180.054 161.267 182.708 162.251 186.968C163.042 190.387 161.483 193.81 158.638 195.533L156.086 195.55C159.848 194.67 162.187 190.934 161.326 187.198C160.647 184.281 158.195 182.215 155.394 181.853C154.576 181.747 153.737 181.798 152.914 181.977C151.563 182.28 150.388 182.954 149.464 183.916C149.454 183.501 149.447 183.055 149.437 182.64C150.368 181.871 151.46 181.344 152.681 181.057Z" fill="#31B0FF"/>
<path d="M183.283 182.679C181.949 183.062 180.509 183.011 179.157 182.54C177.375 181.92 175.982 180.692 175.148 178.999C173.444 175.552 174.923 171.386 178.393 169.689C178.88 169.451 179.373 169.277 179.904 169.162L179.687 168.233C179.093 168.354 178.539 168.566 177.992 168.84C174.032 170.744 172.419 175.493 174.329 179.427C175.836 182.481 179.024 184.136 182.246 183.825C182.688 183.782 183.127 183.708 183.56 183.571L183.283 182.679Z" fill="#31B0FF"/>
<path d="M125.188 195.092C127.174 194.362 129.319 194.457 131.274 195.314C131.429 195.382 131.582 195.456 131.732 195.536H124.212C124.523 195.369 124.849 195.22 125.188 195.092Z" fill="#31B0FF"/>
<path d="M238.47 61.1253C238.269 61.0045 238.027 60.9642 237.826 60.924L239.114 59.9578C239.678 59.5552 240 58.911 240 58.2266C240 57.824 239.879 57.4214 239.637 57.0591C239.195 56.415 238.47 56.1331 237.786 56.1734L238.349 55.7708C239.275 55.0864 239.476 53.7981 238.873 52.8722C238.228 51.9462 236.98 51.7047 236.054 52.3891L235.773 52.5904C236.175 51.906 236.175 50.98 235.732 50.2956C235.088 49.3696 233.84 49.1281 232.914 49.8125L221.803 57.9045L217.374 58.4682L221.118 54.402C221.883 53.5566 221.843 52.228 221.078 51.4631C220.917 51.3021 220.756 51.1813 220.555 51.1008C219.79 50.7384 218.824 50.8995 218.22 51.5436C216.247 53.1137 213.55 55.5695 211.094 59.2734C208.074 63.8629 204.29 77.5912 202.76 81.6574C196.681 98.0025 194.547 99.2103 193.179 99.331C193.018 99.331 192.857 99.331 192.695 99.331C192.695 99.331 192.695 99.331 192.655 99.331C188.831 98.8077 179.249 86.6092 172.848 81.7379C170.392 79.8457 166.728 77.4302 161.736 75.2159C164.273 83.8313 166.688 93.0909 168.782 102.995C169.184 104.967 169.587 106.9 169.989 108.832C171.64 112.254 173.854 115.233 176.511 117.609C176.994 118.051 177.518 118.454 178.041 118.857C180.658 120.829 183.597 122.198 186.697 122.883C187.301 123.003 187.864 123.124 188.468 123.205C190.079 123.406 191.649 123.446 193.098 123.285C199.177 122.722 203.565 119.581 204.934 118.575C204.934 118.575 214.959 112.576 222.246 85.643C222.729 83.9119 223.131 82.1002 223.131 82.1002C223.373 81.0937 223.534 80.4496 223.534 80.4496C223.936 78.6379 224.299 76.7458 224.621 74.7328C224.782 73.7666 224.903 72.8809 225.023 71.9549C225.829 71.6329 226.996 71.1498 228.365 70.5861C234.444 68.1706 236.739 66.3992 238.752 64.8291C239.637 64.1447 239.799 62.8161 239.154 61.8902C238.993 61.4473 238.752 61.246 238.47 61.1253Z" fill="#FFF1F2"/>
<path d="M224.78 71.6734C223.975 71.6734 223.331 72.237 223.17 73.002C222.888 72.6396 222.445 72.3981 221.922 72.3981C221.197 72.3981 220.593 72.8812 220.392 73.5253C220.191 72.8812 219.547 72.3981 218.862 72.3981C218.258 72.3981 217.735 72.7201 217.453 73.2032C217.413 72.3176 216.688 71.6331 215.803 71.6331C215.279 71.6331 214.796 71.915 214.474 72.3176C214.434 71.4319 213.709 70.7475 212.823 70.7475C212.381 70.7475 211.978 70.9085 211.696 71.1903C211.696 71.15 211.696 71.1098 211.696 71.0293C211.696 70.1033 210.972 69.3786 210.046 69.3786C209.683 69.3786 209.361 69.4994 209.079 69.7007C209.16 69.1774 209.039 68.6137 208.636 68.2111C207.992 67.567 206.946 67.567 206.301 68.2111C205.657 68.8553 205.657 69.902 206.301 70.5462C206.865 71.1098 207.791 71.1903 208.435 70.7072C208.395 70.828 208.395 70.9085 208.395 71.0293C208.395 71.9552 209.12 72.6799 210.046 72.6799C210.488 72.6799 210.891 72.5188 211.173 72.237C211.173 72.2773 211.173 72.3176 211.173 72.3981C211.173 73.324 211.897 74.0487 212.823 74.0487C213.347 74.0487 213.83 73.7669 214.152 73.3643C214.192 74.25 214.917 74.9344 215.803 74.9344C216.406 74.9344 216.93 74.6123 217.212 74.1292C217.252 75.0149 217.977 75.6993 218.862 75.6993C219.587 75.6993 220.191 75.2162 220.392 74.5721C220.593 75.2162 221.238 75.6993 221.922 75.6993C222.727 75.6993 223.371 75.1357 223.532 74.3708C223.814 74.7331 224.257 74.9746 224.78 74.9746C225.706 74.9746 226.431 74.25 226.431 73.324C226.431 72.3981 225.706 71.6734 224.78 71.6734Z" fill="#14132F"/>
<path d="M216.166 67.4463C216.126 67.4463 216.046 67.406 216.005 67.3658C215.925 67.2853 215.925 67.1645 216.046 67.084C217.495 65.8359 218.059 64.3061 217.736 62.4944C217.495 61.1256 216.811 60.1192 216.811 60.1192C216.73 60.0386 216.77 59.9179 216.851 59.8373C216.931 59.7568 217.052 59.7971 217.133 59.8776C217.173 59.9179 220.031 64.1451 216.327 67.3658C216.247 67.4463 216.207 67.4463 216.166 67.4463Z" fill="#14132F"/>
<path d="M225.467 59.797C225.386 59.797 225.346 59.7568 225.306 59.7165C225.225 59.636 225.265 59.5152 225.346 59.4347L235.652 52.4296C235.733 52.3491 235.853 52.3894 235.934 52.4699C236.014 52.5504 235.974 52.6712 235.894 52.7517L225.587 59.7568C225.547 59.797 225.507 59.797 225.467 59.797Z" fill="#14132F"/>
<path d="M227.439 62.7761C227.359 62.7761 227.318 62.7359 227.278 62.6956C227.238 62.6151 227.238 62.4943 227.358 62.4138L237.705 56.0529C237.786 56.0126 237.906 56.0126 237.987 56.1334C238.027 56.2139 238.027 56.3347 237.906 56.4152L227.56 62.7761C227.52 62.7761 227.479 62.7761 227.439 62.7761Z" fill="#14132F"/>
<path d="M228.043 66.8017C227.962 66.8017 227.922 66.7614 227.881 66.6809C227.841 66.6004 227.841 66.4796 227.962 66.3991L237.745 60.7628C237.825 60.7226 237.946 60.7226 238.027 60.8434C238.067 60.9239 238.067 61.0447 237.946 61.1252L228.163 66.7614C228.083 66.7614 228.043 66.8017 228.043 66.8017Z" fill="#14132F"/>
<path d="M234.082 35.561H217.576V75.4174H234.082V35.561Z" fill="white"/>
<path fill-rule="evenodd" clip-rule="evenodd" d="M217.174 35.1587H234.485V75.8203H217.174V35.1587ZM217.979 35.9639V75.0151H233.68V35.9639H217.979Z" fill="#14132F"/>
<path d="M229.252 35.9639H222.408V37.5742H229.252V35.9639Z" fill="#14132F"/>
<path d="M217.374 58.4689L221.118 54.4027C221.883 53.5573 221.843 52.2287 221.078 51.4638C220.917 51.3028 220.756 51.182 220.554 51.1015C219.79 50.7391 218.823 50.9002 218.219 51.5443C216.247 53.1144 213.549 55.5702 211.094 59.274C209.081 62.3337 211.174 62.0653 217.374 58.4689Z" fill="#FFF1F2"/>
<path d="M165.965 125.54V141.04C166.166 141.04 166.367 140.999 166.569 140.999C167.052 140.959 167.535 140.919 168.018 140.879C168.582 141.724 169.105 142.57 169.628 143.415C170.152 144.22 170.675 145.066 171.158 145.871C176.553 154.486 180.981 162.055 184.363 168.174C190.402 178.964 194.468 187.217 197.246 193.86C197.327 194.061 197.407 194.262 197.488 194.463H237.505V125.54H165.965Z" fill="white"/>
<path d="M165.963 124.937H237.544C237.866 124.937 238.148 125.218 238.148 125.54V194.424C238.148 194.746 237.866 195.027 237.544 195.027H186.254L185.994 193.845H236.979V126.09H166.542L166.567 141C166.366 141 166.165 141 165.963 141.04C165.762 141.08 165.561 141.08 165.359 141.121V125.54C165.359 125.218 165.641 124.937 165.963 124.937Z" fill="#51D767"/>
<path d="M212.454 164.811L225.542 176.668L225.539 176.668C219.878 175.917 214.216 175.166 208.508 174.443C208.158 179.795 207.798 185.185 207.439 190.574C204.227 185.922 200.988 181.222 197.75 176.522C193.598 179.726 189.399 182.957 185.247 186.161C187.197 180.834 189.119 175.46 191.068 170.133C187.072 168.462 183.096 166.796 179.111 165.127L178.297 161.698L178.457 161.644C182.627 160.243 186.779 158.848 190.937 157.432C189.162 151.914 187.36 146.349 185.548 140.821C190.171 144.399 194.757 147.967 199.342 151.535L199.344 151.536C201.55 146.601 203.756 141.666 205.925 136.721C206.758 142.753 207.564 148.737 208.36 154.759L225.178 152.247C221.1 156.075 216.985 159.894 212.869 163.712L212.065 164.465L212.454 164.811Z" fill="#6068F8"/>
<path d="M237.544 137.257H165.963C165.641 137.257 165.359 136.994 165.359 136.692C165.359 136.391 165.641 136.128 165.963 136.128H237.544C237.866 136.128 238.148 136.391 238.148 136.692C238.148 136.994 237.866 137.257 237.544 137.257Z" fill="#51D767"/>
<path d="M192.372 134.315C190.561 134.315 189.111 132.866 189.111 131.054C189.111 129.242 190.561 127.793 192.372 127.793C194.184 127.793 195.633 129.242 195.633 131.054C195.633 132.866 194.184 134.315 192.372 134.315ZM192.372 128.935C191.245 128.935 190.29 129.886 190.29 131.014C190.29 132.141 191.245 133.093 192.372 133.093C193.5 133.093 194.449 132.141 194.449 131.014C194.449 129.886 193.54 128.935 192.372 128.935Z" fill="#51D767"/>
<path d="M183.597 134.315C181.785 134.315 180.336 132.866 180.336 131.054C180.336 129.242 181.785 127.793 183.597 127.793C185.409 127.793 186.858 129.242 186.858 131.054C186.858 132.866 185.409 134.315 183.597 134.315ZM183.597 128.935C182.47 128.935 181.515 129.886 181.515 131.014C181.515 132.141 182.47 133.093 183.597 133.093C184.724 133.093 185.674 132.141 185.674 131.014C185.674 129.886 184.764 128.935 183.597 128.935Z" fill="#51D767"/>
<path d="M174.827 134.315C173.016 134.315 171.566 132.866 171.566 131.054C171.566 129.242 173.016 127.793 174.827 127.793C176.639 127.793 178.088 129.242 178.088 131.054C178.088 132.866 176.639 134.315 174.827 134.315ZM174.827 128.935C173.7 128.935 172.745 129.886 172.745 131.014C172.745 132.141 173.7 133.093 174.827 133.093C175.955 133.093 176.904 132.141 176.904 131.014C176.904 129.886 175.995 128.935 174.827 128.935Z" fill="#51D767"/>
<path d="M204.976 126.064C204.654 126.064 204.372 125.822 204.372 125.5C204.372 125.299 203.647 106.256 197.206 101.063C195.877 99.9757 194.428 99.6134 192.777 99.8952C192.455 99.9355 192.133 99.7342 192.093 99.4121C192.053 99.09 192.254 98.768 192.576 98.7277C194.549 98.3654 196.36 98.8485 197.971 100.137C200.869 102.472 203.043 107.464 204.412 114.992C205.419 120.508 205.58 125.46 205.58 125.5C205.58 125.782 205.338 126.064 204.976 126.064Z" fill="#51D767"/>
<path d="M119.305 78.9204C118.419 89.3072 117.533 99.6538 116.648 110.041C113.024 119.22 109.321 128.479 105.456 137.819V137.699C105.456 137.376 105.174 137.095 104.852 137.095C104.53 137.095 104.248 137.376 104.248 137.699V140.718C102.154 145.71 100.061 150.742 97.9273 155.775C97.4844 156.781 97.0819 157.788 96.639 158.794C95.3239 161.881 93.7342 166.634 91.87 173.055C91.0771 177.531 89.7467 179.769 87.8787 179.769C85.0766 179.769 86.5126 178.091 86.4535 177.756C86.4132 178.36 86.1717 178.843 85.7691 179.206C85.4068 179.568 84.8834 179.769 84.3198 179.769C83.3133 179.729 82.4678 178.924 82.2263 177.877C82.2263 177.837 82.186 177.796 82.186 177.716C82.186 177.756 82.186 177.796 82.186 177.837C82.025 178.843 81.2198 179.608 80.2536 179.608C80.2133 179.608 80.1731 179.608 80.0926 179.608C79.4082 179.568 78.8043 179.206 78.4017 178.642C78.1601 178.32 77.9991 177.958 77.9588 177.555C77.9588 177.515 77.9588 177.474 77.9186 177.394C77.9186 177.434 77.8783 177.515 77.8783 177.555C77.7978 177.796 77.677 177.998 77.5562 178.199C77.1134 178.763 76.429 179.085 75.7043 178.964C75.342 178.924 74.9797 178.763 74.6979 178.521C74.3758 178.28 74.1342 177.958 73.9732 177.595C73.8122 177.233 73.6914 176.79 73.7316 176.347V176.186C73.4211 177.313 72.8618 177.984 72.0535 178.199C71.3628 178.383 70.2095 178.255 69.7787 177.394C69.4532 176.743 69.6739 175.627 70.059 174.171C70.9541 170.788 73.7719 161.612 74.7381 158.875C79.3276 145.67 84.8834 130.975 91.4456 115.234C95.2702 106.095 100.021 95.185 110.85 85.2813C114.232 82.3827 117.252 80.249 119.305 78.9204Z" fill="#FFF1F2"/>
<path d="M82.2501 176.909C82.1335 176.877 82.0765 176.779 82.1078 176.662L85.1684 165.395C85.1997 165.279 85.2983 165.222 85.415 165.253C85.5316 165.284 85.5886 165.383 85.5573 165.499L82.4967 176.766C82.4654 176.883 82.3668 176.94 82.2501 176.909Z" fill="#14132F"/>
<path d="M78.1947 176.284C78.0781 176.252 78.0211 176.154 78.0524 176.037L81.6922 164.009C81.7235 163.892 81.8221 163.835 81.9388 163.866C82.0554 163.898 82.1124 163.996 82.0811 164.113L78.4413 176.141C78.41 176.258 78.3114 176.315 78.1947 176.284Z" fill="#14132F"/>
<path d="M86.7815 176.609C86.6649 176.577 86.608 176.479 86.6392 176.362L89.2073 167.089C89.2386 166.972 89.3372 166.915 89.4539 166.946C89.5705 166.978 89.6274 167.076 89.5962 167.193L87.0281 176.466C86.9968 176.583 86.8593 176.629 86.7815 176.609Z" fill="#14132F"/>
<path d="M74.2698 174.821C74.1532 174.79 74.0962 174.691 74.1275 174.574L76.6956 165.301C76.7269 165.185 76.8255 165.128 76.9421 165.159C77.0588 165.19 77.1157 165.289 77.0845 165.405L74.5164 174.679C74.4851 174.795 74.3476 174.842 74.2698 174.821Z" fill="#14132F"/>
<path d="M104.207 140.718L116.606 110C115.159 128.28 114.301 140.304 114.03 146.072L112.092 163.548C101.81 163.189 96.2397 162.681 95.3809 162.025C98.3712 154.607 101.313 147.505 104.207 140.718Z" fill="#14132F"/>
<path d="M178.082 118.736C180.699 120.709 183.638 122.078 186.738 122.762C183.195 126.184 178.525 128.721 173.614 130.17C172.647 123.326 171.48 116.16 169.99 108.712C171.641 112.134 173.855 115.113 176.512 117.488C177.036 117.931 177.559 118.334 178.082 118.736Z" fill="#14132F"/>
<path d="M192.655 99.2916C188.831 98.7682 179.249 86.5698 172.848 81.6984C170.392 79.8062 166.728 77.3907 161.736 75.1765C161.334 74.9752 160.851 74.7739 160.408 74.6128C160.408 74.6128 160.408 74.6128 160.367 74.6128C158.355 73.7674 155.858 72.9622 153.04 72.3583C150.061 71.7142 147.404 71.5129 145.15 71.4726C144.747 71.4726 144.344 71.4726 143.942 71.4726H143.741C138.708 71.5129 134.199 72.4388 130.254 73.8077C128.201 74.4921 126.308 75.2972 124.577 76.1427C124.134 76.344 123.692 76.5855 123.249 76.7868C122.886 76.9881 122.484 77.1894 122.121 77.3907C121.719 77.592 121.357 77.7933 120.994 77.9946C120.39 78.3167 119.827 78.679 119.263 79.0011C117.21 80.3699 114.231 82.5036 110.97 85.4828C100.14 95.3462 95.3895 106.297 91.5649 115.435C85.0027 131.177 79.4872 145.871 74.8574 159.076C73.2068 158.915 71.7977 158.392 70.5899 157.144C66.3627 152.957 70.5899 147.441 67.0069 141.201C61.6927 132.022 45.267 136.934 42.5697 130.009C40.597 124.937 46.9176 116.402 53.6006 112.295C61.1693 107.625 67.7315 109.678 70.5094 104.847C72.5224 101.345 70.0263 98.6072 69.825 93.7358C69.1809 78.84 90.9207 75.6193 96.2349 56.7781C99.6167 44.7407 92.5311 39.5473 98.3284 31.1734C102.717 24.8125 112.5 19.4983 120.994 22.4372C123.45 23.2826 125.342 24.6514 126.791 25.98C124.698 28.3955 122.605 30.8111 120.511 33.2266L121.88 34.4746C123.571 31.7773 125.866 29.563 128.724 28.3553C128.845 28.315 128.965 28.2345 129.127 28.1942C137.098 25.1748 148.491 29.9656 153.644 41.2784C152.879 41.6005 152.114 41.9225 151.39 42.2849C151.39 42.3251 151.43 42.3654 151.43 42.4056C151.672 43.4121 151.792 44.4186 151.833 45.4653C151.833 45.6666 151.833 45.8679 151.833 46.0692C151.833 47.1562 151.792 48.2432 151.752 49.4107C151.672 50.9405 151.591 52.5107 151.672 54.121C151.752 56.0937 152.034 58.1469 152.799 60.2806C153.121 61.1663 153.523 62.0923 154.007 62.978C155.375 65.5143 157.026 67.0441 157.549 67.5273C162.421 72.0363 168.379 72.4791 170.352 72.8414C178.605 74.17 189.394 86.3685 192.655 99.2916Z" fill="#14132F"/>
<path d="M126.751 25.8188C124.658 28.2344 122.564 30.6499 120.471 33.0655L122.725 35.0784L129.006 28.0734L129.086 27.9928C128.281 27.2682 127.516 26.5435 126.751 25.8188Z" fill="#31B0FF"/>
<path d="M153.604 48.9676C153.241 46.9144 152.557 44.5793 151.39 42.2443C151.349 42.2041 151.349 42.1638 151.309 42.1235C147.162 43.9352 142.935 45.8676 138.627 47.8403C138.185 48.0416 137.742 48.2429 137.299 48.4442C136.977 48.6052 136.655 48.7663 136.333 48.887C133.716 50.1351 131.139 51.3428 128.603 52.5909C128.321 52.7116 128.039 52.8727 127.757 52.9935C127.435 53.1545 127.113 53.3155 126.791 53.4766C125.503 54.1207 124.255 54.7246 122.967 55.3687C122.806 55.4493 122.685 55.5298 122.524 55.57C122.323 55.6908 122.121 55.7713 121.92 55.8921C122 56.1337 122.081 56.3752 122.202 56.6168C122.484 57.3414 122.806 57.9856 122.806 57.9856C122.806 57.9856 123.611 59.4752 124.859 60.8037C124.939 60.8842 125.906 61.8102 127.476 63.0179L127.516 63.0582H127.476L127.677 63.7829L130.254 73.6866V73.7268L133.877 78.719C133.957 78.6384 134.078 78.6787 134.159 78.7592L146.035 95.0641L145.431 82.2215C145.431 82.1007 145.512 82.0202 145.632 82.0202L145.149 71.3918L145.069 69.4996V69.2984C145.069 69.2984 145.109 69.2984 145.109 69.2581C149.417 67.7283 151.631 63.2595 152.758 60.079C153.241 58.6297 153.523 57.5025 153.644 57.0194C153.644 57.0194 154.006 55.4493 153.966 52.9935C153.966 51.9065 153.886 50.4974 153.604 48.9676Z" fill="#FFF1F2"/>
<path d="M140.923 70.1437C140.279 70.1437 139.635 70.1034 138.991 70.0229C135.408 69.5398 132.871 67.8087 131.342 66.4399C131.261 66.3593 131.261 66.2386 131.342 66.158C131.422 66.0775 131.543 66.0775 131.623 66.158C133.113 67.4866 135.609 69.1372 139.071 69.6203C141.004 69.9021 142.976 69.7411 144.909 69.1775C145.03 69.1372 145.11 69.2177 145.15 69.2982C145.191 69.419 145.11 69.4995 145.03 69.5398C143.621 69.9424 142.292 70.1437 140.923 70.1437Z" fill="#14132F"/>
<path d="M144.627 58.992C144.546 58.992 144.466 58.9518 144.425 58.8713C144.385 58.7505 144.425 58.67 144.546 58.6297L148.089 57.3012L144.989 51.0208C144.949 50.9402 144.989 50.8195 145.069 50.7389C145.15 50.6987 145.271 50.7389 145.351 50.8195L148.532 57.3012C148.572 57.3414 148.572 57.4219 148.532 57.4622C148.491 57.5024 148.451 57.5427 148.411 57.583L144.667 58.992C144.707 58.992 144.667 58.992 144.627 58.992Z" fill="#14132F"/>
<path d="M144.145 64.4673C142.454 64.4673 140.763 63.2193 140.038 61.3271C139.998 61.2466 140.038 61.166 140.078 61.1258C140.119 61.0855 140.199 61.0453 140.28 61.0855L146.842 62.9374C146.922 62.9374 146.963 63.018 146.963 63.0985C146.963 63.179 146.963 63.2595 146.922 63.2998C146.52 63.7426 145.594 64.4673 144.386 64.5478C144.265 64.4673 144.225 64.4673 144.145 64.4673ZM140.562 61.5284C141.326 63.1387 142.816 64.1452 144.306 64.0244C145.191 63.9842 145.916 63.5011 146.319 63.1387L140.562 61.5284Z" fill="#14132F"/>
<path d="M149.745 47.411C151.178 46.8041 152.176 45.9243 151.973 45.4457C151.771 44.9672 150.445 45.0712 149.011 45.6781C147.578 46.2849 146.58 47.1648 146.783 47.6433C146.985 48.1218 148.312 48.0178 149.745 47.411Z" fill="#14132F"/>
<path d="M138.869 49.5464C140.425 49.5464 141.687 49.1251 141.687 48.6055C141.687 48.0858 140.425 47.6646 138.869 47.6646C137.313 47.6646 136.051 48.0858 136.051 48.6055C136.051 49.1251 137.313 49.5464 138.869 49.5464Z" fill="#14132F"/>
<path d="M140.64 51.8003C141.16 51.8003 141.581 51.379 141.581 50.8594C141.581 50.3397 141.16 49.9185 140.64 49.9185C140.12 49.9185 139.699 50.3397 139.699 50.8594C139.699 51.379 140.12 51.8003 140.64 51.8003Z" fill="#14132F"/>
<path d="M150.583 50.0693C151.103 50.0693 151.524 49.6481 151.524 49.1284C151.524 48.6088 151.103 48.1875 150.583 48.1875C150.064 48.1875 149.643 48.6088 149.643 49.1284C149.643 49.6481 150.064 50.0693 150.583 50.0693Z" fill="#14132F"/>
<path d="M143.337 50.6182C143.78 53.1142 142.009 55.57 139.432 56.0531C136.815 56.5362 134.319 54.8454 133.836 52.3493C136.976 51.7454 140.157 51.1818 143.337 50.6182Z" fill="#D9FFDF"/>
<path d="M155.817 48.6055C156.219 51.1418 154.367 53.5171 151.751 53.9599C149.134 54.4028 146.638 52.6314 146.275 50.0951C149.456 49.5717 152.636 49.0886 155.817 48.6055Z" fill="#D9FFDF"/>
<path d="M136.656 55.9726C136.615 55.9726 136.615 55.9726 136.575 55.9726C136.454 55.9323 136.414 55.8115 136.454 55.6908C136.897 54.644 136.656 54.4427 136.172 54.0401C135.931 53.8388 135.649 53.6376 135.408 53.235C135.085 52.7921 135.085 52.309 135.408 51.9064C135.488 51.8259 135.609 51.7856 135.689 51.8662C135.77 51.9467 135.81 52.0674 135.73 52.148C135.528 52.4298 135.528 52.7116 135.73 53.0337C135.931 53.3557 136.213 53.557 136.414 53.7583C136.937 54.1609 137.38 54.5232 136.817 55.8518C136.817 55.9323 136.736 55.9726 136.656 55.9726Z" fill="white"/>
<path d="M149.216 53.8795C149.175 53.8795 149.175 53.8795 149.135 53.8795C149.014 53.8392 148.974 53.7184 149.014 53.5977C149.538 52.3899 149.296 52.1886 148.773 51.786C148.531 51.5847 148.249 51.3834 148.008 50.9808C147.646 50.4172 147.766 49.9744 147.968 49.6925C148.048 49.612 148.169 49.5718 148.249 49.6523C148.33 49.7328 148.37 49.8536 148.29 49.9341C148.129 50.2159 148.129 50.4977 148.33 50.7795C148.531 51.1016 148.813 51.3029 149.014 51.4639C149.618 51.947 149.981 52.3496 149.336 53.7587C149.377 53.799 149.296 53.8795 149.216 53.8795Z" fill="white"/>
<path d="M141.93 52.1484C141.849 52.1484 141.729 52.0679 141.729 51.9874C141.729 51.8666 141.769 51.7861 141.89 51.7458L147.365 50.9004C147.486 50.9004 147.566 50.9406 147.606 51.0614C147.606 51.1822 147.566 51.2627 147.445 51.303L141.93 52.1484Z" fill="#14132F"/>
<path d="M117.975 53.1149C117.854 53.1149 117.773 53.0344 117.773 52.9136C117.773 52.7928 117.854 52.7123 117.975 52.7123L134.32 52.5513C134.441 52.5513 134.521 52.6318 134.521 52.7526C134.521 52.8733 134.441 52.9539 134.32 52.9539L117.975 53.1149Z" fill="#14132F"/>
<path d="M130.094 57.6637C129.772 56.2143 128.967 55.0066 127.88 54.2014C126.954 53.4767 125.786 53.0339 124.578 52.9936C124.055 52.9534 123.532 52.9936 123.008 53.1144C119.787 53.7988 117.734 56.9793 118.419 60.1597C119.103 63.3804 122.284 65.4336 125.504 64.7492C128.765 64.0648 130.778 60.8844 130.094 57.6637Z" fill="#FFF1F2"/>
<path d="M126.791 61.1663C126.751 61.1663 126.711 61.1663 126.711 61.126C126.067 60.804 125.624 60.1196 125.583 59.3949C125.543 58.7508 125.825 58.1469 126.308 57.7443L121.155 54.8054C121.074 54.7651 121.034 54.6443 121.074 54.5236C121.115 54.443 121.235 54.4028 121.356 54.443L126.791 57.543C126.872 57.5832 126.872 57.6235 126.912 57.704C126.952 57.7845 126.872 57.8248 126.831 57.8651C126.308 58.1871 126.026 58.7508 126.026 59.3546C126.067 59.9585 126.389 60.4819 126.912 60.7234C126.992 60.7637 127.033 60.8845 126.992 61.0053C126.952 61.126 126.872 61.1663 126.791 61.1663Z" fill="#14132F"/>
<path d="M124.576 64.3061C125.265 64.3061 125.824 63.7474 125.824 63.0581C125.824 62.3688 125.265 61.8101 124.576 61.8101C123.887 61.8101 123.328 62.3688 123.328 63.0581C123.328 63.7474 123.887 64.3061 124.576 64.3061Z" fill="#31B0FF"/>
<path d="M174.901 140.195C172.646 140.396 170.392 140.637 168.137 140.839C157.791 141.845 147.444 142.811 137.098 143.818C136.695 143.858 136.293 143.898 135.89 143.939C134.883 144.019 133.877 144.14 132.871 144.221C132.186 144.301 131.542 144.341 130.858 144.422C128.845 144.623 126.791 144.824 124.778 145.026C122.846 145.227 120.914 145.388 118.981 145.589C117.331 145.75 115.68 145.911 114.029 146.072L114.231 142.892L116.284 113.624L116.606 110.081C117.492 99.6941 118.377 89.3475 119.263 78.9607C119.786 78.6386 120.39 78.2763 120.994 77.9542C121.356 77.7529 121.719 77.5516 122.121 77.3503C122.484 77.149 122.846 76.9477 123.249 76.7464C123.691 76.5451 124.134 76.3036 124.577 76.1023C126.308 75.2569 128.2 74.4919 130.254 73.7673V73.8075L133.877 78.7996C133.957 78.7191 134.078 78.7594 134.159 78.8399L146.035 95.1448L145.431 82.3022C145.431 82.1814 145.512 82.1009 145.633 82.1009C145.472 78.5581 145.311 75.0153 145.19 71.4725C148.733 71.4323 151.51 71.8348 153.483 72.2777C153.966 72.3985 154.369 72.479 154.53 72.5192C157.63 73.2842 160.045 74.3712 161.776 75.2166C164.313 83.832 166.728 93.0916 168.822 102.995C169.224 104.968 169.627 106.9 170.03 108.833C171.479 116.241 172.687 123.407 173.653 130.291C174.096 133.592 174.539 136.934 174.901 140.195Z" fill="#31B0FF"/>
<path d="M146.478 95.7485C146.478 95.829 146.438 95.9095 146.357 95.9498C146.317 95.9498 146.317 95.9498 146.277 95.9498C146.196 95.9498 146.156 95.9095 146.116 95.8693L133.837 79.041C133.756 78.9605 133.797 78.8397 133.877 78.7592C133.958 78.6787 134.078 78.719 134.159 78.7995L146.035 95.1044L145.431 82.2618C145.431 82.141 145.512 82.0605 145.633 82.0605C145.754 82.0605 145.834 82.141 145.834 82.2618L146.478 95.7485Z" fill="#14132F"/>
<path d="M193.218 159.986L194.253 160.474C193.868 161.293 193.634 162.18 193.566 163.1C193.552 163.287 193.545 163.475 193.545 163.664H192.4C192.4 163.447 192.408 163.231 192.424 163.016C192.503 161.956 192.773 160.932 193.218 159.986Z" fill="white"/>
<path d="M193.722 165.455C194.049 167.029 194.861 168.454 196.031 169.539L195.252 170.378C193.909 169.132 192.977 167.496 192.602 165.688L193.722 165.455Z" fill="white"/>
<path d="M197.423 170.4C198.596 170.982 199.926 171.294 201.31 171.294C201.876 171.294 202.434 171.242 202.977 171.14L203.188 172.265C202.575 172.38 201.947 172.438 201.31 172.438C199.749 172.438 198.245 172.086 196.914 171.425L197.423 170.4Z" fill="white"/>
<path d="M200.801 155C205.647 155 209.576 158.938 209.576 163.796C209.576 167.214 207.613 170.277 204.592 171.73L204.096 170.699C206.724 169.435 208.431 166.77 208.431 163.796C208.431 159.57 205.015 156.145 200.801 156.145V155Z" fill="white"/>
<path d="M201.746 159.467H200.602V168.051H201.746V159.467Z" fill="white"/>
<path d="M205.469 164.331V163.187H196.885V164.331H205.469Z" fill="white"/>
</svg>
