<svg width="18" height="18" viewBox="0 0 18 18" role="img" fill="none" xmlns="http://www.w3.org/2000/svg">
<g opacity="0.84">
<path fill-rule="evenodd" clip-rule="evenodd" d="M10.4998 4C10.4998 5.38071 9.38055 6.5 7.99984 6.5C6.61913 6.5 5.49984 5.38071 5.49984 4C5.49984 2.61929 6.61913 1.5 7.99984 1.5C9.38055 1.5 10.4998 2.61929 10.4998 4ZM11.9998 4C11.9998 6.20914 10.209 8 7.99984 8C5.7907 8 3.99984 6.20914 3.99984 4C3.99984 1.79086 5.7907 0 7.99984 0C10.209 0 11.9998 1.79086 11.9998 4ZM8 9C13.3494 9 15.408 12.3999 15.8852 15.5C15.9643 16.0139 16 16.5195 16 17H14.5H1.5H0C0 16.5195 0.0356603 16.0139 0.114766 15.5C0.592017 12.3999 2.65059 9 8 9ZM13.1521 12.6505C13.7927 13.4785 14.1786 14.4859 14.3644 15.5H1.63556C1.82139 14.4859 2.20726 13.4785 2.84786 12.6505C3.75772 11.4745 5.301 10.5 8 10.5C10.699 10.5 12.2423 11.4745 13.1521 12.6505Z" fill="currentColor"/>
</g>
</svg>
